<svg viewBox="0 0 60 60" fill="white" xmlns="http://www.w3.org/2000/svg">
<path d="M22.9545 40.5332L20.1678 37.1124C20.175 37.0323 20.3076 37.0682 20.3756 37.0717C27.0741 37.4552 33.7104 40.489 40.164 42.1147L40.5212 42.3058C36.7969 42.5817 33.1013 43.1622 29.457 43.9529C23.9387 45.1498 18.24 46.4505 12.785 47.8874C9.15981 48.843 5.58962 50.0601 1.92506 50.8365C2.47093 50.2847 3.21028 49.869 3.87439 49.451C7.28453 47.3081 11.0972 45.2226 14.6758 43.3617C15.5704 42.8959 20.0758 40.5344 20.7161 40.5344H22.9545V40.5332Z"/>
<path d="M47.5313 41.8017L46.1374 41.969L42.6687 42.0681C33.4847 39.4129 24.3878 36.3814 15.1404 33.9483C15.095 33.9363 15.003 33.9244 15.0162 33.9889L17.8864 36.7767C17.8995 36.84 17.8052 36.8305 17.7622 36.8173C16.5988 36.4482 14.3461 35.2944 13.24 34.6661C12.0468 33.9889 10.7902 33.0692 10.2862 31.7517C11.1235 31.7971 11.9452 32.0049 12.779 32.0873C14.3843 32.2474 15.9825 32.2641 17.5914 32.1721C18.0919 32.1435 18.701 31.9619 19.1967 32.0025C19.5658 32.0324 21.232 32.7729 21.3503 32.6786L18.5637 28.6664C18.5302 28.4885 18.6306 28.5291 18.7572 28.5577C21.121 29.094 23.7476 30.5907 26.1376 31.2285L47.5313 41.8017Z"/>
<path d="M58.7639 44.9253C57.9015 44.512 57.0857 44.0223 56.203 43.6436C54.0865 42.7382 51.866 42.2509 49.581 41.9881C41.9748 38.3427 34.5203 34.3807 26.9534 30.6636C22.1745 28.3165 17.2677 26.2274 12.5222 23.8111L17.294 29.554L9.10606 25.2014C7.87459 23.5722 7.02414 21.642 6.48545 19.6735C7.41353 20.1083 8.27472 20.6876 9.18609 21.1534C11.7434 22.4613 14.444 23.4611 17.2104 24.2339L14.0427 17.0577L33.763 29.4297C24.8321 21.9274 15.2288 15.2791 6.10442 8.01931L11.9739 18.1124C11.8879 18.2497 11.7876 18.0837 11.7207 18.0276C10.4833 17.0051 8.97945 15.9015 7.97134 14.6819C4.53492 10.5229 1.87131 5.2924 0.236115 0.163452C3.68567 3.83398 7.50192 7.14617 11.4281 10.2959C22.7287 19.363 36.2403 25.4391 48.6864 32.7491C51.5268 34.4177 54.6359 36.1521 56.553 38.9029C57.7916 40.6802 58.5166 42.7729 58.7639 44.9253ZM55.048 38.8455L51.5877 37.1124C51.8134 37.423 52.3235 37.7431 52.5158 38.0417C52.7093 38.3415 52.6495 38.664 52.7869 38.953C53.2073 39.8333 54.5057 39.3269 55.048 38.8467V38.8455Z"/>
</svg>
