<svg viewBox="0 0 136 41" fill="none" xmlns="http://www.w3.org/2000/svg">
<g clip-path="url(#clip0_222_562)">
<path d="M63.9785 32.5718H56.6875V17.8811C56.6875 17.7069 56.178 16.4852 56.0324 16.2402C54.7647 14.1095 51.2769 14.5788 49.6543 16.0809C49.1994 16.5029 48.2197 18.2529 48.2197 18.793V32.5718H40.9287V9.79498H47.9862V12.755C51.8349 8.10398 61.0639 7.71443 63.284 14.0003C63.4629 14.505 63.9816 16.3376 63.9816 16.7419V32.5718H63.9785Z" fill="white"/>
<path d="M96.6727 9.79492L102.202 23.0071L108.082 9.79492H114.785L101.85 41.0001H94.7923C95.6931 37.6506 97.8828 34.5106 98.5501 31.1139L89.6152 9.79492H96.6727Z" fill="white"/>
<path d="M135.205 11.8843C135.478 12.3329 133.78 16.5323 133.462 16.6208C130.787 15.4079 128.391 14.0179 125.276 14.375C122.328 14.7115 121.354 17.0517 124.609 18.1584C128.527 19.4923 135.087 19.2237 135.891 24.5446C137.341 34.1476 123.726 34.1712 117.445 31.4739C117.036 31.2968 115.534 30.562 115.358 30.2934C114.955 29.6737 117.026 26.513 116.899 25.5126C118.64 25.9523 120.077 26.9144 121.894 27.3954C123.966 27.9414 130.031 28.9861 129.307 25.4447C129.158 24.7099 128.221 24.4443 127.535 24.2082C123.75 22.9156 117.727 23.3258 116.305 18.6837C113.724 10.2523 124.836 8.1157 131.135 10.0162C131.702 10.1874 135.033 11.6098 135.202 11.8872L135.205 11.8843Z" fill="white"/>
<path d="M75.0938 17.4827C75.8915 18.2854 81.9966 19.2504 83.7315 19.9351C86.5005 21.027 88.2383 23.0367 88.1807 26.0557C88.0139 34.8825 72.6675 34.1123 67.3691 30.2994C67.2266 30.081 69.0251 25.5924 69.2889 25.5186C72.2308 26.9233 76.9348 28.8829 80.1587 27.6316C81.29 27.1919 81.9876 26.1413 81.2506 25.073C80.4984 23.9811 73.7776 23.0957 71.9093 22.2753C70.2837 21.5641 68.4852 19.8849 68.2305 18.0936C66.8232 8.10399 81.4083 7.48426 87.3952 12.0762C87.562 12.333 85.9667 16.1311 85.4723 16.615C82.8246 15.2811 78.7697 13.3747 75.8035 14.7617C74.7845 15.2398 74.3296 16.7213 75.0908 17.4856L75.0938 17.4827Z" fill="white"/>
<path d="M22.8163 0L9.40797 32.5716H0L13.6419 0H22.8163Z" fill="white"/>
<path d="M29.2853 32.5714L20.5112 12.1319C21.7547 8.78826 23.0801 5.32069 24.5965 2.0597C24.73 1.77344 24.8543 1.00319 25.285 1.13894L38.8116 32.5743H29.2853V32.5714Z" fill="white"/>
</g>
<defs>
<clipPath id="clip0_222_562">
<rect width="136" height="41" fill="white"/>
</clipPath>
</defs>
</svg>
