<svg viewBox="0 0 80 70" fill="none" xmlns="http://www.w3.org/2000/svg">
<g clip-path="url(#clip0_259_844)">
<path d="M41.3484 22.051C41.4016 21.9622 41.3049 21.8819 41.2759 21.9242C41.2228 22.013 41.3194 22.0933 41.3484 22.051Z" fill="white"/>
<path d="M41.2761 22.1146C41.0586 22.123 40.9716 22.3302 40.7976 22.419C40.3868 22.6303 39.5554 22.5458 39.0238 22.6346C37.7768 22.8417 36.7086 23.5266 36.0803 24.4778C36.815 24.4144 37.308 24.3806 37.9508 24.7357C40.0243 25.8771 38.3181 28.5489 36.0803 27.8218C37.3321 29.7622 40.5269 28.5828 39.7826 26.3506C39.7391 26.2153 39.3573 25.6277 39.4008 25.5812C39.5168 25.4586 39.5554 25.6784 39.5796 25.708C40.2659 26.6043 40.2321 27.9106 39.4733 28.7688L38.3906 29.6227C39.4974 29.8172 40.6429 30.0539 41.3341 29.0731C41.7981 28.4136 41.6821 27.7922 41.3824 27.0989C41.3244 26.9636 40.8024 26.19 40.8411 26.1519C40.9957 26.0166 41.2422 26.5662 41.2761 26.6085C41.6627 27.1158 41.8996 27.5724 42.0446 28.1558C42.1267 28.4771 42.1461 28.8491 42.1412 29.1788C43.2335 28.532 43.8812 27.3018 43.799 26.1477L44.089 26.2111C43.8957 25.2853 43.2674 24.482 42.5037 23.8437L43.2239 23.9705C42.6294 23.3913 41.8706 22.8967 40.9861 22.7403L41.2761 22.1104V22.1146Z" fill="white"/>
<path d="M39.5796 28.2358V28.2996C39.6287 28.2783 39.6287 28.2571 39.5796 28.2358Z" fill="white"/>
<path d="M56.032 30.2568V30.3206C56.0811 30.2993 56.0811 30.2781 56.032 30.2568Z" fill="white"/>
<path d="M39.3283 18.834L39.1495 18.8983C39.0383 18.9069 38.932 18.8897 38.8208 18.8983V18.834H39.3235H39.3283Z" fill="white"/>
<path d="M42.1992 0.0508111C54.7511 0.672263 66.6603 6.70077 73.5042 15.9126C73.8667 16.3988 76.003 19.4469 75.7806 19.7217L74.0503 19.9119C65.8386 5.69038 47.0131 -1.49648 29.3911 2.98897C19.4877 5.50859 11.0875 11.5625 6.27362 19.5187L4.24365 19.5864C10.0001 8.823 22.6487 1.29794 36.1866 0.186093C36.6941 0.143817 37.3949 0.0677213 37.8251 0.0465835C39.1494 -0.0168299 40.8749 -0.0168299 42.1992 0.0465835V0.0508111Z" fill="white"/>
<path d="M64.8332 46.7823C65.4905 47.1924 63.7167 49.4499 63.2866 49.8515C62.5712 50.5153 61.5804 51.1536 60.5461 50.5998C60.203 50.2236 63.5379 46.2962 64.8332 46.7823Z" fill="white"/>
<path d="M31.4113 46.7823C32.0638 47.1882 30.2852 49.4499 29.8647 49.8515C29.1639 50.5195 28.1489 51.1494 27.1242 50.5998C26.7811 50.2236 30.116 46.2962 31.4113 46.7823Z" fill="white"/>
<path d="M39.4443 67.5353C40.0796 67.5353 40.5946 67.0848 40.5946 66.5291C40.5946 65.9734 40.0796 65.5229 39.4443 65.5229C38.809 65.5229 38.2939 65.9734 38.2939 66.5291C38.2939 67.0848 38.809 67.5353 39.4443 67.5353Z" fill="white"/>
<path d="M28.9221 64.809C28.985 63.9884 29.6374 63.5993 29.8598 64.6017L28.9221 64.809Z" fill="white"/>
<path d="M52.3489 64.1235L52.9772 64.9442L52.0396 65.2192V64.1955L52.3489 64.1235Z" fill="white"/>
<path d="M20.0192 61.6642C19.8501 61.7699 19.3426 61.3892 19.3957 61.1904L20.3334 60.5728L20.0192 61.6642Z" fill="white"/>
<path d="M17.6656 59.0594C17.4916 59.1694 16.9696 58.9494 16.7424 58.9283C16.6651 58.5476 16.9937 58.3319 17.3031 58.1162C17.7284 58.0316 17.9314 58.8944 17.6704 59.0594H17.6656Z" fill="white"/>
<path d="M12.9794 23.1412C12.815 23.1792 12.699 23.2681 12.6652 23.2766C10.485 23.5939 8.31443 24.0212 6.10522 24.2328L6.7385 22.46C8.56097 22.9677 10.3979 22.9338 12.2736 23.0015C12.4718 23.01 12.9794 22.9169 12.9745 23.1369L12.9794 23.1412Z" fill="white"/>
<path d="M47.1907 20.5447C47.2245 20.5067 47.2487 20.3799 47.3454 20.27C47.2922 20.401 47.21 20.4855 47.1907 20.5447Z" fill="white"/>
<path d="M12.9794 23.141C16.6243 22.2488 18.2679 22.5955 21.6856 20.4391C23.5323 19.2721 24.6151 17.6145 27.1192 17.4031C28.8353 17.2594 30.0197 17.6907 31.4119 18.494C31.5135 18.1389 31.2814 18.253 31.1171 18.1431C30.6191 17.7964 29.6523 17.3482 29.0432 17.2213C24.8375 16.363 23.3969 19.0775 20.3272 20.6167C16.3923 22.5871 11.5823 22.8535 7.19771 21.9824C5.60245 21.6653 3.68329 21.0141 2.51343 19.9993C6.79648 20.067 12.056 19.826 15.9814 18.1811C17.2672 17.6399 18.4564 16.6843 19.7472 16.1473C24.2719 14.253 29.1882 15.4454 32.4319 18.6293C31.2186 16.8365 28.2891 15.5046 25.9784 15.1198C20.3804 14.1854 18.79 17.1156 14.3087 18.363C12.6748 18.8154 10.5816 19.1917 8.88 19.3566C8.76398 19.3693 8.47393 19.5976 8.60445 19.2509C8.81232 18.7097 10.0547 17.2255 10.5043 16.6758C25.1034 -1.20159 55.4135 -1.06205 69.8095 16.9507C70.0803 17.289 72.2411 20.1008 72.0236 20.2742C69.1038 20.1727 66.3918 19.7752 63.8539 18.4729C62.6889 17.8767 61.6205 16.993 60.3685 16.4687C56.5833 14.8703 53.3106 15.289 49.8542 17.2128C49.54 17.3904 48.9454 17.6357 48.8245 17.9486C52.2326 15.8809 55.6697 15.0691 59.6337 16.5617C61.3885 17.2213 62.6598 18.4222 64.2648 19.2044C67.9049 20.9845 72.9614 21.1621 76.8674 20.0036C71.9511 23.8048 63.8732 23.9528 58.5412 20.6589C57.0619 19.7456 55.9791 18.4095 54.2098 17.8894C51.0482 16.9591 49.395 17.9232 47.5 19.9993C47.9641 18.845 48.6698 17.8513 48.4281 16.5279C48.4765 16.3672 48.9309 16.4983 49.0469 16.2234C49.4771 15.1917 47.3985 12.401 46.567 11.5934L47.3453 11.4538C46.393 9.85976 44.4786 8.91684 42.661 8.17688C43.1251 7.5976 43.3764 6.83226 43.1251 6.14727L42.7432 6.06271C41.7135 8.21071 40.1762 7.65679 38.0927 7.87244C35.1971 8.17265 31.76 10.2657 30.943 12.7519C33.0024 12.3503 34.8732 12.3122 36.2509 13.919C38.8372 16.938 34.878 20.6082 31.1799 19.0395L30.943 19.3735C32.1806 22.4179 36.7682 22.752 39.0644 20.4052C38.7453 21.1663 38.0396 21.8683 37.3338 22.3757C36.9325 22.6632 36.0092 22.9084 35.9367 23.3439C35.8884 23.6272 36.3718 23.6568 36.6038 23.7203C38.929 24.3841 41.5636 24.3926 43.1057 22.5025L44.0677 20.6801V22.7985L44.44 22.993C45.5905 22.3926 46.364 21.4412 47.1906 20.5448C46.4123 22.4729 45.9917 24.4983 46.0981 26.5575L46.7652 22.5659C47.6885 19.2636 50.6035 16.7308 54.6352 18.4687C55.7277 18.9422 56.5157 19.8978 57.4245 20.5363C61.9396 23.716 68.0209 24.3292 73.4255 22.5913L74.2135 24.6378H70.2301L66.4063 23.9528L70.5443 24.9127H74.2956C74.7259 24.7055 74.5035 24.9127 74.2715 25.0268C69.2778 27.5004 61.751 26.4771 57.497 23.2044L55.0026 21.0141C59.2469 26.4349 67.7019 28.2404 74.4455 25.3228C74.7597 25.3778 75.625 29.0015 75.7314 29.5342C77.7424 39.826 73.9717 50.2658 65.5362 57.5724L66.6384 58.9339C76.9883 50.1982 80.7492 36.9973 76.442 24.9423C76.0649 23.8936 75.5138 22.9127 75.1609 21.8556L76.7079 21.0818C78.2886 24.4518 79.4392 28.0247 79.8356 31.6738C79.8839 32.1178 79.9709 32.7309 79.9951 33.1072V36.9338L79.1395 42.2658C75.8619 55.9403 63.1094 66.8832 47.3743 69.416L42.1921 70.0037H37.8172L32.635 69.416C16.8998 66.8874 4.14737 55.9445 0.86982 42.2658L0.00934183 36.9423C0.0721857 35.6738 -0.0728386 34.3842 0.00934183 33.1157C0.178537 30.5152 0.797307 27.585 1.64812 25.0522C1.80764 24.5786 3.07419 21.2551 3.36424 21.2382L4.83382 21.9951C1.26622 29.7414 0.860151 38.2615 4.06519 46.1643C5.91667 50.7352 9.06369 55.2257 13.1244 58.528L14.1927 57.2299C6.38074 50.3166 2.85665 40.8112 4.08936 31.1495C4.35524 29.0776 4.95467 27.0353 5.63145 25.048C12.1527 27.3101 20.3321 25.8006 24.3734 20.604L21.1491 23.2467C16.6098 26.1558 10.3109 26.3714 5.16254 24.6336L10.9732 23.771C11.5581 23.771 12.1914 23.3778 12.6603 23.2678C12.7376 23.2551 12.8247 23.2847 12.8923 23.2678L12.9745 23.1325L12.9794 23.141ZM41.8779 37.7626C41.525 37.0396 40.9739 36.3038 40.447 35.6696C38.6148 33.4581 36.918 32.7647 34.7717 31.0691C31.6198 28.5829 31.0832 25.0903 32.9009 21.7752C31.2331 23.585 30.9479 26.3968 31.905 28.5152C33.2828 31.5512 35.8739 32.2066 38.3683 34.2023C39.7218 35.2848 40.7177 36.5322 41.8779 37.7584V37.7626ZM14.7728 31.4793C13.9462 31.5469 13.0325 31.4328 12.1962 31.4793C12.114 31.1114 12.3026 31.2425 12.5056 31.141C13.6368 30.549 14.7148 29.5638 15.643 29.0987C16.3874 28.7266 18.147 28.4898 19.1719 28.0881C21.705 27.0987 24.1607 25.2932 25.756 23.3228L26.4908 22.1896C22.5945 27.5342 15.0532 30.2742 7.97601 28.4687L11.8288 27.4032L13.5208 26.4264C11.5968 27.4412 9.41175 27.9994 7.18805 28.2657L7.03335 28.4729C9.71147 29.3355 12.4911 29.4497 15.3142 29.1579L11.4083 31.6146C18.1132 32.5364 25.3016 28.9 27.4963 23.2805L24.9922 26.7604C22.5606 29.2594 18.5289 31.1791 14.7632 31.4793H14.7728ZM72.9662 29.1537C67.2523 30.4729 61.0211 29.3397 56.5592 25.9444L54.0647 23.7541C58.4783 29.1664 66.7205 31.3397 73.8992 29.1537C73.8412 28.8788 73.5705 28.9296 73.353 28.8831C71.3951 28.4602 69.3938 28.3165 67.5762 27.3778L67.8566 27.6822L72.9662 29.1537ZM15.1644 33.9359C21.3376 33.4666 26.9839 29.6653 28.9127 24.511L26.7857 27.7753C24.3976 30.752 20.1242 33.0607 16.0152 33.6569C15.6381 33.7118 15.8122 33.6104 15.9475 33.4581C16.4019 32.9423 17.127 32.5237 17.4316 31.8894L15.1644 33.9359ZM29.3816 26.4222L29.5363 25.6061H29.3816L29.2366 26.2361L29.2221 26.4264H29.3768L29.3816 26.4222ZM68.4367 31.8852C63.8249 32.0839 58.8312 30.6717 55.5392 27.7922C54.9784 27.3017 54.6013 26.5871 53.9101 26.2108C57.1683 30.4772 63.4091 32.7901 69.215 32.0163L65.541 29.9698L68.4318 31.8767L68.4367 31.8852ZM20.3224 33.3905L19.0704 35.2383L19.1429 35.5723C24.1172 34.4941 28.2311 31.0015 29.2221 26.5575L28.2649 28.6547C26.4811 31.8641 23.3583 34.215 19.4619 35.3017C19.2251 35.196 19.4619 35.0607 19.5344 34.955C19.81 34.5575 20.1532 34.2023 20.3563 33.7584C20.4143 33.6357 20.6366 33.3651 20.3224 33.3905ZM67.2668 27.2425V27.3778C67.3683 27.3313 67.3683 27.2848 67.2668 27.2425ZM63.9071 34.0713C60.325 33.5216 57.2069 31.881 54.7657 29.5638L53.4411 28.0585C55.6407 31.5554 59.9624 33.9951 64.5307 34.3419L62.2634 32.16L63.9071 34.067V34.0713ZM46.9585 28.7435V28.8788C47.0601 28.8323 47.0601 28.7858 46.9585 28.7435ZM59.6869 35.3017C56.3513 34.4899 53.881 31.8345 52.8127 29.0184L52.7692 29.3989L54.9204 32.9846C51.8217 32.7393 49.0759 31.3567 47.2631 29.1621L48.5683 30.7562C48.2348 35.6569 47.4516 40.5575 45.9385 45.2806C46.2093 45.3313 46.3253 45.1537 46.4896 45.01C47.0552 44.5195 47.4323 42.2912 47.6063 41.4793C48.3411 38.029 48.7423 34.4434 48.752 30.9338C50.1491 31.8767 51.6525 32.7351 53.4025 33.0818C53.9632 33.1918 55.0751 33.1748 55.4666 33.3271C55.6745 33.4074 56.5882 34.27 57.0426 34.5448C57.8015 35.0015 59.0391 35.5258 59.9286 35.7119C60.1364 35.7541 60.2331 35.6949 60.1509 35.5173C59.9334 35.0522 59.1986 34.3757 59.0584 33.8091C58.749 33.7837 58.9714 34.0586 59.0246 34.177C59.2034 34.5617 59.5032 34.9212 59.682 35.3059L59.6869 35.3017ZM25.4756 33.3905C28.3181 33.3778 30.8318 31.7668 32.3449 29.771C31.7745 29.9317 31.5328 30.5152 31.1026 30.8704C30.1357 31.6653 28.8547 32.2869 27.6606 32.7774L25.4756 33.3947V33.3905ZM31.5666 44.4561C30.9382 43.8683 30.5515 43.399 30.856 42.5364C31.2669 41.3821 32.9879 41.8176 33.9837 41.7203C38.4553 41.2975 42.0954 39.01 44.0581 35.5047L42.0326 37.8345C39.9781 39.8725 37.0824 41.1664 33.9789 41.4497C32.7075 41.5681 31.6391 41.0649 30.8077 42.2277C30.2276 43.0396 30.4838 44.1305 31.5618 44.4561H31.5666ZM32.3498 45.0058C37.8317 44.1559 42.6707 40.8535 45.3101 36.5998L42.7383 39.5427C39.7653 42.4307 36.8068 43.5089 32.7123 44.7182C32.4706 44.7901 32.2628 44.5956 32.3449 45.0058H32.3498ZM38.755 45.2764C39.9297 44.8535 40.9545 43.9064 41.8054 43.0945C43.0961 41.8599 44.3288 40.363 45.1602 38.8577L42.2743 42.2742L38.755 45.2764ZM29.2269 41.9994C29.2269 41.2764 28.3713 40.604 27.5736 40.511L19.9212 41.1791C19.6601 41.492 20.5496 42.4899 20.9412 42.6167C19.0269 45.7711 16.1312 49.2299 14.8937 52.6252C14.5311 53.6147 14.1154 54.9466 15.2466 55.6654L18.4516 50.2743L23.7595 49.5174C23.6966 47.6358 21.2119 47.9191 19.6988 48.1516L23.4066 42.7182L29.2269 41.9994ZM44.2224 45.9614C44.9911 44.2446 45.8564 42.5533 46.4123 40.769L43.9275 45.7669L44.2224 45.9571V45.9614ZM42.661 44.7309C42.9897 44.7817 43.1009 44.5533 43.2556 44.3673C44.0919 43.3948 44.6672 42.1474 45.2376 41.048L42.661 44.7351V44.7309ZM48.549 43.5258C47.9302 43.6907 47.8577 44.6929 48.0414 45.1495C48.3701 45.6696 48.8294 46.139 49.5787 45.936C50.2458 45.6189 50.2506 44.8831 50.0862 44.3123C49.7575 43.7922 49.2983 43.3229 48.549 43.5258ZM26.7277 51.1538C29.5025 53.3652 33.8435 49.9783 32.9057 47.3187C32.751 46.8747 31.4361 45.9106 30.9189 45.7795C28.1151 45.0607 24.8423 49.1664 24.4556 51.2806C23.774 55.0142 26.9984 56.5703 30.6917 55.0988C31.0784 54.9466 31.6391 54.473 31.9582 54.4307C32.3594 54.3758 32.1612 55.2468 32.5721 55.399C32.7365 55.5386 32.9395 55.5893 33.1377 55.4667C33.2779 55.3779 34.2883 53.1961 34.5058 52.8366C35.9319 50.4561 37.8269 48.0628 40.708 46.9212L40.8144 47.2806C39.804 49.1622 36.5845 52.6971 37.9429 54.8028C39.0015 56.4477 42.0906 55.492 43.2073 54.2997H43.4393C44.4835 56.8282 48.1139 55.2679 49.2983 53.6189C50.618 55.8515 53.1559 56.0629 55.573 55.0058C56.4625 54.6168 57.0812 53.9529 57.8885 53.4751C59.2663 56.4477 63.0901 56.029 65.541 54.2912C66.3435 53.7204 68.1659 52.1221 67.1073 51.2891C65.6667 53.0438 63.4188 55.5512 60.6295 54.6295C59.4258 53.75 59.8512 52.3123 60.1558 51.1495C62.9354 53.1918 66.7785 50.3884 66.4063 47.6612C66.2855 46.7859 64.6999 45.6696 63.6702 45.6738C61.693 45.6738 59.4113 48.0163 58.6137 49.4582C57.6662 51.1707 58.1689 52.0248 56.332 53.4751C55.2926 54.2954 53.388 55.2975 52.0006 54.6591C50.5455 53.5047 51.4881 51.2299 52.2616 49.9149C52.9336 48.7732 54.3983 46.8747 55.9356 46.7774C55.7325 48.1432 53.678 50.5026 56.1579 51.1453C57.0861 49.4032 58.7732 47.6273 56.3948 46.1685C54.5337 45.0227 52.5613 46.4645 51.3238 47.7288C49.1581 49.9445 49.5787 52.6506 47.0311 54.3631C46.5235 54.7056 45.837 55.065 45.2231 54.7098C44.5221 52.1728 48.4958 49.3018 48.2734 46.9973C48.2493 46.769 47.9689 46.029 47.7127 45.9656C47.1858 45.8303 46.2334 47.437 45.9676 47.8303C44.6478 49.7711 43.3716 53.3271 41.3268 54.566C40.7032 54.9424 39.862 55.0438 39.601 54.2997C39.1176 52.9424 41.3993 50.3377 42.1147 49.103C42.5885 48.2869 43.1251 47.5301 42.6223 46.6041C41.5008 44.528 38.5906 47.1538 37.503 48.0079C37.7543 47.2045 37.764 46.4476 37.3338 45.695C37.1694 45.6569 37.0147 45.6781 36.8697 45.7499C36.5651 45.9022 34.8103 48.528 34.5058 49.01C33.1909 51.0692 32.519 53.6273 29.7732 54.5703C26.4811 55.6992 25.9252 53.4498 26.7228 51.1495L26.7277 51.1538ZM36.7247 55.5259L35.0085 56.824C33.9354 57.2257 33.1136 56.862 32.0404 56.824C33.6115 57.8303 36.2606 57.268 36.7247 55.5259ZM42.0374 56.7563L41.3509 56.9085C40.2198 58.1644 39.1369 61.7331 37.619 62.5238C35.0956 63.8388 31.6101 62.0037 32.9009 59.3525C33.2006 58.7394 34.0175 58.4603 34.3076 57.8515C33.7662 58.4096 32.867 58.7563 32.5818 59.4836C31.3636 62.5999 35.7095 64.5196 38.3441 62.6083C39.8475 61.5174 40.8965 58.2236 42.0374 56.7563ZM16.9675 56.8916L14.4006 59.5766L15.0919 60.3039L16.0539 59.5005L17.5718 60.1305C20.1097 59.2722 18.6353 57.7204 16.9772 56.8916H16.9675ZM62.4423 57.3145L61.78 57.9952L64.4533 60.7183L65.0963 59.898L62.4423 57.3145ZM61.2289 59.8895L61.7172 59.1453C60.0204 58.1474 57.8837 59.8811 58.6765 61.5386C59.9914 64.2785 64.6467 61.9868 62.4085 59.6358L60.6343 60.6675L61.1758 61.2637L61.8767 60.8578C61.9879 61.7796 60.7697 62.2236 60.0687 61.547C59.1938 60.621 59.7835 59.3779 61.2289 59.8895ZM20.6318 63.7246L21.5406 59.9825L20.5545 59.3525L17.1415 61.3948L17.0352 61.7373C17.7313 62.3504 17.9102 61.9318 18.3984 61.843C18.5918 61.8092 19.5393 62.342 19.6263 62.4984C19.7762 62.7563 19.4329 63.0227 19.6746 63.251L20.627 63.7246H20.6318ZM24.0592 61.1411L22.9909 60.8663C22.8072 61.8134 21.3859 63.0946 21.2602 63.9403C21.2216 64.194 21.3182 64.101 21.4584 64.1728C21.8258 64.3547 22.9087 64.9255 23.2229 64.9593C23.5758 64.9974 23.5371 64.5026 23.7402 64.342L22.6621 63.7923L24.0592 61.1453V61.1411ZM55.6697 62.2574C56.2401 61.9191 56.4963 61.9487 57.0909 62.2066L57.8112 61.4709C55.805 60.3208 53.3348 62.1432 54.6545 64.0967C56.1241 66.2574 59.9382 64.3293 58.4396 62.1475L56.477 62.9043L56.825 63.4413L57.6565 63.1792C57.3665 65.1369 54.7077 63.8007 55.6697 62.2574ZM26.2587 63.0439L27.4093 63.4456L27.7477 62.7648L25.8333 61.9656C25.6931 61.9318 25.6303 61.9995 25.5481 62.0798C25.3983 62.232 24.0205 65.1073 24.0544 65.2807L26.1621 66.0587L26.5488 65.4286C26.3216 65.0692 25.3016 65.1792 25.4756 64.6126L25.9494 64.4646L26.6503 64.7986C27.3658 64.2067 27.008 63.7373 26.0992 63.7204L26.2587 63.0396V63.0439ZM52.3244 62.7902L51.0869 63.1284L50.9419 67.0058C52.0296 66.9805 52.0441 66.6506 52.3051 65.9107L53.3735 65.6443L54.1373 66.0418L55.0074 65.7035L52.3293 62.7859L52.3244 62.7902ZM29.8602 65.6485C32.5383 64.6379 30.3098 62.9424 28.3084 63.0565L27.2642 66.4604L28.1392 66.6718L28.7628 65.6358L29.1109 66.972L30.479 67.2764L29.865 65.6485H29.8602ZM49.2741 63.5851L48.1236 63.8557L49.2354 67.4371L50.386 67.1665L49.2741 63.5851ZM36.2558 68.2363V64.5449L35.0231 64.4223L33.9112 66.046L33.5245 64.2659L32.3498 63.9952L31.0929 67.4709L32.1854 67.6781L32.9685 65.9064L33.4278 67.8938L33.8967 67.9487L35.1536 66.1771L35.2212 68.101L36.2461 68.2278L36.2558 68.2363ZM47.9737 63.9995L46.7604 64.1644L46.2528 66.3208L44.8219 64.4223L43.5988 64.5449L46.0449 67.9445L46.9537 67.6866L47.9737 64.0037V63.9995ZM39.1901 64.5745C36.1736 64.8325 36.5458 68.7056 39.6107 68.5111C42.6658 68.3166 42.2936 64.3081 39.1901 64.5745Z" fill="white"/>
<path d="M47.3455 20.2742C47.3745 20.2404 47.3938 20.1178 47.5002 19.9995C47.4518 20.1178 47.3696 20.2108 47.3455 20.2742Z" fill="white"/>
<path d="M42.0374 8.51903C43.8647 8.89112 45.4454 9.88901 46.7217 11.0518L46.6443 11.2548L45.0055 10.777C46.77 12.0201 48.3894 14.0201 48.5973 16.037L48.2879 15.8298L47.9785 15.9694C48.4329 18.3711 46.7555 21.0941 44.5366 22.4641C44.6865 19.8341 43.5843 17.3563 41.5733 15.4239C40.9594 14.8319 40.1182 14.0962 39.2239 13.8594C40.3599 14.7981 41.5249 15.6226 42.2791 16.8573C45.0442 21.4028 42.4821 24.8531 36.5699 23.4197C36.4829 23.1026 36.6425 23.1956 36.7681 23.1068C37.3676 22.6924 37.8752 22.536 38.4408 21.9821C41.4524 19.0053 40.2294 14.1258 35.9463 12.7643C36.4008 13.2294 37.0727 13.445 37.59 13.8552C39.3496 15.2421 40.2246 17.796 39.0982 19.6903C37.6673 22.092 32.7751 22.2738 31.5714 19.5973C36.1204 20.925 39.8088 15.8341 35.8642 13.0434C34.4333 12.0286 33.1619 12.1596 31.4167 12.2907C32.8283 10.2188 35.4291 8.53171 38.2329 8.27378C39.9732 8.11733 41.6265 8.50634 42.7431 6.89111L42.0374 8.52748V8.51903ZM38.7211 9.64799C38.1362 9.17019 36.1445 9.86364 36.2557 10.7051C36.918 11.1871 39.5865 10.3584 38.7211 9.64799Z" fill="white"/>
</g>
<defs>
<clipPath id="clip0_259_844">
<rect width="80" height="70" fill="white"/>
</clipPath>
</defs>
</svg>
