<svg  viewBox="0 0 195 60" fill="none" xmlns="http://www.w3.org/2000/svg">
<g clip-path="url(#clip0_222_578)">
<path d="M26.0377 29.9602C27.6774 29.0203 29.3171 28.0888 30.9526 27.1446C34.5464 25.0718 38.1403 22.9947 41.7342 20.9218C45.0722 18.9958 48.4103 17.0698 51.7526 15.148C51.8406 15.0976 51.9958 14.8375 52.0713 15.1732C51.9622 15.1648 51.9161 15.2403 51.87 15.32C51.0732 16.7089 50.2723 18.102 49.4713 19.491C48.2677 21.5806 47.0642 23.6703 45.8564 25.7557C44.4726 28.1559 43.0803 30.5519 41.6964 32.9478C40.4048 35.1802 39.1216 37.4125 37.83 39.6448C36.899 41.2477 35.9555 42.8464 35.0245 44.4493C34.7393 44.9361 34.7519 44.9445 35.3097 44.9445C40.6732 44.9445 46.0326 44.9445 51.3961 44.9445C51.5597 44.9445 51.7316 44.9025 51.8868 44.999C51.7442 45.0032 51.6058 45.0158 51.4632 45.0158C45.869 45.0158 40.2748 45.0158 34.6848 45.0158C31.7997 45.0158 28.9145 45.02 26.0293 45.0242C24.4735 45.0242 22.9177 45.0242 21.3619 45.0158C20.0787 45.0158 18.7913 45.0032 17.5081 44.999C17.6506 44.9067 17.81 44.9487 17.961 44.9487C20.4939 44.9487 23.0268 44.9403 25.5597 44.9571C25.9413 44.9571 26.021 44.8438 26.021 44.4829C26.0084 39.7917 26.0126 35.1004 26.0126 30.4134C26.0126 30.2833 26 30.1574 25.9958 30.0274C26 30.0022 26.0126 29.9812 26.0335 29.9644L26.0377 29.9602Z" fill="white" fill-opacity="0.5"/>
<path d="M26.0377 29.9601C26.0377 29.9601 26.0042 29.9979 26 30.0231C25.9077 30.0692 25.8112 30.107 25.7232 30.1574C21.5045 32.5911 17.2858 35.029 13.0671 37.467C13.0461 37.4586 13.0293 37.4586 13.0083 37.4586C12.9454 37.3453 12.8867 37.232 12.8238 37.1229C11.4525 34.7479 10.0813 32.3687 8.70996 29.9937C8.71415 29.9601 8.71835 29.9266 8.72673 29.893C8.76867 29.8301 8.8148 29.7671 8.85674 29.7C11.2722 25.5207 13.6835 21.3372 16.099 17.1578C19.328 11.5644 22.5571 5.97524 25.7861 0.381845C25.8574 0.260158 25.9538 0.15106 25.9454 0C26.1132 0.121687 26.0293 0.302119 26.0293 0.453179C26.0335 10.121 26.0293 19.793 26.0335 29.4608C26.0335 29.6286 26.0335 29.7965 26.0377 29.9601Z" fill="#8C8C8C"/>
<path d="M25.9456 -0.000198434C25.954 0.155057 25.8533 0.264156 25.7862 0.381646C22.5572 5.97504 19.3282 11.5684 16.0991 17.1576C13.6837 21.337 11.2724 25.5205 8.85688 29.6998C8.81914 29.7669 8.77301 29.8299 8.72688 29.8928C8.61366 29.855 8.5843 29.7501 8.53398 29.6662C7.81269 28.4116 7.09559 27.1569 6.37011 25.9023C4.57108 22.7846 2.77204 19.6711 0.964625 16.5576C0.671077 16.0541 0.432045 15.5128 0.0420447 15.0638C0.021077 14.8498 0.222367 14.8372 0.339787 14.7659C5.64463 11.6985 10.9537 8.63537 16.2627 5.57222C19.3995 3.7595 22.5362 1.95099 25.6772 0.138273C25.7653 0.0879196 25.8575 0.0417625 25.9498 -0.00439453L25.9456 -0.000198434Z" fill="white"/>
<path d="M51.891 45.003C51.7359 44.9065 51.5639 44.9484 51.4004 44.9484C46.0368 44.9484 40.6775 44.9484 35.3139 44.9484C34.7562 44.9484 34.7436 44.94 35.0288 44.4533C35.9597 42.8504 36.9033 41.2516 37.8342 39.6487C39.1259 37.4206 40.4133 35.1841 41.7007 32.9518C43.0888 30.5516 44.4768 28.1556 45.8607 25.7597C47.0684 23.67 48.272 21.5845 49.4755 19.4949C50.2765 18.106 51.0733 16.7171 51.8742 15.324C51.9204 15.2442 51.9665 15.1645 52.0755 15.1771C52.0755 15.3198 52.0839 15.4582 52.0839 15.6009C52.0839 25.2519 52.0839 34.8988 52.0797 44.5498C52.0797 44.7092 52.193 44.919 51.9539 45.0239C51.933 45.0156 51.912 45.0114 51.8868 45.0072L51.891 45.003Z" fill="white"/>
<path d="M182.302 26.5569V26.9639C182.302 31.3111 182.302 35.6582 182.31 40.0012C182.31 40.3369 182.239 40.4376 181.891 40.4292C180.914 40.404 179.937 40.4124 178.96 40.4292C178.708 40.4292 178.603 40.3872 178.603 40.1019C178.612 33.4804 178.612 26.859 178.603 20.2376C178.603 19.9984 178.666 19.9396 178.901 19.9396C180.033 19.9522 181.166 19.9564 182.298 19.9396C182.554 19.9396 182.654 20.0613 182.767 20.2417C185.271 24.2113 187.775 28.1766 190.278 32.1461C190.593 32.6412 190.907 33.1406 191.289 33.7406V33.2413C191.289 28.9487 191.293 24.6518 191.28 20.3592C191.28 20.0236 191.356 19.9312 191.7 19.9396C192.652 19.9648 193.604 19.9648 194.556 19.9396C194.891 19.9312 195 19.9984 195 20.3676C194.983 23.6993 194.992 27.0268 194.992 30.3585C194.992 33.6902 194.987 36.8121 195 40.0389C195 40.3662 194.912 40.4418 194.597 40.4334C193.557 40.4124 192.513 40.4166 191.473 40.4334C191.222 40.4334 191.087 40.3536 190.957 40.1396C188.16 35.6918 185.355 31.2481 182.554 26.8086C182.499 26.7247 182.445 26.6408 182.386 26.5527C182.361 26.5527 182.331 26.5569 182.306 26.5611L182.302 26.5569Z" fill="white"/>
<path d="M153.018 38.1845C151.702 39.9846 149.94 40.7357 147.839 40.7902C145.919 40.8364 144.107 40.4671 142.56 39.2587C140.933 37.9872 139.909 36.3088 139.486 34.2989C138.882 31.4246 138.802 28.525 139.586 25.6843C140.522 22.3106 142.849 20.3511 146.271 19.7258C148.754 19.2727 151.073 19.7384 153.123 21.249C154.641 22.3652 155.535 23.88 155.769 25.764C155.795 25.9612 155.778 26.0661 155.526 26.0619C154.407 26.0494 153.287 26.0577 152.167 26.0535C152.062 26.0535 151.957 26.0913 151.916 25.9067C151.567 24.3499 150.595 23.3974 149.043 23.0743C147.424 22.7386 145.923 23.0324 144.657 24.1401C143.78 24.908 143.361 25.9486 143.159 27.0606C142.74 29.4104 142.707 31.7602 143.357 34.0765C143.986 36.3256 145.533 37.4585 147.978 37.4543C150.129 37.4501 151.853 35.8347 152.083 33.6862C152.117 33.3673 152.142 33.0484 152.167 32.7295C152.192 32.4064 152.125 32.2931 151.76 32.2973C150.385 32.3225 149.009 32.2973 147.63 32.3141C147.366 32.3141 147.277 32.2596 147.286 31.9784C147.307 31.1686 147.311 30.3587 147.286 29.5489C147.277 29.2384 147.387 29.2006 147.655 29.2006C150.242 29.209 152.826 29.2132 155.413 29.2006C155.727 29.2006 155.816 29.2678 155.816 29.5951C155.803 33.0526 155.807 36.5144 155.803 39.972C155.803 40.1189 155.916 40.3664 155.702 40.4084C155.472 40.4504 155.199 40.5175 154.981 40.2825C154.411 39.6699 153.828 39.074 153.249 38.4698C153.169 38.3859 153.102 38.2894 153.023 38.1887L153.018 38.1845Z" fill="white"/>
<path d="M175.768 30.0734C175.794 31.8903 175.735 33.5729 175.181 35.1842C174.087 38.3732 171.852 40.2447 168.501 40.7063C166.199 41.021 164.052 40.5762 162.173 39.1621C160.357 37.7984 159.376 35.9311 159.028 33.7156C158.684 31.521 158.684 29.3097 158.961 27.1109C159.342 24.0813 160.751 21.7063 163.59 20.3636C166.903 18.7942 171.025 19.5537 173.412 22.1218C174.603 23.4016 175.257 24.9331 175.538 26.6368C175.735 27.8201 175.806 29.0075 175.768 30.0734ZM171.994 30.2454C171.965 28.9068 171.94 27.6102 171.596 26.3472C171.042 24.3121 169.495 23.0281 167.394 22.9736C165.691 22.9316 163.884 23.7624 163.116 25.8773C162.731 26.9389 162.638 28.0508 162.601 29.167C162.546 30.7867 162.538 32.4064 162.957 33.9883C163.561 36.271 165.201 37.2948 167.008 37.3746C169.281 37.4795 170.874 36.3046 171.541 34.1687C171.944 32.8764 171.948 31.542 171.99 30.2496L171.994 30.2454Z" fill="white"/>
<path d="M82.6799 30.2076C82.6799 33.4848 82.6799 36.7619 82.6841 40.0433C82.6841 40.3286 82.6338 40.4377 82.3151 40.4293C81.338 40.4041 80.3609 40.4083 79.3838 40.4293C79.0483 40.4377 78.9351 40.3664 78.9351 39.9971C78.9518 37.3116 78.9393 34.6219 78.9518 31.9364C78.9518 31.6217 78.9099 31.5 78.5451 31.5042C75.9996 31.5252 73.4541 31.521 70.9044 31.5042C70.6193 31.5042 70.5438 31.5672 70.548 31.8609C70.5606 34.5841 70.548 37.3116 70.5647 40.0349C70.5647 40.3664 70.4683 40.4335 70.158 40.4251C69.1683 40.4041 68.1786 40.4041 67.1889 40.4251C66.8744 40.4335 66.8115 40.3328 66.8115 40.0391C66.8199 33.7911 66.8157 27.5431 66.8199 21.2951C66.8199 20.9217 66.8283 20.5482 66.8199 20.1747C66.8157 19.9901 66.8702 19.9314 67.0589 19.9356C68.1535 19.944 69.2438 19.9482 70.3383 19.9356C70.6318 19.9356 70.5564 20.1118 70.5564 20.2629C70.5564 22.6924 70.5647 25.1219 70.5522 27.5515C70.5522 27.8494 70.6193 27.9333 70.9296 27.9333C73.4625 27.9207 75.9954 27.9207 78.5283 27.9333C78.8596 27.9333 78.9602 27.8704 78.9602 27.5137C78.9435 25.1094 78.9602 22.705 78.9435 20.3006C78.9435 19.9859 79.0357 19.923 79.3293 19.9314C80.3315 19.9482 81.3338 19.9524 82.3402 19.9314C82.6338 19.9272 82.6925 20.0069 82.6925 20.2922C82.6799 23.5946 82.6841 26.9011 82.6841 30.2034L82.6799 30.2076Z" fill="white"/>
<path d="M93.558 19.9439C95.7596 19.9439 97.957 19.9523 100.159 19.9355C100.515 19.9355 100.582 20.0363 100.574 20.3635C100.553 21.2363 100.553 22.1133 100.574 22.9861C100.582 23.2798 100.494 23.347 100.209 23.347C97.0554 23.3344 93.9061 23.347 90.7525 23.3302C90.3625 23.3302 90.2996 23.4393 90.308 23.796C90.329 25.0926 90.3248 26.3933 90.308 27.6899C90.308 27.9795 90.3667 28.076 90.6812 28.0718C93.407 28.0592 96.137 28.0718 98.8628 28.0592C99.1732 28.0592 99.2864 28.1221 99.278 28.4578C99.2528 29.3306 99.2528 30.2076 99.278 31.0804C99.2864 31.4035 99.169 31.4496 98.888 31.4496C96.1622 31.4412 93.4322 31.4496 90.7064 31.437C90.3835 31.437 90.308 31.5126 90.308 31.8357C90.3248 33.4302 90.3248 35.0247 90.308 36.6192C90.308 36.9297 90.3667 37.0263 90.698 37.0221C93.8348 37.0095 96.9757 37.0221 100.113 37.0053C100.494 37.0053 100.582 37.1144 100.57 37.4794C100.544 38.3522 100.553 39.2292 100.57 40.102C100.57 40.3454 100.519 40.4335 100.255 40.4335C95.7932 40.4251 91.327 40.4251 86.8651 40.4335C86.6135 40.4335 86.5464 40.358 86.5464 40.1062C86.5548 33.4973 86.5548 26.8885 86.5464 20.2796C86.5464 20.0027 86.6261 19.9439 86.8903 19.9439C89.117 19.9565 91.3396 19.9481 93.5664 19.9481L93.558 19.9439Z" fill="white"/>
<path d="M129.035 36.5142C127.786 36.5142 126.54 36.5184 125.291 36.51C125.06 36.51 124.959 36.5772 124.888 36.7996C124.519 37.9283 124.125 39.0487 123.756 40.1732C123.693 40.3704 123.605 40.4334 123.403 40.4292C122.334 40.4208 121.269 40.4166 120.2 40.4292C119.893 40.4334 119.914 40.3201 119.994 40.0977C122.326 33.4804 124.649 26.8632 126.968 20.2418C127.052 20.0026 127.152 19.9354 127.396 19.9396C128.553 19.9522 129.711 19.9522 130.868 19.9396C131.099 19.9396 131.199 20.011 131.279 20.225C133.598 26.8506 135.921 33.4721 138.257 40.0935C138.358 40.3746 138.312 40.4334 138.018 40.4292C136.936 40.4124 135.858 40.4124 134.776 40.4292C134.5 40.4334 134.399 40.3285 134.323 40.0935C133.967 39.0025 133.59 37.9199 133.237 36.8247C133.158 36.5772 133.044 36.4974 132.78 36.4974C131.535 36.5142 130.285 36.5058 129.035 36.5058V36.5142ZM129.048 24.5553C128.1 27.3709 127.19 30.09 126.263 32.8049C126.171 33.0776 126.196 33.1448 126.494 33.1448C128.176 33.1322 129.862 33.128 131.543 33.1448C131.879 33.1448 131.95 33.0944 131.832 32.7587C131.25 31.0845 130.692 29.406 130.126 27.7276C129.778 26.7037 129.43 25.6841 129.044 24.5553H129.048Z" fill="white"/>
<path d="M111.116 27.0776C112.546 24.774 113.955 22.5123 115.356 20.2464C115.494 20.024 115.633 19.9359 115.901 19.9401C117.117 19.9569 118.338 19.9485 119.558 19.9485C119.566 20.1163 119.462 20.2044 119.394 20.3093C117.436 23.4522 115.473 26.5951 113.502 29.7296C113.364 29.952 113.36 30.1114 113.502 30.3338C115.494 33.5606 117.478 36.7958 119.462 40.0268C119.533 40.1401 119.642 40.2408 119.646 40.4296C118.69 40.4296 117.738 40.3583 116.799 40.4506C115.868 40.5429 115.373 40.1988 114.916 39.3932C113.742 37.3371 112.454 35.344 111.209 33.3298C111.15 33.2333 111.083 33.1452 110.999 33.0151C110.378 34.018 109.779 34.9831 109.183 35.9482C108.328 37.3329 107.468 38.7134 106.625 40.1065C106.482 40.3415 106.336 40.4422 106.051 40.438C104.855 40.4212 103.664 40.4296 102.452 40.4296C102.427 40.2492 102.549 40.1485 102.616 40.0394C104.612 36.8 106.608 33.5648 108.617 30.3338C108.776 30.0737 108.768 29.9016 108.609 29.654C106.642 26.5783 104.688 23.4942 102.729 20.41C102.641 20.2716 102.557 20.1331 102.444 19.9443C103.79 19.9443 105.082 19.9443 106.378 19.9443C106.583 19.9443 106.625 20.0995 106.705 20.2212C108.11 22.4116 109.519 24.6019 110.923 26.7881C110.978 26.872 111.037 26.956 111.121 27.0776H111.116Z" fill="white"/>
<path d="M0.0419573 15.0684C0.431957 15.5131 0.67099 16.0544 0.964538 16.5622C2.77196 19.6715 4.57099 22.7892 6.37002 25.9069C7.09551 27.1615 7.8126 28.4161 8.53389 29.6708C8.58422 29.7589 8.61357 29.8638 8.7268 29.8974C8.7226 29.9309 8.71841 29.9645 8.71002 29.9981C8.63034 30.1156 8.54647 30.2247 8.47518 30.3464C5.97163 34.6809 3.46389 39.0155 0.968732 43.3543C0.68357 43.8494 0.331312 44.3152 0.159377 44.8732C0.130022 44.8984 0.104861 44.9236 0.0755057 44.953C-0.0461072 44.8355 0.00421539 44.6844 0.00421539 44.5501C0.00421539 34.8655 0.00421539 25.181 0.00421539 15.4964C0.00421539 15.3579 0.0251831 15.2152 0.0377638 15.0768L0.0419573 15.0684Z" fill="#8C8C8C"/>
<path d="M51.8909 45.0032C51.9118 45.0074 51.937 45.0158 51.9579 45.02C51.2492 45.5319 50.4692 45.9222 49.7144 46.3586C43.7889 49.791 37.855 53.2108 31.9254 56.6348C30.0802 57.7006 28.2309 58.7664 26.3815 59.8322C26.306 59.8742 26.2263 59.912 26.0586 59.9959C26.587 59.0811 27.0692 58.2461 27.5515 57.4069C29.8957 53.3451 32.2399 49.2874 34.5883 45.2256C34.626 45.1585 34.6554 45.0871 34.6847 45.0158C40.2789 45.0158 45.8731 45.0158 51.4631 45.0158C51.6057 45.0158 51.7441 45.0032 51.8867 44.999L51.8909 45.0032Z" fill="#8C8C8C"/>
<path d="M13.0672 37.4712C17.2859 35.0333 21.5046 32.5996 25.7233 30.1616C25.8114 30.1113 25.9078 30.0735 26.0001 30.0273C26.0043 30.1574 26.0169 30.2833 26.0169 30.4134C26.0169 35.1046 26.0169 39.7959 26.0252 44.4829C26.0252 44.848 25.9414 44.9613 25.564 44.9571C23.0311 44.9403 20.4981 44.9487 17.9652 44.9487C17.8143 44.9487 17.6549 44.9067 17.5123 44.999C17.483 45.0074 17.4494 45.0158 17.4201 45.02C17.4033 45.0158 17.3907 45.0074 17.3823 44.9948C16.5688 43.5849 15.7552 42.1792 14.9459 40.7694C14.3169 39.67 13.692 38.5664 13.063 37.467L13.0672 37.4712Z" fill="white"/>
<path d="M13.0672 37.4713C13.692 38.5707 14.3169 39.6742 14.9501 40.7736C15.7595 42.1835 16.573 43.5892 17.3866 44.9991C17.2566 45.0033 17.1308 45.0117 17.0008 45.0117C11.5072 45.0117 6.01786 45.0117 0.524307 45.0117C0.377533 45.0117 0.213984 45.0704 0.0839844 44.9487C0.113339 44.9194 0.138501 44.8942 0.167855 44.8648C0.318823 44.8648 0.427855 44.7641 0.545275 44.697C3.79947 42.8213 7.05366 40.9498 10.3037 39.0658C11.2137 38.5413 12.1446 38.0545 13.0127 37.4629C13.0337 37.4629 13.0546 37.4629 13.0714 37.4713H13.0672Z" fill="#8C8C8C"/>
<path d="M17.4241 45.0239C17.4534 45.0155 17.487 45.0113 17.5163 45.0029C18.7996 45.0071 20.087 45.0155 21.3702 45.0197C22.926 45.0197 24.4818 45.0239 26.0376 45.0281C26.0376 49.9669 26.0376 54.9057 26.0376 59.8445C26.0125 59.8529 25.9873 59.8571 25.9579 59.8655C25.4967 59.0724 25.0354 58.2794 24.5741 57.4821C22.2676 53.4916 19.9654 49.5011 17.6631 45.5065C17.575 45.3512 17.5037 45.1876 17.4241 45.0239Z" fill="#8C8C8C"/>
<path d="M0.15931 44.8647C0.129956 44.8899 0.104794 44.9193 0.0754395 44.9487C0.104794 44.9235 0.129956 44.8941 0.15931 44.8647Z" fill="#FEFEFE"/>
</g>
<defs>
<clipPath id="clip0_222_578">
<rect width="195" height="60" fill="white"/>
</clipPath>
</defs>
</svg>
