<svg viewBox="0 0 211 51" fill="none" xmlns="http://www.w3.org/2000/svg">
<g clip-path="url(#clip0_264_324)">
<path d="M28.1359 43.8312C26.0063 43.8312 24.0885 42.4917 23.3943 40.4728C23.1433 39.7461 22.9707 39.098 22.8413 38.5481C22.4452 36.8238 22.4138 36.1167 21.9275 34.4199C20.8647 30.7041 18.2762 28.6694 14.5621 27.9545C13.6444 27.7778 12.7267 27.6246 11.7697 27.6835C10.1068 27.7896 8.4439 27.6757 6.82414 27.2632C3.45913 26.407 1.1295 24.4116 0.164702 21.0021C-0.556934 18.449 1.10204 15.4245 3.91407 14.3522C8.0321 12.781 11.9227 13.4095 15.5308 15.8644C17.5742 17.2549 18.1428 19.4035 18.386 21.7013C18.4841 22.6362 18.5703 23.5828 18.7743 24.498C19.3979 27.3418 22.2413 29.8125 25.1866 30.0953C26.5632 30.2288 27.9516 30.2406 29.3282 30.3781C33.3599 30.7905 34.9405 32.9391 35.6896 36.6942C35.7994 37.2441 35.9602 38.23 35.7915 39.5105C35.7915 39.5301 35.7876 39.5537 35.7837 39.5733C35.4346 42.0322 33.2815 43.8312 30.8028 43.8312H28.1359Z" fill="white"/>
<path d="M21.3548 20.4643C21.2763 18.8264 22.0333 17.5812 23.2491 16.5875C24.6374 15.4523 24.7904 14.2622 23.653 12.8717C23.355 12.5103 23.0177 12.1764 22.6765 11.8544C21.3352 10.5817 20.5547 9.04197 20.4253 7.18407C20.2998 5.39294 22.3078 3.90819 24.257 4.32455C26.7121 4.85089 28.7319 6.03712 30.234 8.07963C30.7909 8.83772 31.1321 9.66258 31.2106 10.5974C31.289 11.548 30.9753 12.31 30.2183 12.9306C28.877 14.0343 28.7476 15.0006 29.6928 16.4736C30.5046 17.7344 31.5792 18.7203 32.9402 19.3645C34.1599 19.9419 35.0815 19.7534 36.0032 18.7675C37.1876 17.4988 38.3171 17.2631 39.8937 17.9544C42.4901 19.0935 44.2118 22.3694 43.6823 25.1621C43.3686 26.8236 42.1449 27.6799 40.4703 27.3775C39.5878 27.2164 38.8074 26.859 38.1053 26.2502C37.321 25.5667 36.6268 24.7497 35.5875 24.3922C34.4383 23.9955 33.4657 24.2351 32.6499 25.1268C32.6303 25.1464 32.6146 25.17 32.595 25.1896C29.936 27.9745 29.0025 27.8959 25.7434 26.7411C23.104 25.8063 21.3665 23.1864 21.3626 20.4604L21.3548 20.4643Z" fill="white"/>
<path d="M145.696 8.15822C147.939 8.15822 150.187 8.16215 152.43 8.15822C155.462 8.15036 157.654 11.3673 156.481 14.1129C156.273 14.6 156.289 16.1319 156.52 16.6346C156.681 16.9921 156.791 17.3613 156.791 17.7541C156.791 19.1132 156.775 20.4722 156.791 21.8313C156.795 22.2516 156.681 22.4205 156.23 22.4126C154.567 22.389 152.904 22.389 151.242 22.4126C150.728 22.4205 150.649 22.1769 150.657 21.7488C150.677 20.5547 150.673 19.3645 150.681 18.1705C150.689 17.2945 150.496 17.1099 149.606 17.1139C147.943 17.1217 146.28 17.1492 144.617 17.106C144.072 17.0903 143.978 17.2395 143.994 17.7462C144.033 19.0778 143.994 20.4094 144.017 21.7409C144.025 22.228 143.892 22.4244 143.362 22.4126C141.868 22.3812 140.37 22.3812 138.872 22.4126C138.354 22.4244 138.217 22.2516 138.217 21.7488C138.232 17.4477 138.236 13.1506 138.217 8.84953C138.217 8.25642 138.464 8.16607 138.962 8.17C141.205 8.18571 143.453 8.17786 145.696 8.17786C145.696 8.17 145.696 8.16607 145.696 8.15822ZM147.088 11.7719C147.088 11.7719 147.088 11.764 147.088 11.7601C146.151 11.7601 145.21 11.7837 144.272 11.7523C143.751 11.7326 143.629 12.0036 143.711 12.4121C143.794 12.8167 143.343 13.5198 144.229 13.5237C146.08 13.5395 147.927 13.5355 149.779 13.5237C150.351 13.5198 150.743 13.2488 150.724 12.6243C150.704 12.0036 150.328 11.764 149.739 11.7719C148.857 11.7837 147.975 11.7719 147.088 11.7719Z" fill="white"/>
<path d="M57.1857 15.2597C57.1857 13.1504 57.2053 11.0451 57.174 8.9358C57.1661 8.36233 57.323 8.15415 57.9152 8.16593C59.3546 8.20128 60.7978 8.19735 62.2372 8.16593C62.8412 8.15415 63.0059 8.4016 62.9902 8.95937C62.9588 10.2084 62.9863 11.4575 62.951 12.7027C62.9353 13.2801 63.1392 13.4804 63.7236 13.4725C65.5787 13.445 67.4377 13.4372 69.2927 13.4765C69.9124 13.4883 70.0261 13.2565 70.0065 12.7066C69.9634 11.4889 70.0065 10.2674 69.9595 9.04578C69.9359 8.42124 70.0889 8.13843 70.7831 8.162C72.1675 8.20914 73.5559 8.19343 74.9403 8.16593C75.5365 8.15415 75.7835 8.34661 75.7796 8.97508C75.76 13.2172 75.7639 17.4594 75.7796 21.7015C75.7796 22.22 75.6423 22.4517 75.0776 22.436C73.5833 22.3968 72.0852 22.3889 70.587 22.4085C70.0928 22.4164 69.9869 22.2239 69.9908 21.7722C70.0065 20.3857 69.9712 18.9991 69.9908 17.6126C69.9908 17.2355 69.9359 17.0705 69.5006 17.0784C67.7004 17.1059 65.9003 17.0862 64.0962 17.098C62.9627 17.1059 62.9588 17.1176 62.9627 18.2057C62.9667 19.3408 62.9353 20.4839 63.002 21.6151C63.0412 22.3103 62.7784 22.4557 62.147 22.436C60.79 22.3928 59.4291 22.3732 58.0721 22.44C57.2995 22.4792 57.1544 22.1964 57.17 21.4933C57.2171 19.4155 57.1857 17.3337 57.1857 15.2519V15.2597Z" fill="white"/>
<path d="M130.479 22.4047C129.067 22.4047 127.651 22.3772 126.239 22.4087C121.431 22.5108 118.784 18.3629 119.442 14.1051C119.842 11.5205 121.137 9.63902 123.592 8.62955C124.502 8.2564 125.482 8.20141 126.443 8.18962C129.49 8.1582 132.542 8.18962 135.589 8.16998C136.264 8.16606 136.558 8.34674 136.468 9.08126C136.393 9.70973 136.413 10.3578 136.46 10.9942C136.503 11.5912 136.342 11.8269 135.691 11.819C132.726 11.7837 129.761 11.8033 126.792 11.7915C125.992 11.7915 125.286 12.3218 125.11 13.0956C125.019 13.4962 125.216 13.5866 125.561 13.563C128.961 13.3313 132.369 13.563 135.773 13.4452C136.256 13.4295 136.499 13.6259 136.491 14.1247C136.483 14.9024 136.46 15.6802 136.499 16.4539C136.522 16.9606 136.362 17.1295 135.848 17.1256C133.632 17.1099 131.412 17.1295 129.196 17.1335C128.031 17.1335 126.867 17.1531 125.706 17.1021C124.964 17.0667 124.965 17.3888 125.243 17.8759C125.588 18.4886 126.055 18.8303 126.843 18.8186C129.836 18.7832 132.828 18.8343 135.82 18.8343C136.279 18.8343 136.471 18.9639 136.452 19.447C136.42 20.2208 136.413 21.0025 136.456 21.7763C136.487 22.3026 136.287 22.4519 135.793 22.444C134.02 22.4244 132.244 22.4362 130.471 22.4362C130.471 22.4283 130.471 22.4204 130.471 22.4126L130.479 22.4047Z" fill="white"/>
<path d="M185.864 13.4608C187.527 13.4608 189.19 13.4765 190.853 13.4529C191.402 13.4451 191.669 13.5865 191.637 14.1992C191.602 14.8866 191.657 15.5819 191.677 16.2732C191.692 16.8702 191.473 17.1452 190.81 17.1373C187.539 17.1059 184.272 17.153 181.001 17.0941C180.177 17.0784 180.256 17.3573 180.503 17.8836C180.817 18.5435 181.276 18.8617 182.064 18.8499C184.915 18.8067 187.77 18.8302 190.625 18.8342C191.727 18.8342 191.751 18.8695 191.751 19.9418C191.751 20.5232 191.716 21.1084 191.743 21.6898C191.767 22.2043 191.622 22.44 191.049 22.4361C187.809 22.4164 184.566 22.4989 181.327 22.4164C178.389 22.3418 176.189 21.0181 175.071 18.1861C174.224 16.0375 174.385 11.9643 176.659 9.98852C177.809 8.99083 179.107 8.36629 180.617 8.26809C184.131 8.0442 187.649 8.28381 191.163 8.19739C191.602 8.18561 191.743 8.35058 191.727 8.77872C191.7 9.44254 191.645 10.1181 191.739 10.7741C191.869 11.6972 191.425 11.8229 190.665 11.815C187.755 11.7875 184.844 11.815 181.938 11.7914C181.523 11.7914 181.158 11.8346 180.891 12.1567C180.613 12.4985 180.228 12.9187 180.35 13.3115C180.491 13.7632 181.028 13.4451 181.381 13.4529C182.876 13.4844 184.374 13.4647 185.868 13.4647L185.864 13.4608Z" fill="white"/>
<path d="M106.649 8.21332C108.865 8.21332 111.085 8.19761 113.301 8.21724C115.171 8.23296 116.744 9.34848 117.324 11.0296C118.015 13.0368 117.517 15.0479 115.991 16.2223C115.254 16.7919 114.363 17.0904 113.45 17.1061C110.763 17.1454 108.073 17.1297 105.382 17.0983C104.892 17.0943 104.778 17.2122 104.794 17.6992C104.837 19.0583 104.794 20.4173 104.821 21.7764C104.833 22.2831 104.657 22.4559 104.151 22.4441C102.652 22.4088 101.158 22.4049 99.6601 22.4166C99.2365 22.4166 99.0757 22.2949 99.0757 21.851C99.0874 17.495 99.0914 13.1389 99.0757 8.77894C99.0757 8.17011 99.4247 8.20546 99.8287 8.20546C102.103 8.20939 104.374 8.20546 106.649 8.20546V8.21332ZM107.916 13.5317C107.916 13.5317 107.916 13.5199 107.916 13.5121C108.857 13.5121 109.802 13.5396 110.743 13.5003C111.238 13.4806 111.571 13.1939 111.563 12.644C111.559 12.1019 111.253 11.7916 110.743 11.7877C108.943 11.7641 107.139 11.7524 105.339 11.7956C104.555 11.8152 104.829 12.4947 104.77 12.9464C104.704 13.4571 104.994 13.5474 105.417 13.5396C106.249 13.5239 107.08 13.5356 107.912 13.5356L107.916 13.5317Z" fill="white"/>
<path d="M205.133 22.4281C203.199 22.3496 201.258 22.5892 199.324 22.3064C196.163 21.8468 194.402 20.2285 193.689 17.0901C193.171 14.808 193.481 12.6791 194.869 10.7622C196.308 8.77472 198.422 8.20124 200.709 8.16589C203.811 8.12268 206.913 8.19339 210.02 8.18946C210.51 8.18946 210.659 8.39371 210.647 8.82185C210.647 8.87684 210.651 8.93183 210.647 8.98682C210.576 9.89024 211.031 11.0411 210.443 11.6342C209.929 12.1527 208.804 11.7874 207.949 11.7914C205.619 11.7992 203.293 11.7796 200.964 11.7717C199.952 11.7678 199.293 12.2784 199.242 13.284C199.175 14.6116 199.171 15.9471 199.23 17.2747C199.277 18.3156 199.924 18.8223 200.987 18.8223C203.87 18.8223 206.753 18.8498 209.635 18.8027C210.471 18.7909 210.722 19.1091 210.651 19.8671C210.576 20.6881 211.004 21.7486 210.459 22.2749C209.965 22.7581 208.925 22.4006 208.129 22.4203C207.133 22.4438 206.133 22.4242 205.137 22.4242L205.133 22.4281Z" fill="white"/>
<path d="M87.5021 22.4284C86.753 22.4284 86.0039 22.4009 85.2587 22.4362C84.7371 22.4637 84.592 22.2634 84.6038 21.7646C84.6312 20.433 84.5528 19.0975 84.6391 17.7699C84.6901 16.9921 84.443 16.4658 83.9096 15.9434C82.0624 14.1444 80.2426 12.314 78.4189 10.4915C78.2032 10.2754 77.9796 10.0594 77.8228 9.80407C77.5717 9.39557 77.3992 8.90851 77.5953 8.4568C77.8071 7.96188 78.3287 8.1897 78.717 8.18184C79.8543 8.15435 80.9917 8.19363 82.1251 8.1622C82.7487 8.14649 83.2389 8.31932 83.6782 8.78281C84.7057 9.87085 85.7882 10.9078 86.8079 12.0037C87.2864 12.5143 87.6354 12.6007 88.1571 12.043C89.1924 10.9275 90.3023 9.87477 91.3534 8.77103C91.7691 8.3311 92.2319 8.15042 92.8281 8.16613C93.938 8.19363 95.044 8.17006 96.1539 8.17399C97.2599 8.17399 97.6011 8.72782 97.154 9.76872C97.0049 10.1104 96.7422 10.3579 96.4872 10.6093C94.6596 12.4279 92.8359 14.2544 90.9926 16.0573C90.5455 16.4972 90.3533 16.9411 90.3886 17.597C90.4592 18.9797 90.3965 20.3702 90.42 21.7567C90.4279 22.2595 90.2631 22.4559 89.7494 22.4323C89.0003 22.4009 88.2512 22.4245 87.5021 22.4245V22.4284Z" fill="white"/>
<path d="M12.0637 10.9587C8.89872 10.7623 6.06708 9.67035 3.71784 7.54535C2.82756 6.74013 2.1726 5.65603 1.95297 4.40303C1.67059 2.76509 2.47067 1.32747 4.12964 0.612591C5.84353 -0.121928 7.63193 -0.121928 9.4321 0.227656C11.8362 0.699005 14.0443 1.58671 15.8601 3.29928C16.7347 4.12414 17.2564 5.16504 17.5113 6.31199C17.8603 7.88315 17.0956 9.38754 15.668 10.1456C14.5424 10.7427 13.3462 11.0255 12.0637 10.9548V10.9587Z" fill="white"/>
<path d="M165.694 8.20149C167.8 8.20149 169.906 8.23292 172.012 8.18185C172.702 8.16614 172.863 8.4136 172.824 9.02635C172.784 9.69017 172.784 10.3579 172.824 11.0217C172.859 11.5991 172.651 11.823 172.075 11.8034C171.106 11.772 170.133 11.7995 169.168 11.7641C168.678 11.7445 168.521 11.8545 168.529 12.4083C168.576 15.5113 168.557 18.6183 168.58 21.7253C168.584 22.2556 168.415 22.4323 167.866 22.4166C166.427 22.3773 164.984 22.3773 163.544 22.4166C162.964 22.4323 162.787 22.2673 162.791 21.6782C162.823 18.6851 162.791 15.6881 162.827 12.695C162.835 11.9605 162.619 11.7288 161.885 11.7877C161.03 11.8584 160.168 11.7641 159.309 11.8152C158.634 11.8584 158.489 11.5441 158.556 10.9707C158.587 10.6957 158.611 10.4208 158.615 10.1419C158.63 8.84829 159.271 8.20149 160.536 8.20149C162.254 8.20149 163.972 8.20149 165.69 8.20149H165.694Z" fill="white"/>
<path d="M122.831 41.1959C122.741 41.2587 122.662 41.3373 122.564 41.3844C122.494 41.4158 122.404 41.4041 122.223 41.4237C122.823 40.5124 123.384 39.6601 123.949 38.8077C124.039 38.6702 124.133 38.5013 124.333 38.5877C124.572 38.6899 124.533 38.8706 124.439 39.0709C124.008 39.9782 123.788 40.9484 123.639 41.9382C123.6 42.2014 123.396 42.5274 123.678 42.7003C124 42.8967 124.247 42.5628 124.455 42.3703C125.208 41.6633 125.694 40.7442 126.322 39.9389C126.541 39.6561 126.745 39.3576 126.965 39.0748C127.165 38.8234 127.42 38.6349 127.753 38.7488C128.086 38.8666 128.032 39.1887 128.035 39.4597C128.039 39.6993 128.035 39.9389 128.035 40.3239C128.498 39.8054 128.859 39.3694 129.255 38.9687C129.541 38.682 129.859 38.3206 130.322 38.5602C130.828 38.8234 130.6 39.2869 130.506 39.6679C130.279 40.6028 130.02 41.5258 129.741 42.5746C130.42 42.4371 130.698 42.0247 130.977 41.6476C131.506 40.9366 132.008 40.206 132.518 39.4833C132.793 39.0984 133.071 38.5838 133.605 38.7606C134.099 38.9255 133.816 39.4872 133.883 39.8682C133.899 39.9507 133.895 40.0332 133.903 40.1746C134.314 40.0921 134.409 39.6993 134.644 39.4715C134.903 39.2241 135.134 38.9452 135.409 38.7174C135.64 38.5249 135.907 38.3481 136.228 38.576C136.526 38.7881 136.542 39.0748 136.456 39.389C136.236 40.2178 136.017 41.0466 135.789 41.8715C135.73 42.0875 135.636 42.2918 135.777 42.551C136.495 42.2682 136.938 41.7654 137.107 41.0113C137.366 39.8604 138.087 39.0434 139.017 38.3913C139.825 37.8257 140.55 38.1753 140.641 39.1612C140.692 39.7229 140.523 40.2532 140.378 40.7913C140.303 41.0702 140.052 41.3176 140.186 41.6751C140.59 41.6594 140.695 41.3019 140.884 41.0623C141.19 40.6695 141.448 40.2375 141.762 39.8565C141.994 39.5776 142.233 39.0944 142.664 39.338C143.064 39.5619 142.853 40.0411 142.778 40.4064C142.676 40.8934 142.511 41.3648 142.409 41.8518C142.347 42.1504 142.119 42.5706 142.48 42.7356C142.809 42.8849 143.072 42.5039 143.272 42.2525C144.017 41.3176 144.598 40.3278 144.233 39.0552C144.19 38.902 144.178 38.7134 144.229 38.5681C144.327 38.2696 144.366 37.8414 144.829 37.9161C145.261 37.9868 145.268 38.3874 145.233 38.7095C145.119 39.7386 144.798 40.7049 144.331 41.6279C144.206 41.8754 144.076 42.115 143.947 42.3585C143.86 42.4685 143.629 42.551 143.778 42.712C143.864 42.8063 144.013 42.6649 144.1 42.5589C144.821 42.1543 145.119 41.4158 145.512 40.7559C146.19 39.6208 147.049 38.7213 148.418 38.4699C149.473 38.2774 149.7 38.5445 149.343 39.5579C149.061 40.3671 148.724 41.1605 148.649 42.0286C148.633 42.2132 148.551 42.4489 148.743 42.5628C148.982 42.7042 149.159 42.496 149.316 42.3468C150.108 41.5847 150.618 40.6303 151.124 39.6758C151.289 39.3694 151.167 39.2319 150.818 39.2123C150.587 39.1966 150.316 39.1966 150.155 38.9648C150.175 38.9059 150.194 38.8156 150.206 38.8156C151.516 38.8823 151.838 38.0143 152.046 36.9616C152.167 36.3449 152.297 35.7125 152.606 35.143C152.697 34.978 152.775 34.7423 153.014 34.8169C153.253 34.8955 153.195 35.1508 153.148 35.3197C152.983 35.9325 152.779 36.5374 152.602 37.1462C152.261 38.3167 152.426 38.5445 153.614 38.5563C153.908 38.5563 154.207 38.5563 154.638 38.5563C154.108 38.9727 153.603 38.9962 153.132 39.0591C152.532 39.1376 152.183 39.4322 152.006 39.9979C151.798 40.6617 151.618 41.3294 151.583 42.0247C151.555 42.5785 151.763 42.7513 152.269 42.4332C152.822 42.0836 153.222 41.5887 153.583 41.0623C154.085 40.3317 154.571 39.5894 155.069 38.8548C155.175 38.6938 155.301 38.4817 155.524 38.6192C155.724 38.7449 155.638 38.9609 155.552 39.1416C155.073 40.1275 154.889 41.1919 154.716 42.2603C154.689 42.4214 154.63 42.6099 154.803 42.716C154.963 42.8142 155.12 42.716 155.265 42.6296C155.854 42.2721 156.281 41.8047 156.481 41.1173C156.787 40.0489 157.372 39.1494 158.289 38.5053C158.646 38.2539 159.046 37.9318 159.497 38.2578C159.944 38.5799 160.168 39.0237 160.058 39.6208C159.909 40.4378 159.662 41.2194 159.34 42.0011C160.015 41.6004 160.34 40.9013 160.795 40.32C161.121 39.9036 161.399 39.4558 161.725 39.0434C161.901 38.8234 162.16 38.6584 162.454 38.7527C162.784 38.8588 162.756 39.173 162.764 39.448C162.772 39.6915 162.764 39.9311 162.764 40.3474C163.227 39.8172 163.564 39.393 163.941 39.008C164.247 38.6977 164.592 38.3049 165.078 38.5956C165.537 38.8706 165.317 39.3419 165.227 39.7308C165.074 40.3789 164.87 41.0113 164.702 41.6515C164.627 41.9343 164.482 42.2211 164.655 42.5431C165.404 42.4017 165.588 41.5612 166.361 41.2037C165.91 42.0993 165.455 42.8024 164.674 43.2227C164.023 43.5723 163.607 43.3209 163.717 42.5864C163.839 41.7693 164.102 40.972 164.298 40.1668C164.353 39.9389 164.56 39.6404 164.278 39.4951C164.035 39.3694 163.835 39.6522 163.662 39.8211C162.796 40.6774 162.243 41.7183 161.917 42.8888C161.843 43.1638 161.803 43.584 161.368 43.4426C161.019 43.3287 161.148 43.0027 161.223 42.7278C161.431 41.954 161.619 41.1723 161.811 40.3946C161.85 40.2375 161.901 40.0489 161.701 39.9625C161.501 39.88 161.415 40.0646 161.313 40.1903C160.803 40.8463 160.305 41.514 159.78 42.1543C159.497 42.496 159.164 42.7906 158.772 43.0106C157.552 43.694 156.944 43.5173 156.262 42.1661C155.905 42.5392 155.595 42.9084 155.238 43.2266C154.96 43.478 154.607 43.5998 154.238 43.4073C153.85 43.203 153.846 42.8495 153.92 42.4685C154.003 42.0364 154.065 41.6004 154.152 41.0584C153.661 41.3412 153.469 41.7693 153.179 42.0993C152.81 42.5157 152.493 42.9791 152.01 43.2698C151.343 43.6705 150.791 43.3602 150.779 42.5942C150.779 42.3742 150.81 42.1504 150.818 41.9304C150.826 41.7379 150.818 41.5494 150.818 41.2587C150.414 41.4787 150.328 41.8479 150.124 42.1071C149.814 42.5039 149.5 42.8888 149.077 43.1638C148.779 43.3562 148.453 43.4151 148.143 43.203C147.861 43.0106 147.806 42.712 147.853 42.39C147.896 42.0914 148.041 41.8047 147.939 41.4315C147.324 41.9304 146.912 42.6099 146.245 43.0106C145.402 43.5173 145.131 43.4466 144.715 42.5549C144.198 42.9831 143.66 43.3759 143.009 43.5526C141.954 43.8433 141.417 43.3169 141.633 42.2446C141.739 41.7104 142.005 41.2037 141.986 40.6145C141.515 40.7481 141.296 41.1173 141.033 41.4237C140.507 42.0325 140.005 42.6688 139.276 43.0538C138.087 43.6822 137.483 43.4937 136.895 42.3153C136.562 42.6021 136.24 42.9084 135.891 43.1755C135.648 43.3641 135.369 43.4937 135.052 43.2855C134.758 43.0931 134.773 42.8063 134.836 42.5431C135.013 41.7615 135.228 40.9877 135.428 40.2139C135.491 39.9743 135.64 39.6522 135.428 39.5108C135.122 39.3065 134.95 39.6797 134.773 39.8604C133.993 40.6342 133.432 41.5455 133.142 42.6138C133.091 42.8024 133.04 42.9909 132.965 43.1677C132.887 43.3484 132.781 43.5291 132.534 43.4623C132.283 43.3955 132.283 43.1795 132.33 42.987C132.514 42.1779 132.71 41.3687 132.903 40.5635C132.95 40.3632 133.138 40.1118 132.867 39.9743C132.593 39.8329 132.495 40.1314 132.373 40.2964C131.867 40.9916 131.385 41.7026 130.867 42.386C130.671 42.6492 130.42 42.8849 130.153 43.0734C129.879 43.2659 129.589 43.588 129.192 43.3012C128.867 43.0616 128.918 42.7278 129 42.3939C129.188 41.6437 129.377 40.8934 129.569 40.1432C129.628 39.9114 129.816 39.6286 129.522 39.4833C129.247 39.3458 129.087 39.6404 128.922 39.8132C128.188 40.587 127.584 41.4394 127.318 42.4921C127.271 42.6806 127.212 42.8652 127.133 43.0459C127.039 43.2698 126.965 43.5762 126.635 43.4662C126.361 43.3719 126.439 43.1088 126.486 42.8927C126.627 42.2721 126.769 41.6515 126.91 41.0309C126.945 40.8699 127.008 40.7088 127.028 40.5478C127.051 40.3514 127.243 40.0921 126.933 39.9743C126.682 39.88 126.627 40.1432 126.518 40.2885C125.91 41.078 125.306 41.8715 124.698 42.6649C124.443 42.9988 124.164 43.3091 123.749 43.4426C123.137 43.639 122.674 43.2894 122.733 42.6531C122.776 42.2132 122.878 41.7811 122.953 41.3451C122.953 41.2587 122.949 41.1723 122.945 41.0859C122.898 41.1291 122.851 41.1723 122.808 41.2155L122.831 41.1959ZM157.128 41.84C157.124 42.17 157.085 42.5274 157.466 42.6885C157.881 42.8652 158.14 42.5785 158.379 42.3075C159.05 41.5415 159.278 40.6224 159.227 39.6286C159.211 39.3262 159.176 39.012 158.807 38.9059C158.458 38.8038 158.234 38.9962 158.03 39.2398C157.411 39.9939 157.179 40.8856 157.128 41.84ZM139.852 39.9625C139.825 39.5187 139.895 39.0355 139.37 38.902C138.915 38.7881 138.668 39.1416 138.456 39.4754C137.989 40.2178 137.734 41.027 137.715 41.9029C137.707 42.2171 137.75 42.5431 138.068 42.6846C138.429 42.8456 138.715 42.6138 138.938 42.3625C139.55 41.6712 139.813 40.8384 139.852 39.9625ZM148.233 39.6208C148.1 39.2319 147.72 39.2437 147.378 39.4676C146.516 40.0332 145.998 40.8738 145.704 41.8479C145.594 42.2132 145.794 42.3664 146.163 42.2564C146.794 42.0679 148.19 40.3749 148.233 39.6208ZM140.158 41.8479C140.139 41.8126 140.119 41.7772 140.099 41.7419C140.08 41.7615 140.044 41.7811 140.048 41.7968C140.056 41.8361 140.084 41.8715 140.099 41.9068C140.119 41.8872 140.135 41.8715 140.158 41.8479Z" fill="white"/>
<path d="M37.9917 34.5221C37.9917 32.4129 38.9094 30.8417 40.4272 30.2446C41.9921 29.628 44.0001 30.0836 45.259 31.5448C47.0867 33.6698 47.9181 36.1365 47.1847 38.945C46.4356 41.8084 43.4902 42.8532 41.1136 41.0857C38.8977 39.436 38.0505 37.1028 37.9917 34.5221Z" fill="white"/>
<path d="M207.47 40.1432C207.941 39.6758 208.258 39.067 208.831 38.6938C209.066 38.5407 209.298 38.3835 209.596 38.5564C209.925 38.7488 209.921 39.0552 209.847 39.3616C209.588 40.3986 209.309 41.4355 209.015 42.5707C209.957 42.3704 210.204 41.5102 211.008 40.9563C210.529 42.0208 210.023 42.7514 209.207 43.2109C208.56 43.5762 208.145 43.3052 208.262 42.5746C208.388 41.7851 208.647 41.0192 208.831 40.2375C208.89 39.9901 209.137 39.6719 208.788 39.503C208.474 39.3498 208.309 39.6876 208.129 39.8801C207.301 40.7364 206.76 41.7537 206.45 42.9006C206.38 43.1638 206.364 43.5212 205.972 43.4388C205.56 43.3523 205.729 42.9949 205.784 42.7514C205.96 41.9697 206.164 41.192 206.356 40.4143C206.395 40.2532 206.462 40.049 206.301 39.9547C206.086 39.829 205.96 40.0215 205.846 40.1904C205.344 40.9563 204.791 41.6869 204.129 42.3232C203.929 42.5157 203.729 42.7082 203.501 42.8653C202.25 43.7176 201.489 43.533 200.787 42.1779C200.43 42.5432 200.097 42.9046 199.74 43.2463C199.45 43.5212 199.108 43.5684 198.752 43.3681C198.387 43.1677 198.403 42.8339 198.45 42.4961C198.508 42.0876 198.583 41.6791 198.665 41.192C198.183 41.3373 198.081 41.738 197.865 42.0129C197.081 43.0224 195.877 43.5409 194.9 43.2816C194.477 43.1677 194.198 42.9478 194.222 42.4804C194.237 42.2054 194.386 41.9815 194.669 41.9658C194.912 41.954 195.065 42.119 195.069 42.3939C195.069 42.6021 194.994 42.8653 195.324 42.9163C195.602 42.9596 195.798 42.8142 195.971 42.6178C196.218 42.3389 196.383 42.0129 196.406 41.6476C196.442 41.0977 196.551 40.4103 196.01 40.1275C195.418 39.8172 195.1 40.481 194.763 40.8463C194.367 41.2706 194.034 41.7537 193.669 42.2054C192.99 43.0499 192.104 43.4034 191.029 43.317C190.637 43.2856 190.335 43.1127 190.202 42.7278C190.084 42.3861 190.225 42.0876 190.539 41.9854C190.876 41.8794 191.018 42.1072 191.037 42.4489C191.084 43.2463 191.543 42.9478 191.861 42.6964C192.457 42.229 192.582 40.9681 192.163 40.3121C191.876 39.8644 191.586 39.9861 191.284 40.2768C190.723 40.8149 190.19 41.3805 189.774 42.0404C189.523 42.4411 189.217 42.8024 188.825 43.0735C188.511 43.2895 188.17 43.4191 187.817 43.207C187.46 42.991 187.421 42.6453 187.515 42.2565C187.574 42.0169 187.586 41.7694 187.645 41.3609C186.954 41.9304 186.531 42.5785 185.884 42.9753C185.044 43.4859 184.762 43.4073 184.366 42.5078C183.668 42.9163 182.946 43.2502 182.111 43.2424C181.64 43.2384 181.472 43.5252 181.358 43.9572C180.828 45.988 180.656 48.0501 180.691 50.1358C180.695 50.4344 180.828 50.9686 180.499 50.9882C180.028 51.0196 179.871 50.5051 179.864 50.0769C179.852 49.3895 179.832 48.7022 179.962 48.0148C180.464 45.3242 180.711 42.5825 181.452 39.9351C181.519 39.6955 181.57 39.4441 181.683 39.228C182.15 38.3678 183.35 37.8886 184.087 38.25C184.801 38.5956 185.005 39.5973 184.621 40.6107C184.393 41.2077 183.864 41.6084 183.589 42.2761C184.354 42.229 184.617 41.7458 184.86 41.2156C185.393 40.0293 186.292 39.1888 187.437 38.6114C187.7 38.4778 188.021 38.4307 188.323 38.411C189.096 38.3639 189.284 38.6074 189.053 39.338C188.778 40.21 188.394 41.0467 188.292 41.9658C188.272 42.1543 188.115 42.4332 188.409 42.5432C188.625 42.6257 188.762 42.4175 188.896 42.2879C190.068 41.1724 191.006 39.8722 191.869 38.5053C192.167 38.034 192.469 37.5194 193.363 37.5705C192.406 38.5682 192.555 39.5344 193.049 40.5596C193.23 40.9288 193.194 41.4002 193.269 41.9304C194.292 40.8935 195.081 39.8015 195.791 38.6506C196.038 38.2461 196.304 37.8572 196.728 37.6137C196.873 37.5312 197.042 37.4408 197.179 37.6019C197.297 37.7394 197.155 37.8533 197.077 37.9554C196.528 38.6781 196.544 39.4166 196.94 40.21C197.195 40.7206 197.34 41.2784 197.148 41.8558C197.602 41.9854 197.708 41.6241 197.869 41.3962C198.426 40.6028 198.956 39.7897 199.509 38.9924C199.638 38.8078 199.716 38.4385 200.034 38.5956C200.36 38.7567 200.116 39.0474 200.026 39.2477C199.603 40.1668 199.434 41.1488 199.265 42.1308C199.234 42.3154 199.148 42.5589 199.312 42.6846C199.524 42.8496 199.724 42.6453 199.909 42.5353C200.513 42.1779 200.869 41.6476 201.062 40.976C201.383 39.8369 202.042 38.9334 203.07 38.3285C203.862 37.8611 204.505 38.2068 204.564 39.1259C204.623 40.0293 204.325 40.8621 203.925 41.6791C204.313 41.8244 204.438 41.5337 204.591 41.3255C205.035 40.7206 205.462 40.1079 205.897 39.4991C206.172 39.1141 206.45 38.576 206.972 38.7449C207.537 38.9295 207.243 39.5501 207.305 39.9822C207.297 40.0883 207.25 40.2572 207.29 40.2807C207.423 40.3593 207.415 40.1865 207.478 40.1236L207.47 40.1432ZM183.35 42.2957C183.283 42.3664 183.221 42.4371 183.154 42.5078C183.283 42.5982 183.385 42.5668 183.472 42.445C183.562 42.4096 183.703 42.3861 183.605 42.2486C183.515 42.1229 183.429 42.2486 183.35 42.2957ZM203.752 39.9154C203.693 39.6012 203.874 39.0866 203.344 38.9177C202.807 38.7449 202.556 39.1691 202.313 39.5501C201.866 40.2493 201.681 41.0192 201.654 41.8362C201.642 42.1661 201.607 42.5314 202.007 42.6885C202.387 42.8378 202.638 42.606 202.866 42.3468C203.454 41.6712 203.74 40.8817 203.756 39.9154H203.752ZM183.903 40.0215C183.915 39.4519 183.915 39.0474 183.425 38.9177C182.942 38.792 182.644 39.0434 182.436 39.4559C182.021 40.2807 181.844 41.1684 181.707 42.0718C181.683 42.229 181.558 42.4057 181.726 42.5275C181.907 42.6571 182.095 42.5589 182.268 42.4646C183.299 41.8951 183.742 40.9563 183.907 40.0175L183.903 40.0215ZM185.656 42.2997C185.727 42.2682 185.837 42.2368 185.923 42.1779C186.754 41.5966 187.409 40.866 187.809 39.9233C187.884 39.7465 187.904 39.6012 187.766 39.4716C187.586 39.2987 187.366 39.3184 187.147 39.3891C186.503 39.6012 185.311 41.2509 185.295 41.9304C185.292 42.1661 185.37 42.2997 185.652 42.2997H185.656Z" fill="white"/>
<path d="M33.0423 10.2007C33.0344 8.01283 34.2267 7.17619 36.121 7.74574C38.9134 8.59024 40.4234 10.5267 40.9018 13.3312C41.1764 14.9495 39.9292 15.9826 38.3134 15.6526C35.6308 15.1066 33.9522 13.5316 33.1795 10.9391C33.0854 10.6249 33.058 10.291 33.0423 10.2007Z" fill="white"/>
<path d="M209.223 29.1332C209.223 27.6955 209.239 26.254 209.216 24.8164C209.208 24.3372 209.329 24.074 209.859 24.1133C210.278 24.1447 210.604 24.0858 210.623 24.7496C210.702 27.6013 210.62 30.4529 210.588 33.3046C210.588 33.6188 210.565 33.8663 210.145 33.7877C209.698 33.7052 209.09 34.1844 208.878 33.3164C208.482 31.6784 208.012 30.0562 207.572 28.4301C207.502 28.1708 207.486 27.8919 207.157 27.5777C207.157 29.5142 207.133 31.321 207.172 33.1318C207.184 33.7249 206.941 33.8349 206.439 33.8152C205.89 33.7917 205.749 33.4853 205.749 32.9982C205.756 30.2565 205.756 27.5109 205.749 24.7692C205.749 24.3215 205.89 24.1329 206.364 24.1094C207.639 24.0504 207.639 24.0308 207.968 25.2681C208.317 26.5643 208.663 27.8605 209.008 29.1567C209.078 29.1489 209.149 29.1449 209.216 29.1371L209.223 29.1332Z" fill="white"/>
<path d="M82.9764 28.9998C82.9764 29.915 82.9921 30.8302 82.9764 31.7414C82.945 33.1476 82.039 33.9568 80.6036 33.89C79.2858 33.8311 78.4034 32.8688 78.4112 31.5843C78.423 29.8678 78.3524 28.1513 78.3759 26.4388C78.4034 24.4787 80.3879 23.4182 82.0547 24.4316C82.6783 24.8126 82.9724 25.3743 82.9803 26.0892C82.992 27.0594 82.9803 28.0296 82.9803 28.9998H82.9764ZM81.4782 29.0194C81.4782 28.1356 81.4703 27.2479 81.4782 26.3641C81.486 25.8574 81.3527 25.4646 80.7722 25.4489C80.1683 25.4332 79.9526 25.8221 79.9526 26.3641C79.9526 28.1356 79.9525 29.9032 79.9565 31.6747C79.9565 32.2089 80.2114 32.4956 80.7722 32.4877C81.3174 32.476 81.4821 32.1617 81.4782 31.6747C81.4703 30.7909 81.4782 29.9032 81.4782 29.0194Z" fill="white"/>
<path d="M183.786 28.921C183.786 27.9783 183.731 27.0356 183.801 26.0969C183.884 25.0167 184.586 24.2586 185.5 24.1015C186.688 23.8972 187.582 24.2586 188.076 25.1424C188.355 25.6412 188.406 26.2225 188.406 26.7489C188.41 28.5164 188.559 30.2919 188.292 32.0555C188.139 33.065 187.402 33.7916 186.374 33.882C185.131 33.9959 184.221 33.4578 183.919 32.3815C183.601 31.2424 183.801 30.068 183.786 28.9092V28.921ZM186.857 28.9996C186.857 28.1433 186.857 27.287 186.857 26.4268C186.857 25.9044 186.707 25.4723 186.1 25.4409C185.484 25.4095 185.28 25.8219 185.276 26.3522C185.264 28.0922 185.264 29.8362 185.276 31.5763C185.276 32.0987 185.484 32.5386 186.072 32.5347C186.656 32.5308 186.853 32.1026 186.853 31.5684C186.853 30.7121 186.853 29.8559 186.853 28.9957L186.857 28.9996Z" fill="white"/>
<path d="M121.545 28.2022C121.545 27.067 121.549 25.9318 121.545 24.7967C121.545 24.4117 121.521 24.0661 122.082 24.1132C122.541 24.1525 123.055 24.015 123.051 24.7692C123.035 26.9845 123.051 29.1999 123.031 31.4152C123.031 31.8826 123.015 32.3147 123.553 32.5072C124.141 32.7153 124.561 32.3186 124.564 31.4977C124.576 29.3373 124.596 27.177 124.553 25.0166C124.537 24.29 124.835 24.0896 125.478 24.1171C125.863 24.1328 126.02 24.2978 126.016 24.6788C126.008 27.0591 126.063 29.4434 125.98 31.8198C125.933 33.2652 124.988 33.9723 123.521 33.8898C122.286 33.8191 121.529 32.9667 121.517 31.6077C121.509 30.4725 121.517 29.3373 121.517 28.2022H121.545Z" fill="white"/>
<path d="M59.0408 24.0899C60.3036 24.0938 61.1547 24.8676 61.2371 26.101C61.2606 26.4427 61.2724 26.8473 60.7978 26.8237C60.4135 26.808 59.8252 27.0044 59.8016 26.2817C59.782 25.7553 59.5663 25.4057 59.0094 25.4411C58.3819 25.4843 58.3035 25.9635 58.3074 26.4702C58.3113 26.969 58.5074 27.3893 58.8525 27.735C59.2604 28.1474 59.6879 28.5481 60.0997 28.9566C60.9311 29.7814 61.3782 30.7516 61.1978 31.9496C60.9861 33.3558 60.0173 34.0746 58.6094 33.8625C57.3387 33.6701 56.6641 32.6842 56.7817 31.3369C56.8249 30.8341 57.072 30.8302 57.4289 30.842C57.7818 30.8577 58.1819 30.7673 58.1505 31.3565C58.1387 31.5961 58.1976 31.8554 58.2878 32.0793C58.4368 32.4485 58.7741 32.4956 59.1231 32.4603C59.484 32.4249 59.6487 32.201 59.6918 31.8554C59.7899 31.1051 59.5702 30.457 58.978 30.0092C58.4446 29.6007 58.0407 29.0783 57.5975 28.5952C56.8759 27.8096 56.6837 26.8355 56.8523 25.8025C57.0327 24.6791 57.8132 24.082 59.0408 24.086V24.0899Z" fill="white"/>
<path d="M146.198 29.6713C146.198 30.8065 146.198 31.9416 146.198 33.0768C146.198 33.4657 146.268 33.8899 145.621 33.7996C145.135 33.7328 144.617 33.9292 144.649 33.0454C144.723 30.8575 144.649 28.6658 144.684 26.4779C144.696 25.8141 144.527 25.5038 143.825 25.6099C143.08 25.7238 142.962 25.3153 142.994 24.6789C143.013 24.2312 143.186 24.1094 143.594 24.1133C144.754 24.1251 145.919 24.1565 147.08 24.1015C147.868 24.0623 147.719 24.6318 147.774 25.0442C147.845 25.547 147.504 25.657 147.092 25.5863C146.253 25.4449 146.131 25.8848 146.166 26.5918C146.217 27.6131 146.178 28.6422 146.178 29.6674C146.182 29.6674 146.19 29.6674 146.194 29.6674L146.198 29.6713Z" fill="white"/>
<path d="M100.417 28.9997C100.417 27.5857 100.444 26.1716 100.405 24.7576C100.39 24.192 100.625 24.1055 101.096 24.1566C101.507 24.1998 101.982 24.0073 101.966 24.7654C101.923 26.9022 101.947 29.0351 101.954 31.1719C101.954 32.3974 101.978 32.4131 103.213 32.4209C104.343 32.4249 104.519 32.5741 104.445 33.3518C104.413 33.6739 104.28 33.7761 103.978 33.78C102.955 33.7918 101.931 33.8193 100.907 33.835C100.437 33.8428 100.413 33.5286 100.413 33.1594C100.425 31.7728 100.417 30.3863 100.417 28.9997Z" fill="white"/>
<path d="M164.803 28.9251C164.803 27.5975 164.803 26.2698 164.803 24.9383C164.803 24.5258 164.737 24.0781 165.403 24.1095C165.929 24.133 166.372 24.1055 166.368 24.8597C166.357 27.6524 166.384 30.4491 166.4 33.2419C166.4 33.725 166.129 33.89 165.709 33.8311C165.298 33.7761 164.788 33.8585 164.8 33.1594C164.823 31.7493 164.807 30.3352 164.807 28.9251H164.803Z" fill="white"/>
<path d="M176.483 39.1062C175.942 39.9428 175.33 40.7245 174.628 41.4354C174.42 41.6475 174.102 41.8518 174.232 42.1935C174.353 42.5156 174.706 42.5195 175.016 42.547C175.271 42.5666 175.667 42.4567 175.624 42.8809C175.589 43.2422 175.212 43.2855 174.91 43.2815C174.73 43.2776 174.495 43.2265 174.377 43.1048C173.761 42.4802 173.236 42.7316 172.628 43.1558C171.643 43.8393 170.918 43.9021 170.647 43.3601C170.227 42.5077 170.926 42.0167 171.443 41.5729C171.918 41.1683 172.024 40.8384 171.808 40.2374C171.349 38.9647 172.42 37.7942 173.777 38.0103C174.561 38.136 174.879 38.7841 174.487 39.4793C174.236 39.9232 173.855 40.261 173.451 40.5398C172.989 40.858 173.208 41.1094 173.428 41.4197C173.702 41.8046 173.969 41.7221 174.232 41.4315C174.789 40.8148 175.326 40.1863 175.891 39.5814C176.055 39.4047 176.087 39.0237 176.475 39.1258L176.483 39.1101V39.1062ZM173.259 38.5641C172.757 38.6269 172.365 38.8823 172.4 39.5068C172.42 39.8603 172.483 40.2649 172.898 40.367C173.24 40.4534 173.938 39.5736 173.953 39.1179C173.969 38.6662 173.702 38.5484 173.259 38.568V38.5641ZM172.432 41.5375C172.035 41.5297 171.341 42.2603 171.345 42.6216C171.349 42.9123 171.549 43.0105 171.788 42.9791C172.294 42.9084 172.808 42.7238 172.957 42.2131C173.036 41.9421 172.71 41.6475 172.432 41.5375Z" fill="white"/>
<path d="M200.199 37.4798C199.952 37.4955 199.787 37.3816 199.854 37.2009C200.018 36.7649 200.411 36.545 200.834 36.4232C200.991 36.3761 201.187 36.5292 201.144 36.7021C201.015 37.1931 200.548 37.2952 200.203 37.4798H200.199Z" fill="white"/>
<path d="M155.336 37.3583C155.281 37.0008 155.524 36.8437 155.752 36.6984C155.971 36.557 156.175 36.2899 156.485 36.4745C156.56 36.5177 156.638 36.663 156.622 36.7416C156.56 37.044 156.301 37.1658 156.046 37.2836C155.814 37.3936 155.583 37.4525 155.332 37.3583H155.336Z" fill="white"/>
<path d="M124.576 37.4486C124.353 37.4564 124.141 37.4054 124.208 37.205C124.357 36.769 124.745 36.553 125.157 36.4195C125.321 36.3645 125.533 36.553 125.494 36.6866C125.357 37.1422 124.949 37.315 124.576 37.4525V37.4486Z" fill="white"/>
<path d="M176.475 39.1218L176.463 39.0747L176.479 39.1022L176.475 39.1218Z" fill="white"/>
<path d="M140.158 41.8478C140.135 41.8713 140.119 41.887 140.099 41.9067C140.08 41.8713 140.056 41.836 140.048 41.7967C140.048 41.7849 140.084 41.7613 140.099 41.7417C140.119 41.7771 140.139 41.8124 140.158 41.8478Z" fill="white"/>
<path d="M183.472 42.4447C183.386 42.5664 183.284 42.5979 183.154 42.5075C183.221 42.4368 183.284 42.3661 183.35 42.2954C183.39 42.3465 183.433 42.3936 183.472 42.4447Z" fill="white"/>
<path d="M183.35 42.2956C183.433 42.2445 183.519 42.1227 183.605 42.2484C183.703 42.3859 183.562 42.4095 183.472 42.4448C183.433 42.3938 183.39 42.3466 183.35 42.2956Z" fill="white"/>
</g>
<defs>
<clipPath id="clip0_264_324">
<rect width="211" height="51" fill="white"/>
</clipPath>
</defs>
</svg>
