<svg viewBox="0 0 177 33" fill="none" xmlns="http://www.w3.org/2000/svg">
<g clip-path="url(#clip0_222_569)">
<path d="M146.929 32.2516C146.826 32.0246 146.984 31.8496 147.047 31.6672C150.616 21.6462 154.188 11.629 157.761 1.61171C157.982 0.990051 157.989 0.986328 158.592 0.986328C164.572 0.986328 170.549 0.986328 176.529 0.986328C176.676 0.986328 176.827 1.00122 176.963 1.00866C177.066 1.28041 176.912 1.48142 176.838 1.6936C176.011 4.08717 175.177 6.47702 174.339 8.86687C174.114 9.50342 174.111 9.50714 173.431 9.50714C171.251 9.50714 169.071 9.49597 166.895 9.48853C166.616 9.48853 166.355 9.45502 166.226 9.81983C165.752 11.1674 165.26 12.5075 164.752 13.9071C165.407 14.097 166.035 13.9816 166.649 14.0076C167.281 14.0337 167.917 14.0114 168.549 14.0151C169.182 14.0151 169.818 14.0188 170.45 14.0225C171.082 14.0225 171.711 14.0225 172.372 14.0225C172.321 14.5139 172.104 14.8936 171.953 15.2919C171.523 16.4422 171.067 17.5813 170.623 18.7241C170.466 19.1236 170.183 19.3246 169.773 19.3271C167.671 19.3271 165.568 19.3234 163.466 19.3234C162.779 19.3234 162.775 19.3234 162.569 19.9525C162.22 21.0171 161.874 22.0855 161.496 23.2469H168.921C169.005 23.4889 168.932 23.6303 168.88 23.7718C167.914 26.4408 166.936 29.1061 165.984 31.7789C165.855 32.1437 165.693 32.2926 165.289 32.2926C159.261 32.2963 153.229 32.3186 147.201 32.3373C147.105 32.3373 146.999 32.3559 146.929 32.2703V32.2516Z" fill="white"/>
<path d="M91.1687 9.89465H84.4495C84.3833 9.72341 84.4421 9.60802 84.4862 9.4889C85.4713 6.8273 86.4601 4.16944 87.4268 1.5004C87.5628 1.12815 87.7319 0.994141 88.1288 0.994141C96.4911 1.00903 104.85 1.00903 113.212 1.01648C113.263 1.01648 113.311 1.03137 113.366 1.03881C113.517 1.21005 113.388 1.36639 113.333 1.52646C112.403 4.15455 111.462 6.77519 110.558 9.41445C110.407 9.84998 110.183 9.92443 109.786 9.91698C107.86 9.8872 105.934 9.88348 104.012 9.87604C103.085 9.87231 103.276 9.80903 102.986 10.5684C100.288 17.5816 97.5975 24.6023 94.9068 31.6192C94.8701 31.716 94.8186 31.8053 94.7966 31.9058C94.7194 32.3078 94.4841 32.4121 94.0945 32.4046C92.6242 32.3823 91.1576 32.3972 89.6873 32.3972C87.5848 32.3972 85.4823 32.3972 83.2622 32.3972C84.5561 28.5965 85.9014 24.8889 87.2026 21.1664C88.5111 17.429 89.8344 13.7028 91.176 9.90209L91.1687 9.89465Z" fill="white"/>
<path d="M125.698 32.3412C128.407 24.818 131.079 17.3917 133.785 9.88336H127.231C127.121 9.60045 127.26 9.42177 127.327 9.23937C128.271 6.70062 129.223 4.16187 130.175 1.62685C130.407 1.00891 130.41 1.00519 131.017 1.00146C139.096 1.00146 147.175 1.00146 155.258 1.00146C155.405 1.00146 155.552 1.01635 155.688 1.0238C155.78 1.23971 155.692 1.4035 155.637 1.57101C154.751 4.15815 153.854 6.74157 152.983 9.33615C152.843 9.74935 152.652 9.87592 152.222 9.87219C150.197 9.84614 148.168 9.8573 146.143 9.86102C145.183 9.86102 145.389 9.77541 145.084 10.6092C142.504 17.6113 139.934 24.6208 137.361 31.6265C137.185 32.108 136.853 32.3487 136.365 32.3487C132.972 32.3524 129.576 32.3598 126.183 32.3636C126.058 32.3636 125.933 32.3524 125.702 32.3412H125.698Z" fill="white"/>
<path d="M104.993 32.3335C104.986 31.965 105.162 31.6709 105.272 31.3657C108.863 21.5494 112.455 11.7369 116.06 1.9281C116.457 0.848573 116.182 1.0347 117.321 1.0347C120.589 1.0347 123.853 1.04959 127.121 1.05703C127.293 1.05703 127.466 1.05703 127.61 1.05703C127.786 1.29155 127.635 1.44417 127.58 1.59307C123.864 11.6624 120.144 21.7281 116.428 31.7975C116.296 32.1623 116.16 32.3819 115.697 32.3782C112.227 32.3521 108.757 32.3633 105.291 32.3633C105.195 32.3633 105.099 32.3447 104.997 32.3335H104.993Z" fill="white"/>
<path d="M85.3646 2.47556C82.5968 1.07218 79.6672 0.405848 76.5723 0.472853C73.6905 0.536136 70.9595 1.20619 68.4196 2.59096C61.8253 6.17945 57.4476 14.1568 58.6936 22.149C59.3847 26.5862 61.6967 29.8322 65.7363 31.6861C69.2062 33.2793 72.7679 33.0969 76.326 31.8796C76.712 31.7493 76.7965 31.4515 76.9031 31.1426C77.833 28.5443 78.7593 25.9422 79.6819 23.3402C79.8326 22.9158 80.0385 22.5064 80.1157 21.9554C78.9174 22.3723 77.7448 22.6292 76.576 22.9158C73.7567 23.6045 70.6985 21.7135 70.5478 18.2366C70.3824 14.4955 73.2862 10.5608 78.3182 11.0597C79.7077 11.1974 80.9684 11.685 82.1888 12.5114C82.277 12.3104 82.3431 12.1727 82.3983 12.0275C83.512 9.14257 84.6221 6.25763 85.7321 3.36896C85.96 2.78081 85.9564 2.77708 85.3609 2.47556H85.3646ZM80.814 5.68808C80.5126 6.27624 80.5126 6.27251 79.8988 6.14223C76.4841 5.40889 73.2899 5.96355 70.4081 7.96253C67.2029 10.1886 65.4202 13.3304 64.9093 17.2204C64.5343 20.083 65.3246 22.5585 67.4124 24.5426C69.3054 26.3368 71.588 26.9622 74.139 26.6458C74.2382 26.6346 74.3338 26.616 74.433 26.6048C74.4551 26.6048 74.4771 26.6234 74.5176 26.6421C74.5176 26.9845 74.297 27.2526 74.1941 27.5615C74.0912 27.8742 73.8008 27.8519 73.5582 27.8779C72.4114 28.0008 71.2793 27.8854 70.1766 27.569C66.2656 26.4559 63.6007 22.8563 63.5162 18.7429C63.3912 12.4481 68.2174 5.89282 75.3042 4.93986C77.1898 4.68673 79.035 4.80957 80.8508 5.31955C80.939 5.47218 80.8655 5.57641 80.8067 5.68808H80.814Z" fill="white"/>
<path d="M57.6277 12.2247C57.3373 9.69335 56.672 7.28861 55.0915 5.24496C52.2244 1.54106 48.3686 -0.0558898 43.8034 -5.22221e-05C40.7341 0.0408953 37.9516 1.10925 35.3933 2.76205C30.898 5.66932 28.2956 9.89436 27.2259 15.1245C26.6525 17.9313 26.6415 20.738 27.5494 23.4815C29.0417 28.0081 31.8977 31.2169 36.5402 32.4714C40.4033 33.5137 44.1893 32.9925 47.6261 30.9898C54.088 27.2263 57.3006 21.3895 57.7269 13.9072C57.6939 13.3451 57.6902 12.7793 57.624 12.2172L57.6277 12.2247ZM46.3947 25.1157C44.5459 26.6084 42.3956 27.2524 40.3555 27.3008C36.3931 27.3008 33.618 24.9891 32.6917 21.1959C32.133 18.8991 32.427 16.6544 33.1585 14.4656C34.6729 9.91298 37.7458 7.01315 42.3551 5.85172C44.5679 5.29335 46.6814 5.70282 48.6443 6.84936C50.6806 8.04056 51.7576 9.92042 51.9928 12.2321C52.5405 17.5813 50.4821 21.8175 46.3947 25.1194V25.1157Z" fill="white"/>
<path d="M26.5276 21.3673H17.0075C19.4629 14.5737 21.8852 7.87695 24.3332 1.10199C23.973 1.10199 23.701 1.10199 23.4253 1.10199C19.7018 1.09827 15.9783 1.09454 12.2548 1.09082C11.5086 1.09082 11.5086 1.0871 11.2477 1.79437C8.05348 10.479 4.85561 19.1636 1.66142 27.8445C1.11374 29.326 0.569735 30.8113 0 32.3524C0.187461 32.371 0.264651 32.3822 0.338165 32.3822C7.58298 32.3896 14.8241 32.3859 22.0689 32.412C22.5211 32.412 22.6718 32.237 22.8114 31.8573C24.0207 28.5703 25.2484 25.2945 26.4688 22.0113C26.5349 21.8326 26.6967 21.6614 26.5276 21.371V21.3673ZM19.4702 27.2749C15.721 27.2749 11.9718 27.2749 8.22256 27.2712C7.96893 27.2712 7.71899 27.2712 7.48006 27.2712C7.34774 27.0292 7.47271 26.8468 7.54255 26.6607C10.1045 19.6475 12.6738 12.638 15.2248 5.62483C15.3681 5.23025 15.5409 5.01062 15.9783 5.08879C16.2466 5.13718 16.5297 5.03667 16.8421 5.1893C14.3316 12.1318 11.8248 19.0742 9.28851 26.0912H20.7935C20.8119 26.1693 20.8302 26.1954 20.8229 26.2177C20.6391 26.9225 20.1882 27.2749 19.4702 27.2749Z" fill="white"/>
<path d="M48.2915 8.29374C46.8984 7.3445 45.3509 6.94619 43.6821 7.06903C42.1089 7.18443 40.6717 7.75769 39.3485 8.58409C35.6139 10.9218 34.0665 14.4991 33.7871 18.6274C33.8092 20.1052 34.0848 21.3709 34.6766 22.5584C35.9374 25.086 38.1869 26.0985 40.8224 25.8491C42.9764 25.6481 44.8179 24.7695 46.3874 23.2992C49.4824 20.3882 51.0482 16.8332 50.6255 12.5113C50.4564 10.7915 49.7691 9.29881 48.2915 8.29374ZM46.1228 14.2088C46.086 15.709 45.6192 17.3208 44.8436 18.8433C44.3254 19.8596 43.627 20.7306 42.7705 21.4714C41.0797 22.9381 38.8449 22.2531 38.2237 20.0717C37.8929 18.9103 37.9811 17.7303 38.198 16.5614C38.47 15.1134 39.0103 13.7658 39.8336 12.5411C40.2821 11.8785 40.8298 11.3127 41.473 10.8437C41.9509 10.4975 42.4802 10.2592 43.0719 10.181C44.4614 9.99864 45.4906 10.6538 45.9353 12.0088C46.1448 12.6528 46.1889 13.3117 46.1228 14.2051V14.2088Z" fill="white"/>
</g>
<defs>
<clipPath id="clip0_222_569">
<rect width="177" height="33" fill="white"/>
</clipPath>
</defs>
</svg>
