<svg viewBox="0 0 145 62" fill="none" xmlns="http://www.w3.org/2000/svg">
<g clip-path="url(#clip0_222_596)">
<path d="M2.12001 62.0002C1.6308 62.0002 1.27204 61.9743 1.047 61.9227C0.821963 61.871 0.639323 61.7806 0.49582 61.6546C0.336009 61.5158 0.221859 61.3317 0.150108 61.0992C0.0783562 60.8667 0.0424805 60.5632 0.0424805 60.1854V58.8388C0.0424805 58.4255 0.0783562 58.0993 0.150108 57.8539C0.221859 57.6117 0.336009 57.418 0.49582 57.2791C0.639323 57.1532 0.828486 57.0628 1.05679 57.0111C1.28835 56.9594 1.64058 56.9336 2.11349 56.9336H3.62027C4.39975 56.9336 4.92484 57.0337 5.1988 57.2339C5.47276 57.4341 5.60975 57.799 5.60975 58.3286C5.60975 58.3964 5.60975 58.4513 5.60975 58.4868C5.60975 58.5256 5.60975 58.5579 5.60648 58.5902H5.06182V58.5159C5.06182 58.1316 4.98029 57.8604 4.81722 57.7054C4.65415 57.5504 4.36388 57.4729 3.95294 57.4729H1.88193C1.59818 57.4729 1.37967 57.4987 1.22312 57.5568C1.06657 57.6117 0.942636 57.7054 0.854577 57.8345C0.79261 57.925 0.750211 58.0347 0.72412 58.1607C0.698028 58.2866 0.684983 58.4997 0.684983 58.7968V60.1079C0.684983 60.4049 0.698028 60.6181 0.72412 60.744C0.750211 60.8699 0.795871 60.9797 0.854577 61.0702C0.942636 61.1993 1.06657 61.2897 1.22312 61.3479C1.37967 61.4028 1.60144 61.4318 1.88193 61.4318H3.94641C4.39649 61.4318 4.70633 61.3576 4.8694 61.2058C5.03247 61.054 5.11727 60.7795 5.11727 60.3856V60.2499H5.66193C5.66193 60.279 5.66193 60.3242 5.66519 60.3791C5.66519 60.434 5.66519 60.4728 5.66519 60.4954C5.66519 60.8054 5.63584 61.054 5.57387 61.2381C5.51516 61.4221 5.41732 61.5739 5.2836 61.6902C5.15641 61.8064 4.97703 61.8871 4.74547 61.9323C4.5139 61.9776 4.1421 62.0034 3.62353 62.0034H2.12327L2.12001 62.0002Z" fill="white"/>
<path d="M11.5618 57.4793H9.39943C9.09286 57.4793 8.85477 57.5052 8.68844 57.5633C8.5221 57.6182 8.39165 57.7118 8.29707 57.841C8.22858 57.9346 8.17965 58.0444 8.15356 58.1704C8.12747 58.2995 8.11116 58.5094 8.11116 58.8065V60.1046C8.11116 60.4017 8.12421 60.6148 8.15356 60.7408C8.17965 60.8667 8.22858 60.9765 8.29707 61.0702C8.39165 61.1993 8.5221 61.2897 8.68844 61.3479C8.85477 61.4028 9.09286 61.4318 9.39943 61.4318H11.5618C11.8683 61.4318 12.1064 61.406 12.2728 61.3479C12.4391 61.293 12.5695 61.1993 12.6641 61.0702C12.7294 60.983 12.775 60.8764 12.8011 60.7537C12.8272 60.631 12.8435 60.4405 12.8435 60.1821V58.729C12.8435 58.4674 12.8305 58.2769 12.8011 58.1542C12.775 58.0315 12.7261 57.9282 12.6641 57.8378C12.5695 57.7086 12.4391 57.6182 12.2728 57.5601C12.1064 57.5052 11.8683 57.4761 11.5618 57.4761M9.6897 62.0002C9.17765 62.0002 8.79933 61.9743 8.55472 61.9227C8.31011 61.871 8.11116 61.7806 7.95788 61.6546C7.78502 61.5126 7.66109 61.3285 7.58607 61.096C7.51106 60.8635 7.47192 60.5632 7.47192 60.1854V58.8356C7.47192 58.4255 7.5078 58.0961 7.58607 57.8539C7.66109 57.6117 7.78176 57.418 7.95135 57.2791C8.10464 57.1532 8.30359 57.066 8.55472 57.0143C8.80259 56.9627 9.18091 56.9336 9.68317 56.9336H11.278C11.7803 56.9336 12.1586 56.9594 12.4065 57.0143C12.6576 57.066 12.8565 57.1564 13.0098 57.2791C13.1762 57.4147 13.2968 57.602 13.3719 57.841C13.4501 58.0799 13.4893 58.3932 13.4893 58.7775V60.1563C13.4893 60.5406 13.4501 60.8538 13.3719 61.0928C13.2936 61.3317 13.1729 61.519 13.0098 61.6546C12.8565 61.7806 12.6609 61.871 12.4163 61.9227C12.1716 61.9743 11.7933 62.0002 11.278 62.0002H9.6897Z" fill="white"/>
<path d="M15.3646 60.3273H15.9354C15.9354 60.3499 15.9321 60.3854 15.9289 60.4241C15.9256 60.5178 15.9223 60.5824 15.9223 60.6211C15.9223 60.9311 16.0202 61.1442 16.2191 61.2669C16.4148 61.3897 16.7833 61.4478 17.3247 61.4478H18.5739C19.2229 61.4478 19.6469 61.38 19.8426 61.2476C20.0383 61.1152 20.1394 60.8633 20.1394 60.4887C20.1394 60.1755 20.0709 59.9624 19.9339 59.8461C19.7969 59.7299 19.5132 59.6717 19.0892 59.6717H17.0704C16.4344 59.6717 15.9876 59.5684 15.7299 59.365C15.4723 59.1583 15.3418 58.8096 15.3418 58.309C15.3418 57.8085 15.4886 57.4436 15.7821 57.2369C16.0756 57.0303 16.6138 56.9302 17.3965 56.9302H18.4826C19.0761 56.9302 19.4903 56.9528 19.7284 57.0012C19.9665 57.0464 20.1524 57.1272 20.2861 57.2434C20.397 57.3403 20.4753 57.4662 20.5275 57.6277C20.5797 57.7859 20.6057 57.9861 20.6057 58.2251V58.3672H20.035V58.2929C20.035 57.9667 19.96 57.7504 19.81 57.6341C19.6599 57.5211 19.3403 57.463 18.8511 57.463H17.2204C16.7246 57.463 16.3887 57.5211 16.2159 57.6374C16.043 57.7568 15.9582 57.97 15.9582 58.2832C15.9582 58.5964 16.043 58.8192 16.2093 58.9419C16.3757 59.0614 16.7279 59.1196 17.2563 59.1196H18.975C19.3501 59.1196 19.6338 59.1357 19.8197 59.1648C20.0089 59.1938 20.1622 59.2455 20.2763 59.3165C20.4394 59.4166 20.5568 59.5555 20.6286 59.7363C20.6971 59.9139 20.7329 60.1755 20.7329 60.521C20.7329 61.07 20.5894 61.451 20.3057 61.6706C20.0187 61.8869 19.5034 61.9967 18.7598 61.9967H17.1388C16.4963 61.9967 16.0397 61.8966 15.7658 61.6964C15.4918 61.4962 15.3548 61.1636 15.3548 60.6986C15.3548 60.6373 15.3548 60.5307 15.3646 60.3822C15.3646 60.3563 15.3646 60.3402 15.3679 60.324" fill="white"/>
<path d="M25.1652 61.9385H24.5716V57.5468H22.207V56.9946H27.533V57.5468H25.1652V61.9385Z" fill="white"/>
<path d="M29.7737 61.9385H29.1833V56.9946H32.5981C33.358 56.9946 33.8602 57.0786 34.1081 57.2465C34.356 57.4144 34.4799 57.7212 34.4799 58.17V58.7642C34.4799 59.0678 34.4179 59.2938 34.2973 59.4359C34.1733 59.578 33.9548 59.6845 33.6417 59.7523C33.9026 59.7814 34.0983 59.8783 34.232 60.0397C34.3658 60.2012 34.431 60.4272 34.431 60.7146V61.9385H33.8374V60.8373C33.8374 60.5144 33.7689 60.2948 33.6352 60.1754C33.4982 60.0591 33.1819 60.001 32.6829 60.001H29.7802V61.9385H29.7737ZM32.7872 57.5339H29.7737V59.4294H32.7872C33.2145 59.4294 33.4982 59.3745 33.6385 59.2647C33.7787 59.1549 33.8472 58.9321 33.8472 58.5995V58.3638C33.8472 58.0312 33.7754 57.8084 33.6385 57.6986C33.4982 57.5888 33.2145 57.5307 32.7872 57.5307V57.5339Z" fill="white"/>
<path d="M38.4295 62C37.9599 62 37.6141 61.9742 37.3891 61.9225C37.1641 61.8709 36.9814 61.7804 36.8379 61.6545C36.6814 61.5189 36.5672 61.3348 36.4987 61.1088C36.427 60.8795 36.3911 60.5792 36.3911 60.2014V56.998H37.001V60.2014C37.001 60.4629 37.014 60.6535 37.0401 60.7729C37.0662 60.8892 37.1086 60.9925 37.1673 61.0765C37.2521 61.2024 37.3695 61.2928 37.5261 61.351C37.6794 61.4091 37.8979 61.4349 38.1719 61.4349H40.1352C40.4125 61.4349 40.631 61.4059 40.7843 61.351C40.9376 61.2928 41.0582 61.2024 41.143 61.0765C41.2017 60.9893 41.2441 60.8892 41.2702 60.7729C41.2963 60.6567 41.3061 60.4662 41.3061 60.2014V56.998H41.9192V60.1659C41.9192 60.5437 41.8834 60.8537 41.8116 61.0926C41.7399 61.3316 41.629 61.5189 41.4757 61.6577C41.3387 61.7837 41.1593 61.8741 40.9343 61.9258C40.7092 61.9774 40.3603 62.0033 39.8874 62.0033H38.4262L38.4295 62Z" fill="white"/>
<path d="M43.6609 61.9385V61.3863L48.0801 57.5339H43.824V56.9946H48.9509V57.5339L44.5284 61.3863H49.0129V61.9385H43.6609Z" fill="white"/>
<path d="M51.4719 56.9946H50.8816V61.9385H51.4719V56.9946Z" fill="white"/>
<path d="M57.5806 57.4793H55.4182C55.1117 57.4793 54.8736 57.5052 54.7072 57.5633C54.5409 57.6182 54.4104 57.7118 54.3159 57.841C54.2474 57.9346 54.1985 58.0444 54.1724 58.1704C54.1463 58.2995 54.13 58.5094 54.13 58.8065V60.1046C54.13 60.4017 54.143 60.6148 54.1724 60.7408C54.1985 60.8667 54.2474 60.9765 54.3159 61.0702C54.4104 61.1993 54.5409 61.2897 54.7072 61.3479C54.8736 61.4028 55.1117 61.4318 55.4182 61.4318H57.5806C57.8871 61.4318 58.1252 61.406 58.2916 61.3479C58.4579 61.293 58.5883 61.1993 58.6829 61.0702C58.7482 60.983 58.7938 60.8764 58.8199 60.7537C58.846 60.631 58.8623 60.4405 58.8623 60.1821V58.729C58.8623 58.4674 58.8493 58.2769 58.8199 58.1542C58.7938 58.0315 58.7449 57.9282 58.6829 57.8378C58.5883 57.7086 58.4579 57.6182 58.2916 57.5601C58.1252 57.5052 57.8871 57.4761 57.5806 57.4761M55.7085 62.0002C55.1965 62.0002 54.8181 61.9743 54.5735 61.9227C54.3289 61.871 54.13 61.7806 53.9767 61.6546C53.8038 61.5126 53.6799 61.3285 53.6049 61.096C53.5299 60.8635 53.4907 60.5632 53.4907 60.1854V58.8356C53.4907 58.4255 53.5266 58.0961 53.6049 57.8539C53.6799 57.6117 53.8006 57.418 53.9702 57.2791C54.1234 57.1532 54.3224 57.066 54.5735 57.0143C54.8214 56.9627 55.1997 56.9336 55.702 56.9336H57.2968C57.7991 56.9336 58.1774 56.9594 58.4253 57.0143C58.6764 57.066 58.8754 57.1564 59.0286 57.2791C59.195 57.4147 59.3156 57.602 59.3907 57.841C59.4689 58.0799 59.5081 58.3932 59.5081 58.7775V60.1563C59.5081 60.5406 59.4689 60.8538 59.3907 61.0928C59.3124 61.3317 59.195 61.519 59.0286 61.6546C58.8754 61.7806 58.6797 61.871 58.4351 61.9227C58.1904 61.9743 57.8121 62.0002 57.2968 62.0002H55.7085Z" fill="white"/>
<path d="M62.0682 61.9385H61.4746V56.9946H62.4074L66.7288 61.3734V56.9946H67.3224V61.9385H66.4548L62.0682 57.4919V61.9385Z" fill="white"/>
<path d="M69.9968 56.9946H69.4065V61.9385H69.9968V56.9946Z" fill="white"/>
<path d="M73.4409 61.9385H72.0222V56.9946H74.178L75.8805 60.0817L77.6156 56.9946H79.742V61.9385H78.3266V58.4155L76.3534 61.9385H75.4011L73.4409 58.4155V61.9385Z" fill="white"/>
<path d="M86.8649 58.1991H83.1013V58.9483H86.6464V59.9881H83.1013V60.7405H86.9237V61.9385H81.6401V56.9946H86.8649V58.1991Z" fill="white"/>
<path d="M93.2607 58.7771V58.7287C93.2607 58.5382 93.1987 58.3961 93.0748 58.3057C92.9508 58.2153 92.7584 58.1733 92.491 58.1733H91.3201C90.8179 58.1733 90.4982 58.2346 90.3547 58.3606C90.2112 58.4865 90.1395 58.7449 90.1395 59.142V59.8299C90.1395 60.1883 90.2177 60.4305 90.3776 60.5629C90.5341 60.6953 90.8472 60.7631 91.3168 60.7631H92.1648C92.6279 60.7631 92.9345 60.7146 93.078 60.6178C93.2215 60.5209 93.2965 60.3433 93.2965 60.0817V60.0301H94.7772C94.7772 60.0301 94.7772 60.0494 94.7805 60.0656C94.787 60.2109 94.7903 60.3175 94.7903 60.3885C94.7903 60.705 94.7511 60.9665 94.6729 61.1732C94.5979 61.3799 94.4772 61.5445 94.3108 61.6705C94.1543 61.79 93.9456 61.8739 93.6879 61.9256C93.427 61.9773 93.0454 62.0031 92.5431 62.0031H90.9124C90.4134 62.0031 90.0482 61.9773 89.8101 61.9191C89.5752 61.8642 89.373 61.7706 89.2067 61.635C89.0143 61.4767 88.874 61.2862 88.786 61.0537C88.6979 60.8244 88.6555 60.5338 88.6555 60.1851V58.8385C88.6555 58.1313 88.8186 57.6372 89.1447 57.3563C89.4709 57.0754 90.0612 56.9365 90.9124 56.9365H92.5431C93.0682 56.9365 93.4531 56.9591 93.701 57.0076C93.9488 57.056 94.1445 57.14 94.288 57.253C94.4413 57.3725 94.5522 57.5339 94.6239 57.7374C94.6957 57.9376 94.7316 58.1927 94.7316 58.4994C94.7316 58.5705 94.7316 58.6286 94.7316 58.6674C94.7316 58.7061 94.7283 58.7416 94.7218 58.7771H93.2574H93.2607Z" fill="white"/>
<path d="M101.091 58.7771V58.7287C101.091 58.5382 101.029 58.3961 100.905 58.3057C100.781 58.2153 100.589 58.1733 100.322 58.1733H99.1507C98.6484 58.1733 98.3288 58.2346 98.1853 58.3606C98.0418 58.4865 97.97 58.7449 97.97 59.142V59.8299C97.97 60.1883 98.0483 60.4305 98.2081 60.5629C98.3647 60.6953 98.6778 60.7631 99.1474 60.7631H99.9954C100.459 60.7631 100.765 60.7146 100.909 60.6178C101.052 60.5209 101.127 60.3433 101.127 60.0817V60.0301H102.608C102.608 60.0301 102.608 60.0494 102.611 60.0656C102.618 60.2109 102.621 60.3175 102.621 60.3885C102.621 60.705 102.582 60.9665 102.503 61.1732C102.428 61.3799 102.308 61.5445 102.141 61.6705C101.985 61.79 101.776 61.8739 101.518 61.9256C101.258 61.9773 100.876 62.0031 100.374 62.0031H98.743C98.244 62.0031 97.8787 61.9773 97.6406 61.9191C97.4058 61.8642 97.2036 61.7706 97.0373 61.635C96.8448 61.4767 96.7046 61.2862 96.6165 61.0537C96.5285 60.8244 96.4861 60.5338 96.4861 60.1851V58.8385C96.4861 58.1313 96.6492 57.6372 96.9753 57.3563C97.3014 57.0754 97.8918 56.9365 98.743 56.9365H100.374C100.899 56.9365 101.284 56.9591 101.532 57.0076C101.779 57.056 101.975 57.14 102.119 57.253C102.272 57.3725 102.383 57.5339 102.455 57.7374C102.526 57.9376 102.562 58.1927 102.562 58.4994C102.562 58.5705 102.562 58.6286 102.562 58.6674C102.562 58.7061 102.559 58.7416 102.552 58.7771H101.088H101.091Z" fill="white"/>
<path d="M105.351 61.9385H103.759L106.372 56.9946H108.234L110.797 61.9385H109.196L108.733 61.115H105.82L105.354 61.9385H105.351ZM106.372 59.9267H108.208L107.282 58.1797L106.372 59.9267Z" fill="white"/>
<path d="M118.677 61.9385H116.541L113.674 58.3444V61.9385H112.213V56.9946H114.375L117.226 60.621V56.9946H118.677V61.9385Z" fill="white"/>
<path d="M122.069 56.9946H120.608V61.9385H122.069V56.9946Z" fill="white"/>
<path d="M128.598 58.7771V58.7287C128.598 58.5382 128.536 58.3961 128.412 58.3057C128.288 58.2153 128.096 58.1733 127.829 58.1733H126.658C126.155 58.1733 125.836 58.2346 125.692 58.3606C125.549 58.4865 125.477 58.7449 125.477 59.142V59.8299C125.477 60.1883 125.555 60.4305 125.715 60.5629C125.872 60.6953 126.185 60.7631 126.654 60.7631H127.502C127.966 60.7631 128.272 60.7146 128.416 60.6178C128.559 60.5209 128.634 60.3433 128.634 60.0817V60.0301H130.115C130.115 60.0301 130.115 60.0494 130.118 60.0656C130.125 60.2109 130.128 60.3175 130.128 60.3885C130.128 60.705 130.089 60.9665 130.011 61.1732C129.932 61.3799 129.812 61.5445 129.648 61.6705C129.492 61.79 129.283 61.8739 129.026 61.9256C128.765 61.9773 128.383 62.0031 127.881 62.0031H126.25C125.751 62.0031 125.386 61.9773 125.148 61.9191C124.913 61.8642 124.711 61.7706 124.544 61.635C124.352 61.4767 124.212 61.2862 124.124 61.0537C124.036 60.8244 123.993 60.5338 123.993 60.1851V58.8385C123.993 58.1313 124.156 57.6372 124.482 57.3563C124.809 57.0754 125.399 56.9365 126.25 56.9365H127.881C128.406 56.9365 128.791 56.9591 129.039 57.0076C129.286 57.056 129.482 57.14 129.626 57.253C129.779 57.3725 129.89 57.5339 129.962 57.7374C130.033 57.9376 130.069 58.1927 130.069 58.4994C130.069 58.5705 130.069 58.6286 130.069 58.6674C130.069 58.7061 130.066 58.7416 130.059 58.7771H128.595H128.598Z" fill="white"/>
<path d="M133.324 61.9385H131.863V56.9946H133.324V58.8094H136.315V56.9946H137.783V61.9385H136.315V60.0074H133.324V61.9385Z" fill="white"/>
<path d="M144.902 58.1991H141.138V58.9483H144.684V59.9881H141.138V60.7405H144.961V61.9385H139.677V56.9946H144.902V58.1991Z" fill="white"/>
<path d="M20.2176 50.7236C20.2176 52.0282 19.7675 52.6805 18.8706 52.6805C18.2118 52.6805 17.4715 52.2736 16.6529 51.4631L3.53539 38.4173V52.4739H0V33.9707C0 33.496 0.130457 33.0859 0.38811 32.7404C0.649025 32.3949 1.01757 32.2205 1.497 32.2205C2.15581 32.2205 2.83418 32.566 3.53213 33.2571L16.6496 46.2739V32.2173H20.2144V50.7204L20.2176 50.7236Z" fill="white"/>
<path d="M27.8916 32.2207H24.3269V52.474H27.8916V32.2207Z" fill="white"/>
<path d="M55.3922 52.474H42.3954C39.421 52.474 36.9586 51.4956 35.0115 49.5387C33.0644 47.5818 32.0925 45.1115 32.0925 42.1246C32.0925 39.1376 33.0547 36.7674 34.9822 34.9494C36.9097 33.1313 39.3786 32.2207 42.3954 32.2207H53.9572V35.7502H42.3954C40.4385 35.7502 38.8274 36.3734 37.5587 37.6199C36.29 38.8663 35.6573 40.468 35.6573 42.4249C35.6573 44.3817 36.29 45.935 37.5587 47.1395C38.8274 48.3439 40.4385 48.9478 42.3954 48.9478H51.8307V44.5303H42.128V41.2979H55.3955V52.4773L55.3922 52.474Z" fill="white"/>
<path fill-rule="evenodd" clip-rule="evenodd" d="M77.1328 52.474H71.8624L66.1418 46.781H58.5753V43.2806H68.0269C69.3445 43.2806 70.4534 42.9932 71.3503 42.4216C72.3679 41.75 72.8767 40.7909 72.8767 39.5445C72.8767 37.0128 71.259 35.7502 68.0237 35.7502H58.572V32.2207H67.4562C70.0914 32.2207 72.2179 32.7826 73.8355 33.9096C75.6913 35.1948 76.6208 37.0838 76.6208 39.5735C76.6208 41.2721 76.0826 42.7381 75.0031 43.962C74.0051 45.1083 72.6484 45.9091 70.9296 46.3645L77.1296 52.474H77.1328Z" fill="white"/>
<path d="M98.0713 32.2207H80.2834V35.7502H98.0713V32.2207Z" fill="white"/>
<path d="M98.0713 48.9443H80.2834V52.4738H98.0713V48.9443Z" fill="white"/>
<path d="M98.0713 40.4355H80.2834V43.965H98.0713V40.4355Z" fill="white"/>
<path d="M118.794 52.474H101.153V32.2207H104.718V48.9446H118.794V52.474Z" fill="white"/>
<path d="M138.2 52.474H120.562V32.2207H124.123V48.9446H138.2V52.474Z" fill="white"/>
<path d="M145 32.2207H141.435V52.474H145V32.2207Z" fill="white"/>
<path fill-rule="evenodd" clip-rule="evenodd" d="M71.0536 9.71033C79.9606 8.83845 87.0085 15.5422 87.7554 23.3536C87.8858 24.7227 87.8337 26.0499 87.6249 27.3157H97.1711C97.3962 27.0832 97.5071 26.7022 97.5038 26.0596C97.4973 25.0521 97.7386 22.824 97.1614 22.275C96.5123 21.655 94.7544 21.9844 93.776 21.5937C92.8302 21.2191 92.7225 19.9371 92.416 18.8198C91.9789 17.2278 92.5236 17.005 93.4955 16.2785C94.1152 15.8135 95.648 15.1515 95.0088 13.8695C94.8066 13.4626 94.4674 12.933 94.2359 12.5617C92.7454 10.1624 93.0976 9.94606 90.72 10.9471C89.435 11.4896 88.8871 11.9126 87.8239 10.8502C87.064 10.0914 86.0431 9.34543 85.9518 8.56398C85.8638 7.79866 86.7541 6.33585 87.0052 5.58991C87.4194 4.34668 85.9388 3.92689 85.1625 3.46189C84.6798 3.1745 84.3048 2.99043 83.8384 2.70304C81.9566 1.55345 81.725 3.6847 80.4172 4.8795C79.5888 5.63512 78.294 5.01189 77.2764 4.75356C75.7664 4.36929 75.724 3.95273 75.5315 2.3446C75.3489 0.820434 75.5054 0.0486631 73.8356 0.0518922C72.8474 0.0518922 70.6329 -0.199983 70.0132 0.361892C69.2892 1.01418 69.6251 2.66429 69.2859 3.67825C68.9402 4.71804 67.5867 4.77616 66.5235 5.07325C64.8601 5.53825 64.6514 4.98929 63.9208 4.03345C63.174 3.05825 62.6945 1.97002 61.5302 2.50606C61.1095 2.69981 60.6594 3.00658 60.2061 3.26168C57.6524 4.69866 57.5741 4.58887 58.4677 6.64262C58.9406 7.73408 59.482 8.52845 58.5754 9.4972C55.839 12.4196 56.0934 11.5703 53.2984 10.5112C51.8959 9.97835 51.485 11.3701 50.9893 12.2194C50.5751 12.9266 49.5966 14.173 49.9717 14.9577C50.2163 15.4712 51.7002 16.3592 52.2482 16.8306C53.1907 17.6412 52.6265 18.752 52.3069 19.9242C51.8796 21.4871 51.7785 21.5807 50.0271 21.7842C48.6019 21.9489 47.5321 21.7906 47.5158 23.3568C47.506 24.2739 47.281 26.6473 47.7931 27.235C47.8159 27.2608 47.8387 27.2867 47.8648 27.3093H57.4012C57.3491 26.9928 57.3067 26.6764 57.274 26.3599C56.3837 17.3925 63.0826 10.4886 71.0601 9.7071" fill="white"/>
<path d="M67.0843 22.643V15.9296L67.0256 15.9393L61.9737 22.643H67.0811H67.0843ZM70.9687 24.5612H69.4424V27.4028H67.0843V24.5612H59.9907V21.7905L65.7504 14.0825H69.4456V22.643H70.972V24.5612H70.9687Z" fill="white"/>
<path d="M79.1648 22.6396V19.039C79.1648 17.7764 79.0082 16.9692 78.6919 16.6236C78.3494 16.2458 77.508 16.0553 76.161 16.0553C75.3881 16.0553 74.8336 16.0876 74.4944 16.1489C74.1683 16.2103 73.9074 16.3201 73.7149 16.4815C73.4932 16.6656 73.3399 16.9239 73.2486 17.2662C73.1572 17.615 73.1083 18.2899 73.1083 19.2877V22.6751C73.1083 23.7601 73.2649 24.5028 73.578 24.8935C73.8617 25.2487 74.6771 25.4296 76.0175 25.4296C77.159 25.4296 77.8994 25.3553 78.2418 25.21C78.4571 25.1196 78.6299 24.9839 78.7604 24.8063C78.9104 24.6029 79.0082 24.3284 79.0604 23.9958C79.1257 23.5437 79.1615 23.0917 79.1615 22.6363M81.5065 22.1617C81.5065 23.0723 81.4445 23.8796 81.3141 24.5771C81.1869 25.2649 80.9162 25.8429 80.4955 26.3144C80.091 26.7729 79.5659 27.0797 78.9234 27.2347C78.2059 27.4026 77.358 27.4962 76.3861 27.5059C75.3065 27.5188 74.3868 27.4478 73.6301 27.2993C72.3941 27.0571 71.5754 26.3854 71.1743 25.2843C70.9036 24.548 70.7666 23.4566 70.7666 22.0196V19.1069C70.7666 18.545 70.8057 17.9411 70.8808 17.2985C71.0145 16.1328 71.4156 15.2932 72.081 14.7765C72.6582 14.4149 73.3692 14.1792 74.2205 14.0694C74.7032 14.008 75.4598 13.9757 76.4904 13.9757C77.521 13.9757 79.5529 13.8724 79.018 14.276C77.9059 15.1092 78.4049 16.9465 78.7799 17.4019C79.1354 17.8346 81.1184 18.587 81.2782 16.9207C81.3467 16.2168 81.5032 18.4933 81.5032 19.5751V22.1649L81.5065 22.1617Z" fill="white"/>
<path fill-rule="evenodd" clip-rule="evenodd" d="M81.7542 13.8662C81.7999 13.7273 81.6368 13.6821 81.5488 13.6304C81.4966 13.5981 81.4542 13.5788 81.402 13.5465C81.1933 13.4205 81.1672 13.6563 81.0237 13.7887C80.9323 13.8726 80.7888 13.8048 80.6747 13.7757C80.5084 13.7338 80.5018 13.6886 80.4823 13.5077C80.4627 13.3398 80.4823 13.2526 80.2931 13.2526C80.1822 13.2526 79.9376 13.2236 79.8691 13.2881C79.7876 13.3592 79.8267 13.5432 79.7876 13.6563C79.7484 13.7725 79.5984 13.779 79.481 13.8113C79.2984 13.8629 79.2755 13.8016 79.194 13.695C79.1125 13.5884 79.057 13.4657 78.9298 13.5271C78.8842 13.5497 78.832 13.582 78.7831 13.6111C78.4993 13.7693 78.4928 13.7564 78.5906 13.9856C78.6428 14.1051 78.7015 14.1955 78.6037 14.3021C78.3004 14.625 78.3297 14.5314 78.0199 14.4151C77.8633 14.357 77.8177 14.5088 77.7655 14.6056C77.7198 14.6831 77.6122 14.822 77.6513 14.9092C77.6774 14.9673 77.8438 15.0642 77.9025 15.1158C78.0068 15.2063 77.9449 15.329 77.909 15.4581C77.8633 15.6325 77.8503 15.6422 77.6579 15.6648C77.5013 15.6842 77.3806 15.6648 77.3806 15.8392C77.3806 15.9393 77.3546 16.2041 77.41 16.2687C77.4818 16.3494 77.6644 16.3171 77.7785 16.3494C77.896 16.3849 77.9057 16.5205 77.9384 16.6465C77.9873 16.8273 77.9351 16.8564 77.8242 16.9403C77.5339 17.1534 77.622 17.1212 77.8144 17.4796C77.8992 17.6378 77.9612 17.6055 78.1145 17.5377C78.2482 17.4796 78.3297 17.4215 78.4439 17.5313C78.7635 17.838 78.6656 17.7799 78.5482 18.1028C78.4928 18.2514 78.6428 18.303 78.7341 18.3515C78.8092 18.3934 78.9559 18.5129 79.0538 18.4645C79.1027 18.4387 79.2168 18.2611 79.2592 18.2126C79.344 18.1157 79.481 18.1803 79.6049 18.2126C79.7745 18.2578 79.7876 18.2837 79.8104 18.4677C79.83 18.6259 79.8104 18.7357 79.9931 18.739C80.0974 18.739 80.3649 18.7648 80.4268 18.7034C80.4986 18.6356 80.466 18.4451 80.5051 18.3353C80.5442 18.2255 80.6943 18.2126 80.8117 18.1803C80.9878 18.1319 81.0204 18.1932 81.1019 18.2998C81.2976 18.5581 81.265 18.5258 81.6531 18.2998C81.7086 18.2675 81.7542 18.2546 81.7607 18.1771C81.7738 18.0382 81.5324 17.838 81.6955 17.6863C81.7542 17.6314 81.8749 17.4893 81.9401 17.4699C82.038 17.4441 82.1945 17.5442 82.2793 17.5732C82.4326 17.6281 82.475 17.4764 82.5337 17.3827C82.5761 17.3117 82.6968 17.1631 82.6413 17.0695C82.6087 17.0114 82.4424 16.9209 82.3869 16.8661C82.2956 16.7756 82.3641 16.6239 82.3967 16.5108C82.4424 16.3429 82.488 16.3429 82.6674 16.3203C82.837 16.3009 82.9218 16.3139 82.9218 16.1298C82.9218 16.0168 82.9479 15.7714 82.8827 15.71C82.8109 15.6422 82.6152 15.6777 82.5076 15.6357C82.4032 15.5938 82.3902 15.4517 82.3576 15.329C82.3087 15.1514 82.3706 15.1288 82.4783 15.048C82.5468 14.9964 82.7163 14.9221 82.6446 14.78C82.6218 14.7348 82.5859 14.6767 82.5598 14.6347C82.3935 14.3699 82.4326 14.3441 82.1717 14.4571C82.0282 14.5184 81.9695 14.5637 81.8521 14.4474C81.7673 14.3634 81.6564 14.2795 81.6433 14.1955C81.6336 14.1116 81.7314 13.9501 81.7607 13.8662M79.9898 14.3215C80.9747 14.2246 81.7575 14.9673 81.839 15.8327C81.9303 16.8047 81.1998 17.5765 80.3225 17.6637C79.3342 17.7638 78.5515 17.0243 78.4667 16.1653C78.3689 15.174 79.1092 14.4087 79.9931 14.3215H79.9898Z" fill="white"/>
<path d="M3.05276 27.3347H2.06129V22.8268L0.649088 24.2056L0.0522461 23.5824L1.79385 21.9517H3.05276V27.3347Z" fill="white"/>
<path d="M15.2276 23.7312V23.5375C15.2276 23.2275 15.1624 23.024 15.0319 22.9207C14.9341 22.8464 14.7938 22.798 14.6145 22.7754C14.546 22.7689 14.4612 22.7625 14.3666 22.7592C14.3046 22.756 14.2133 22.7528 14.0992 22.7496C13.5871 22.7463 13.2805 22.8044 13.1762 22.9207C13.0685 23.0208 13.0164 23.2533 13.0164 23.6182C13.0164 23.925 13.0653 24.1252 13.1599 24.2221C13.2447 24.306 13.4143 24.3609 13.6687 24.3803C13.8056 24.39 13.9524 24.3964 14.1122 24.3964C14.2851 24.3964 14.4383 24.39 14.5753 24.3803C14.8167 24.3609 14.9863 24.3125 15.0743 24.2253C15.1754 24.1316 15.2276 23.9702 15.2276 23.7344M16.2224 25.7785C16.2224 26.3662 16.0593 26.7796 15.7364 27.0282C15.4983 27.209 15.1461 27.3188 14.6764 27.3576C14.4547 27.3705 14.1905 27.3802 13.8806 27.3802C13.2642 27.3802 12.8305 27.3124 12.5826 27.1735C12.1847 26.9507 11.989 26.5051 11.989 25.8399H12.974C12.9838 26.0272 13.0033 26.1628 13.0327 26.25C13.0653 26.3436 13.1273 26.4114 13.2218 26.4534C13.3295 26.5051 13.5284 26.5374 13.8154 26.5535C13.8774 26.5438 13.9622 26.5406 14.0665 26.5406C14.3927 26.5406 14.6243 26.5277 14.758 26.5051C14.8852 26.4825 14.9863 26.4276 15.0645 26.3404C15.1852 26.2048 15.2439 25.9723 15.2407 25.6429L15.2276 24.7161H15.2113C15.0482 24.9938 14.7938 25.1585 14.4481 25.2005C14.2883 25.2199 14.0894 25.2328 13.848 25.2328C13.4925 25.2328 13.199 25.2069 12.9642 25.1553C12.7326 25.1068 12.5435 25.0035 12.3902 24.8517C12.1521 24.6128 12.0347 24.1962 12.0347 23.6021C12.0347 22.911 12.1814 22.4557 12.4782 22.2329C12.7163 22.0521 13.049 21.9519 13.4762 21.9229C13.6491 21.9132 13.8546 21.9067 14.0959 21.9067C14.6993 21.9067 15.1428 21.9681 15.4331 22.0876C15.6288 22.1683 15.7886 22.2942 15.906 22.4686C16.1147 22.7657 16.2191 23.3663 16.2191 24.2769V25.7785H16.2224Z" fill="white"/>
<path d="M27.3242 25.7494C27.3242 25.4427 27.2753 25.2425 27.1807 25.1456C27.0698 25.0358 26.7371 24.9809 26.1794 24.9809C25.6217 24.9809 25.3217 25.0358 25.201 25.1456C25.1358 25.2037 25.0934 25.2844 25.0738 25.3846C25.0542 25.4814 25.0412 25.6074 25.0412 25.7624C25.0412 26.0594 25.0901 26.2564 25.1847 26.3533C25.263 26.4308 25.3738 26.4792 25.5108 26.5018C25.6543 26.5277 25.837 26.5374 26.0587 26.5374H26.2968C26.7306 26.5374 27.0111 26.4792 27.1318 26.3662C27.2589 26.2823 27.3209 26.0788 27.3209 25.7494M27.2394 23.3502C27.2394 23.1435 27.1937 22.9885 27.1024 22.8916C26.9948 22.7948 26.698 22.7496 26.2153 22.7496C25.6837 22.7496 25.3706 22.7915 25.2727 22.8787C25.1749 22.9627 25.1292 23.1274 25.1292 23.3696C25.1292 23.7377 25.201 23.9702 25.338 24.0703C25.413 24.1219 25.5206 24.1575 25.6641 24.1704C25.8011 24.1833 25.9935 24.193 26.2414 24.193H26.4012C26.5708 24.193 26.7143 24.1833 26.8415 24.1607C26.9426 24.1446 27.0241 24.0993 27.0828 24.0283C27.1839 23.9088 27.2361 23.6828 27.2361 23.3534L27.2394 23.3502ZM28.3124 25.7494C28.3124 26.4696 28.1265 26.9313 27.7579 27.138C27.5753 27.2413 27.3503 27.3059 27.0828 27.335C26.786 27.3673 26.4273 27.3802 26.0066 27.3769C25.7032 27.3769 25.4325 27.3576 25.1945 27.3221C24.7248 27.2542 24.4019 27.0443 24.2291 26.6891C24.1312 26.4889 24.0791 26.2274 24.0693 25.9044C24.0693 25.8883 24.0693 25.8592 24.0627 25.814V25.7236C24.0627 25.2812 24.1867 24.968 24.4345 24.7807C24.5781 24.6741 24.7737 24.6031 25.0249 24.5708V24.5417C24.6335 24.4675 24.3791 24.3125 24.2617 24.0832C24.1834 23.9314 24.1475 23.7054 24.1475 23.4083L24.1345 23.3082C24.1345 23.1015 24.1671 22.8981 24.2323 22.7043C24.2976 22.5203 24.4052 22.3653 24.5585 22.2458C24.6628 22.1651 24.764 22.1037 24.8585 22.065C25.1162 21.9584 25.6054 21.9067 26.3294 21.9067C26.6849 21.9067 26.9361 21.9164 27.0861 21.9358C27.3796 21.9713 27.6144 22.0553 27.784 22.1844C28.0776 22.4073 28.2276 22.7915 28.2276 23.334C28.2276 23.8765 28.1134 24.193 27.8819 24.3512C27.7612 24.4352 27.5916 24.4965 27.3796 24.5385V24.5676C27.8427 24.6257 28.1298 24.8388 28.2374 25.2037C28.283 25.3652 28.3091 25.546 28.3091 25.743L28.3124 25.7494Z" fill="white"/>
<path d="M38.886 25.4104V22.6979H38.8632L36.7531 25.4104H38.8893H38.886ZM40.5102 26.1854H39.871V27.335H38.886V26.1854H35.9214V25.0649L38.3283 21.9487H39.871V25.4072H40.5102V26.1822V26.1854Z" fill="white"/>
<path d="M108.472 27.3347H104.369V26.2723C104.369 25.7007 104.49 25.3068 104.731 25.0872C104.924 24.9128 105.246 24.7836 105.697 24.7061L106.333 24.5963C106.528 24.5705 106.799 24.5188 107.138 24.4349C107.223 24.4026 107.288 24.3541 107.34 24.2863C107.432 24.1669 107.477 23.957 107.477 23.6566C107.477 23.2821 107.415 23.0399 107.298 22.9301C107.187 22.8074 106.913 22.746 106.476 22.746C106.039 22.746 105.736 22.7848 105.592 22.859C105.462 22.9495 105.387 23.1561 105.367 23.4758C105.357 23.6276 105.354 23.76 105.354 23.873H104.369C104.369 23.873 104.372 23.6889 104.382 23.337C104.402 22.6201 104.715 22.1841 105.325 22.0259C105.622 21.9484 106.006 21.9097 106.476 21.9097C107.269 21.9097 107.807 22.0518 108.094 22.3327C108.345 22.5781 108.469 22.985 108.469 23.5533C108.469 23.8795 108.446 24.1539 108.397 24.3768C108.348 24.5996 108.234 24.7869 108.058 24.9386C107.856 25.1162 107.562 25.2325 107.187 25.2938L106.672 25.3778C106.476 25.4004 106.189 25.4521 105.807 25.5393C105.514 25.6426 105.367 25.8363 105.367 26.1173C105.357 26.2012 105.354 26.3304 105.354 26.4983H108.472V27.3379V27.3347Z" fill="white"/>
<path d="M119.812 25.4105V23.9541C119.812 23.4439 119.747 23.1178 119.616 22.9789C119.473 22.8272 119.121 22.7497 118.56 22.7497C118.237 22.7497 118.005 22.7626 117.862 22.7884C117.725 22.8142 117.617 22.8562 117.535 22.9208C117.441 22.9951 117.379 23.1016 117.34 23.2373C117.301 23.3793 117.281 23.6506 117.281 24.0542V25.4234C117.281 25.8626 117.346 26.1629 117.477 26.3211C117.594 26.4632 117.937 26.5375 118.498 26.5375C118.974 26.5375 119.284 26.5084 119.427 26.4503C119.515 26.4148 119.59 26.3599 119.642 26.2888C119.704 26.2049 119.747 26.0951 119.77 25.9595C119.799 25.7754 119.812 25.5946 119.812 25.4105ZM120.794 25.2167C120.794 25.5849 120.768 25.911 120.715 26.192C120.663 26.4697 120.549 26.7054 120.373 26.8927C120.203 27.0767 119.985 27.2027 119.714 27.264C119.414 27.3318 119.062 27.3706 118.654 27.3738C118.204 27.3771 117.819 27.3512 117.503 27.2899C116.984 27.193 116.645 26.9185 116.476 26.4761C116.361 26.179 116.306 25.7366 116.306 25.1554V23.9767C116.306 23.7507 116.322 23.5053 116.355 23.247C116.41 22.7755 116.58 22.4364 116.857 22.2265C117.098 22.0812 117.395 21.9843 117.751 21.9391C117.953 21.9133 118.269 21.9004 118.7 21.9004C119.13 21.9004 119.489 21.9424 119.757 22.0199C120.017 22.0974 120.223 22.233 120.383 22.4171C120.533 22.5914 120.64 22.8175 120.702 23.0887C120.764 23.3664 120.797 23.7249 120.797 24.1608V25.2071L120.794 25.2167Z" fill="white"/>
<path d="M132.619 27.3347H128.517V26.2723C128.517 25.7007 128.637 25.3068 128.879 25.0872C129.071 24.9128 129.394 24.7836 129.844 24.7061L130.48 24.5963C130.676 24.5705 130.946 24.5188 131.286 24.4349C131.37 24.4026 131.436 24.3541 131.488 24.2863C131.579 24.1669 131.625 23.957 131.625 23.6566C131.625 23.2821 131.563 23.0399 131.445 22.9301C131.334 22.8074 131.061 22.746 130.623 22.746C130.186 22.746 129.883 22.7848 129.74 22.859C129.609 22.9495 129.534 23.1561 129.515 23.4758C129.505 23.6276 129.502 23.76 129.502 23.873H128.517C128.517 23.873 128.52 23.6889 128.53 23.337C128.549 22.6201 128.862 22.1841 129.472 22.0259C129.769 21.9484 130.154 21.9097 130.623 21.9097C131.416 21.9097 131.954 22.0518 132.241 22.3327C132.492 22.5781 132.616 22.985 132.616 23.5533C132.616 23.8795 132.593 24.1539 132.544 24.3768C132.496 24.5996 132.381 24.7869 132.205 24.9386C132.003 25.1162 131.71 25.2325 131.334 25.2938L130.819 25.3778C130.623 25.4004 130.336 25.4521 129.955 25.5393C129.661 25.6426 129.515 25.8363 129.515 26.1173C129.505 26.2012 129.502 26.3304 129.502 26.4983H132.619V27.3379V27.3347Z" fill="white"/>
<path d="M143.324 25.4104V22.6979H143.301L141.191 25.4104H143.327H143.324ZM144.948 26.1854H144.308V27.335H143.324V26.1854H140.359V25.0649L142.766 21.9487H144.308V25.4072H144.948V26.1822V26.1854Z" fill="white"/>
</g>
<defs>
<clipPath id="clip0_222_596">
<rect width="145" height="62" fill="white"/>
</clipPath>
</defs>
</svg>
