<svg width="351" height="146" viewBox="0 0 351 146" fill="none" xmlns="http://www.w3.org/2000/svg">
<g clip-path="url(#clip0_373_607)">
<path d="M267.483 136.909C267.438 137.025 267.258 137.006 267.18 136.909C267.277 136.909 267.38 136.909 267.483 136.909Z" fill="white"/>
<path d="M291.171 136.194C291.107 136.155 291.133 136.039 291.133 135.968C291.197 136.007 291.171 136.123 291.171 136.194Z" fill="white"/>
<path d="M291.132 136.419C291.132 136.361 291.113 136.265 291.171 136.232C291.171 136.29 291.19 136.387 291.132 136.419Z" fill="white"/>
<path d="M330.941 132.302H328.991V140.324H330.941V132.302Z" fill="white"/>
<path d="M329.847 128.862C330.542 128.817 331.096 129.1 331.166 129.841C331.25 130.782 330.857 131.336 329.873 131.284C328.367 131.207 328.367 128.952 329.847 128.855V128.862Z" fill="white"/>
<path d="M312.987 132.373V134.248C312.118 133.907 310.329 133.578 309.505 134.042C309.164 134.235 309.061 134.667 309.319 134.97C309.628 135.331 310.883 135.402 311.384 135.53C312.421 135.795 313.302 136.374 313.399 137.528C313.637 140.459 310.142 140.73 308.038 140.305C307.774 140.253 307.485 140.176 307.253 140.04V138.185C308.238 138.604 309.608 138.868 310.664 138.655C311.146 138.559 311.642 138.178 311.333 137.644C311.056 137.173 309.647 137.09 309.126 136.967C308.16 136.729 307.279 136.117 307.176 135.054C306.88 131.845 310.799 131.768 312.987 132.373Z" fill="white"/>
<path d="M299.942 132.302V137.083C299.942 137.179 300.026 137.495 300.058 137.605C300.56 139.293 303.694 138.951 303.694 137.044V132.302H305.644V139.853C305.515 141.644 304.531 142.991 302.787 143.48C301.616 143.809 300.406 143.667 299.196 143.693V142.024C299.196 142.024 299.247 141.966 299.254 141.966H301.616C301.976 141.966 302.671 141.657 302.948 141.425C303.269 141.148 303.662 140.459 303.662 140.04V139.235L303.366 139.628C301.493 141.425 298.205 140.13 298.044 137.527C297.96 135.788 298.031 134.042 298.005 132.302H299.955H299.942Z" fill="white"/>
<path d="M291.133 135.975L291.171 136.2C291.171 136.2 291.171 136.226 291.171 136.239L291.133 136.426C291.107 138.101 290.006 139.583 288.423 140.111C287.213 140.517 285.798 140.246 284.53 140.324V143.7H282.58V136.071C282.735 133.359 284.865 131.813 287.503 132.122C289.607 132.373 291.1 133.81 291.126 135.975H291.133ZM284.536 138.481H287.213C287.954 138.481 288.758 137.785 288.983 137.102C289.614 135.182 288.275 133.552 286.255 133.965C285.392 134.139 284.53 135.047 284.53 135.956V138.488L284.536 138.481Z" fill="white"/>
<path d="M294.473 140.317H292.523V134.938C292.651 132.973 293.926 132.058 295.843 132.18C296.094 132.193 296.429 132.238 296.648 132.348V134.036C296.648 134.145 296.281 134.004 296.204 133.991C295.541 133.888 294.878 133.958 294.595 134.648C294.576 134.693 294.473 135.028 294.473 135.047V140.311V140.317Z" fill="white"/>
<path d="M314.821 140.317C314.879 138.765 314.744 137.16 314.821 135.614C314.866 134.68 315.059 133.797 315.683 133.076C316.951 131.619 319.995 131.742 320.967 133.494C321.449 132.85 322.022 132.38 322.826 132.186C324.924 131.684 326.861 132.779 327.112 134.983C327.202 136.754 327.132 138.539 327.157 140.317H325.207V135.466C325.207 133.694 322.749 133.288 322.144 134.764C322.112 134.841 321.983 135.26 321.983 135.318V140.324H320.033V135.472C320.033 134.834 319.596 134.164 318.985 133.971C317.82 133.604 316.771 134.3 316.771 135.543V140.324H314.821V140.317Z" fill="white"/>
<path d="M350.62 135.595V140.317H348.671V135.762C348.671 135.692 348.58 135.331 348.555 135.241C347.943 133.153 344.623 133.611 344.623 135.762V140.317H342.673V135.653C342.711 131.465 349.121 130.743 350.382 134.506L350.62 135.601V135.595Z" fill="white"/>
<path d="M339.262 140.318V138.778C339.082 138.997 338.96 139.261 338.773 139.474C337.969 140.369 336.54 140.601 335.408 140.331C331.759 139.448 331.488 134.049 334.777 132.515C336.521 131.704 338.857 132 340.125 133.514C341.585 135.267 340.897 138.076 341.064 140.189C341.071 140.227 341.038 140.318 341.006 140.318H339.262ZM334.539 136.162C334.481 136.201 334.474 136.349 334.539 136.388C334.655 139.409 338.838 139.287 339.076 136.632C339.391 133.102 334.635 132.966 334.539 136.162Z" fill="white"/>
<path d="M334.539 136.388C334.474 136.349 334.481 136.201 334.539 136.162C334.539 136.239 334.539 136.31 334.539 136.388Z" fill="white"/>
<path d="M267.56 121.279C267.56 121.279 267.637 121.285 267.637 121.305C267.669 122.31 267.708 123.45 267.669 124.449C267.695 124.578 267.669 124.655 267.599 124.687C267.341 124.687 267.142 124.7 266.884 124.726L266.82 124.629C266.723 123.572 266.608 122.509 266.472 121.433L266.511 121.356C266.64 121.343 266.781 121.33 266.923 121.317C267.058 121.305 267.193 121.292 267.335 121.279H267.56Z" fill="white"/>
<path d="M267.818 121.279C267.94 121.311 268.069 121.311 268.191 121.279C268.204 121.279 268.217 121.279 268.229 121.279C268.274 121.279 268.377 121.311 268.455 121.317L268.525 121.35C268.525 121.35 268.403 122.451 268.159 124.655L268.081 124.693C267.927 124.681 267.753 124.693 267.592 124.693L267.554 121.285H267.818V121.279Z" fill="white"/>
<path d="M267.335 121.279L267.245 121.317C267.135 121.317 267.032 121.311 266.923 121.317V121.279H267.335Z" fill="white"/>
<path d="M268.197 121.279C268.12 121.343 267.908 121.343 267.824 121.279H268.197Z" fill="white"/>
<path d="M260.964 123.978L261.035 123.946C261.794 124.739 262.553 125.538 263.313 126.33L263.287 126.414C262.167 127.516 261.524 129.062 261.447 130.627V136.941H258.036V130.511C258.152 127.979 259.156 125.712 260.958 123.972L260.964 123.978Z" fill="white"/>
<path d="M264.786 140.285C264.838 140.234 264.857 140.259 264.825 140.324V143.7H254.67V140.292H264.793L264.786 140.285Z" fill="white"/>
<path d="M275.469 136.123C274.69 137.282 273.699 138.21 272.509 138.932L272.38 138.822C271.782 137.907 271.228 136.993 270.713 136.084C271.434 135.659 272.239 134.873 272.702 134.171L272.766 134.125C273.674 134.763 274.575 135.395 275.482 136.033V136.123H275.469Z" fill="white"/>
<path d="M269.619 136.574H269.697C270.063 137.611 270.43 138.655 270.797 139.692L270.739 139.757C269.362 140.24 268.48 140.304 267.026 140.317L266.949 140.291V137.096C266.955 136.993 266.994 136.922 267.097 136.902C267.122 136.902 267.148 136.902 267.174 136.902C267.277 136.948 267.373 136.96 267.476 136.902C268.262 136.883 268.86 136.825 269.613 136.567L269.619 136.574Z" fill="white"/>
<path d="M277.001 131.999C276.891 132.934 276.666 133.797 276.286 134.66C276.164 134.815 275.99 134.828 275.771 134.692C274.961 134.287 274.137 133.9 273.313 133.513C273.191 133.468 273.146 133.397 273.178 133.307C273.423 132.76 273.596 132.07 273.667 131.471C273.731 131.413 273.834 131.426 273.97 131.503C274.903 131.6 275.836 131.735 276.756 131.903L277.001 131.993V131.999Z" fill="white"/>
<path d="M267.11 136.909L267.032 137.077V140.317C266.299 140.324 265.559 140.311 264.825 140.317L264.786 140.279V136.903C265.559 136.896 266.337 136.916 267.11 136.903V136.909Z" fill="white"/>
<path d="M276.969 129.3C277.117 130.247 277.117 131.053 277.007 132C275.99 131.852 274.98 131.697 273.957 131.581L273.674 131.471C273.68 131.388 273.712 131.169 273.712 131.117V130.518C273.712 130.37 273.661 129.951 273.635 129.79C273.699 129.816 273.77 129.835 273.841 129.835C274.832 129.758 275.842 129.59 276.814 129.416C276.808 129.294 276.898 129.158 276.969 129.307V129.3Z" fill="white"/>
<path d="M270.707 136.084C270.906 136.104 270.906 136.297 271.003 136.445C271.511 137.27 271.981 138.12 272.509 138.932C271.885 139.312 271.434 139.518 270.746 139.757L269.619 136.574C269.935 136.465 270.417 136.258 270.707 136.084Z" fill="white"/>
<path d="M276.968 129.3C276.833 129.274 276.93 129.416 276.859 129.467C276.827 129.493 276.698 129.506 276.647 129.519C275.862 129.661 274.735 129.841 273.95 129.899C273.809 129.912 273.667 129.951 273.635 129.79C273.59 129.493 273.468 129.139 273.371 128.855L273.429 128.778C274.452 128.52 275.546 128.179 276.512 127.741L276.595 127.766C276.775 128.314 276.878 128.733 276.968 129.306V129.3Z" fill="white"/>
<path d="M262.199 122.967L262.277 122.947C262.888 123.862 263.499 124.783 264.111 125.698L264.072 125.776C263.828 125.95 263.499 126.201 263.287 126.413L260.964 123.978C261.408 123.553 261.697 123.315 262.199 122.967Z" fill="white"/>
<path d="M276.293 134.661C276.067 135.169 275.778 135.659 275.469 136.123L272.695 134.177C272.85 133.945 273.075 133.565 273.184 133.314C273.339 133.501 273.59 133.527 273.789 133.623C274.233 133.836 274.658 134.087 275.102 134.293C275.327 134.396 275.836 134.661 276.035 134.712C276.158 134.744 276.17 134.654 276.286 134.661H276.293Z" fill="white"/>
<path d="M266.511 121.356C266.556 121.414 266.576 121.53 266.582 121.607C266.653 122.258 266.704 122.902 266.775 123.553C266.814 123.946 266.929 124.333 266.884 124.732C266.582 124.764 266.382 124.809 266.099 124.88C266.074 124.887 266.022 124.893 266.022 124.874C265.758 123.914 265.488 122.857 265.276 121.884C265.218 121.749 265.218 121.646 265.276 121.588C265.726 121.478 266.048 121.407 266.511 121.362V121.356Z" fill="white"/>
<path d="M269.619 121.504L269.69 121.543C269.458 122.632 269.227 123.721 268.995 124.809L268.911 124.842C268.648 124.784 268.358 124.713 268.088 124.693L268.461 121.317C268.853 121.356 269.24 121.42 269.626 121.504H269.619Z" fill="white"/>
<path d="M276.589 127.767C276.537 127.825 276.473 127.87 276.402 127.896C275.675 128.192 274.729 128.469 273.963 128.72C273.776 128.785 273.564 128.862 273.365 128.849C273.3 128.656 273.223 128.392 273.139 128.211V128.134C274.118 127.657 275.109 127.18 276.1 126.704L276.17 126.749C276.338 127.11 276.454 127.38 276.582 127.76L276.589 127.767Z" fill="white"/>
<path d="M273.97 123.753C274.027 123.824 274.008 123.907 273.912 124.004C273.242 124.739 272.554 125.473 271.846 126.207L271.724 126.265C271.601 126.149 271.305 125.918 271.164 125.814L271.119 125.75C271.756 124.861 272.393 123.965 273.024 123.07H273.114C273.442 123.315 273.667 123.469 273.976 123.753H273.97Z" fill="white"/>
<path d="M270.63 121.807L270.694 121.859L269.632 124.977L269.548 124.996C269.343 124.925 269.124 124.893 268.911 124.848L269.626 121.511C269.999 121.588 270.289 121.691 270.636 121.814L270.63 121.807Z" fill="white"/>
<path d="M264.6 125.441C264.445 125.531 264.227 125.673 264.072 125.776L262.199 122.967C262.476 122.774 262.721 122.606 263.023 122.445L263.1 122.432C263.615 123.411 264.13 124.391 264.638 125.37L264.593 125.447L264.6 125.441Z" fill="white"/>
<path d="M276.177 126.755L273.14 128.218C273.069 128.057 272.934 127.851 272.837 127.696L272.824 127.619C273.777 127.058 274.729 126.491 275.688 125.931L275.765 125.969C275.926 126.246 276.042 126.465 276.177 126.755Z" fill="white"/>
<path d="M265.269 121.582L266.093 124.88C265.9 124.925 265.719 124.964 265.533 125.028H265.456C265.102 123.978 264.748 122.922 264.394 121.871L264.452 121.807C264.728 121.71 264.992 121.652 265.275 121.582H265.269Z" fill="white"/>
<path d="M265.533 125.029C265.385 125.08 265.192 125.151 265.044 125.215H264.967C264.529 124.204 264.085 123.192 263.647 122.174L263.699 122.104C263.937 122.001 264.201 121.891 264.445 121.801L265.533 125.022V125.029Z" fill="white"/>
<path d="M271.344 122.065L271.402 122.116C270.971 123.134 270.546 124.146 270.115 125.164L270.031 125.177C269.896 125.119 269.684 125.035 269.542 124.99L270.63 121.807C270.894 121.897 271.087 121.962 271.344 122.071V122.065Z" fill="white"/>
<path d="M275.765 125.963L272.844 127.689C272.766 127.561 272.663 127.354 272.58 127.238L272.554 127.161C273.448 126.51 274.337 125.866 275.231 125.215L275.315 125.248C275.482 125.479 275.617 125.711 275.765 125.963Z" fill="white"/>
<path d="M265.044 125.215C264.909 125.273 264.722 125.37 264.593 125.441L263.017 122.445C263.236 122.322 263.461 122.213 263.693 122.11L265.044 125.222V125.215Z" fill="white"/>
<path d="M274.491 124.281C274.568 124.352 274.478 124.462 274.414 124.52C273.648 125.216 272.889 125.918 272.142 126.607C272.11 126.62 272.071 126.607 272.02 126.562C271.936 126.472 271.807 126.343 271.717 126.259C272.193 125.782 272.625 125.261 273.088 124.758C273.242 124.591 273.423 124.442 273.577 124.275C273.712 124.127 273.905 123.933 273.97 123.747C274.156 123.914 274.324 124.088 274.497 124.268L274.491 124.281Z" fill="white"/>
<path d="M274.941 124.803C274.941 124.803 274.986 124.868 274.967 124.874C274.163 125.596 273.268 126.317 272.419 126.987C272.399 127.007 272.374 127 272.348 126.974C272.251 126.852 272.116 126.672 272.013 126.562C272.09 126.562 272.142 126.517 272.2 126.472C272.567 126.169 272.933 125.75 273.287 125.422C273.635 125.099 274.021 124.797 274.356 124.468C274.414 124.417 274.446 124.346 274.484 124.281C274.671 124.481 274.767 124.603 274.935 124.803H274.941Z" fill="white"/>
<path d="M273.107 123.083L271.157 125.821C271.054 125.75 270.861 125.628 270.746 125.557L270.694 125.499C271.267 124.558 271.846 123.617 272.419 122.67H272.509C272.734 122.812 272.901 122.935 273.107 123.083Z" fill="white"/>
<path d="M272.509 122.67L270.746 125.557C270.643 125.492 270.456 125.376 270.372 125.331L270.314 125.273C270.816 124.294 271.318 123.315 271.82 122.335H271.91C272.136 122.445 272.297 122.535 272.509 122.664V122.67Z" fill="white"/>
<path d="M271.904 122.329L270.366 125.325C270.295 125.286 270.115 125.215 270.031 125.177L271.344 122.065C271.537 122.149 271.717 122.232 271.904 122.329Z" fill="white"/>
<path d="M275.128 125.028C275.179 125.099 275.25 125.164 275.315 125.254L272.58 127.238C272.547 127.193 272.477 127.109 272.432 127.051L272.406 127.006C273.275 126.323 274.156 125.647 275.051 124.996L275.134 125.028H275.128Z" fill="white"/>
<path d="M275.128 125.029L272.431 127.052C272.431 127.052 272.38 127.013 272.354 126.974L274.941 124.803C275.006 124.881 275.057 124.939 275.128 125.029Z" fill="white"/>
<path d="M153.816 0V42.342H60.2214" fill="white"/>
<path d="M0 81.8558C0 67.0181 11.1137 56.5356 26.3075 56.5356C41.5012 56.5356 52.7115 67.0181 52.7115 81.8558C52.7115 96.6935 41.6878 107.266 26.3075 107.266C10.9271 107.266 0 96.7 0 81.8558ZM41.0378 81.8558C41.0378 72.3978 34.7377 66.3673 26.3075 66.3673C17.8772 66.3673 11.6736 72.3978 11.6736 81.8558C11.6736 91.3138 17.9738 97.3443 26.3075 97.3443C34.6412 97.3443 41.0378 91.3138 41.0378 81.8558ZM142.844 78.2414V106.622H131.267V79.7232C131.267 70.9095 127.193 66.6444 120.153 66.6444C112.56 66.6444 107.276 71.6504 107.276 81.4821V106.615H95.6992V79.7168C95.6992 70.9031 91.6256 66.6379 84.5854 66.6379C76.8953 66.6379 71.7084 71.644 71.7084 81.4757V106.609H60.1313V57.0833H71.155V63.3908C74.8617 58.9388 80.602 56.5292 87.3655 56.5292C94.5923 56.5292 100.609 59.2158 104.039 64.7824C108.023 59.6797 114.69 56.5292 122.567 56.5292C134.517 56.5292 142.857 63.3006 142.857 78.2285L142.844 78.2414ZM202.686 78.2414V106.622H191.109V79.7232C191.109 70.9095 186.752 66.6444 179.345 66.6444C171.101 66.6444 165.541 71.6504 165.541 81.5788V106.622H153.964V42.3486H165.541V62.8496C169.338 58.7713 175.175 56.5421 182.029 56.5421C193.889 56.5421 202.686 63.3135 202.686 78.2414ZM260.494 85.5668H221.683C223.073 92.8021 229.096 97.4409 237.707 97.4409C243.267 97.4409 247.617 95.682 251.137 92.0612L257.341 99.1998C252.894 104.483 245.944 107.266 237.424 107.266C220.84 107.266 210.093 96.6033 210.093 81.8558C210.093 67.1083 220.93 56.5356 235.66 56.5356C250.391 56.5356 260.674 66.6444 260.674 82.1328C260.674 83.0606 260.584 84.4522 260.488 85.5668H260.494ZM221.586 77.8677H249.657C248.73 70.7291 243.267 65.8133 235.667 65.8133C228.067 65.8133 222.7 70.6389 221.586 77.8677ZM296.712 56.5421V67.5786C295.695 67.3917 294.859 67.3015 294.028 67.3015C285.231 67.3015 279.671 72.4944 279.671 82.6032V106.622H268.094V57.0962H279.118V64.3314C282.451 59.1385 288.475 56.5421 296.718 56.5421H296.712ZM298.289 81.8558C298.289 67.0181 309.402 56.5356 324.596 56.5356C339.79 56.5356 351 67.0181 351 81.8558C351 96.6935 339.976 107.266 324.596 107.266C309.216 107.266 298.289 96.6935 298.289 81.8558ZM339.326 81.8558C339.326 72.3978 333.026 66.3673 324.596 66.3673C316.166 66.3673 309.962 72.3978 309.962 81.8558C309.962 91.3138 316.262 97.3443 324.596 97.3443C332.93 97.3443 339.326 91.3138 339.326 81.8558Z" fill="white"/>
<path d="M155.065 142.766V131.504H159.692C160.689 131.504 161.545 131.665 162.259 131.987C162.974 132.309 163.521 132.773 163.907 133.372C164.293 133.971 164.486 134.687 164.486 135.511C164.486 136.336 164.293 137.051 163.907 137.65C163.521 138.249 162.974 138.713 162.259 139.036C161.545 139.358 160.689 139.519 159.692 139.519H156.217L157.15 138.539V142.772H155.058L155.065 142.766ZM157.156 138.758L156.223 137.747H159.602C160.522 137.747 161.217 137.554 161.68 137.161C162.144 136.768 162.382 136.22 162.382 135.511C162.382 134.803 162.15 134.242 161.68 133.856C161.217 133.469 160.522 133.276 159.602 133.276H156.223L157.156 132.245V138.758Z" fill="white"/>
<path d="M169.647 142.875C168.765 142.875 167.987 142.689 167.298 142.302C166.61 141.922 166.069 141.4 165.677 140.736C165.278 140.073 165.084 139.313 165.084 138.469C165.084 137.625 165.284 136.851 165.677 136.194C166.076 135.537 166.616 135.015 167.298 134.642C167.98 134.268 168.765 134.081 169.647 134.081C170.529 134.081 171.327 134.268 172.015 134.642C172.704 135.015 173.251 135.531 173.637 136.188C174.03 136.845 174.223 137.605 174.223 138.475C174.223 139.345 174.023 140.079 173.637 140.743C173.244 141.407 172.704 141.928 172.015 142.308C171.327 142.689 170.535 142.882 169.647 142.882V142.875ZM169.647 141.155C170.136 141.155 170.58 141.046 170.966 140.833C171.352 140.62 171.655 140.305 171.874 139.899C172.092 139.493 172.202 139.016 172.202 138.469C172.202 137.921 172.092 137.431 171.874 137.032C171.655 136.626 171.352 136.323 170.966 136.104C170.58 135.891 170.149 135.782 169.666 135.782C169.184 135.782 168.733 135.891 168.354 136.104C167.974 136.317 167.671 136.626 167.446 137.032C167.221 137.431 167.112 137.915 167.112 138.469C167.112 139.023 167.227 139.493 167.446 139.899C167.671 140.305 167.974 140.62 168.354 140.833C168.733 141.046 169.164 141.155 169.647 141.155Z" fill="white"/>
<path d="M177.247 142.766L174.094 134.171H175.992L178.689 141.748H177.788L180.619 134.171H182.305L185.053 141.748H184.172L186.952 134.171H188.734L185.568 142.766H183.638L181.128 136.052H181.72L179.165 142.766H177.234H177.247Z" fill="white"/>
<path d="M193.355 142.875C192.402 142.875 191.566 142.689 190.858 142.302C190.144 141.922 189.59 141.4 189.204 140.736C188.811 140.073 188.618 139.313 188.618 138.469C188.618 137.625 188.811 136.851 189.191 136.194C189.571 135.537 190.099 135.015 190.768 134.642C191.437 134.268 192.203 134.081 193.059 134.081C193.915 134.081 194.642 134.261 195.292 134.629C195.942 134.996 196.457 135.511 196.836 136.175C197.21 136.839 197.396 137.625 197.396 138.527C197.396 138.61 197.396 138.707 197.39 138.817C197.39 138.926 197.377 139.023 197.364 139.119H190.208V137.786H196.302L195.517 138.204C195.53 137.715 195.427 137.277 195.215 136.903C195.002 136.529 194.706 136.233 194.339 136.02C193.966 135.808 193.541 135.698 193.059 135.698C192.576 135.698 192.132 135.808 191.765 136.02C191.392 136.233 191.109 136.529 190.897 136.916C190.691 137.296 190.581 137.747 190.581 138.256V138.578C190.581 139.094 190.697 139.551 190.935 139.944C191.173 140.343 191.501 140.646 191.933 140.859C192.364 141.071 192.853 141.181 193.413 141.181C193.895 141.181 194.327 141.104 194.713 140.956C195.099 140.807 195.44 140.569 195.742 140.247L196.817 141.484C196.431 141.935 195.948 142.283 195.363 142.521C194.777 142.766 194.108 142.882 193.361 142.882L193.355 142.875Z" fill="white"/>
<path d="M198.76 142.766V134.171H200.672V136.535L200.447 135.846C200.704 135.266 201.109 134.828 201.656 134.525C202.203 134.222 202.898 134.074 203.722 134.074V135.988C203.638 135.968 203.555 135.956 203.484 135.949C203.407 135.949 203.33 135.943 203.259 135.943C202.499 135.943 201.894 136.168 201.444 136.613C200.994 137.057 200.768 137.721 200.768 138.603V142.772H198.76V142.766Z" fill="white"/>
<path d="M208.819 142.875C207.866 142.875 207.03 142.689 206.322 142.302C205.607 141.922 205.054 141.4 204.668 140.736C204.275 140.073 204.082 139.313 204.082 138.469C204.082 137.625 204.275 136.851 204.655 136.194C205.035 135.537 205.562 135.015 206.232 134.642C206.901 134.268 207.667 134.081 208.523 134.081C209.379 134.081 210.106 134.261 210.756 134.629C211.406 134.996 211.92 135.511 212.3 136.175C212.673 136.839 212.86 137.625 212.86 138.527C212.86 138.61 212.86 138.707 212.854 138.817C212.854 138.926 212.841 139.023 212.828 139.119H205.672V137.786H211.766L210.981 138.204C210.994 137.715 210.891 137.277 210.678 136.903C210.466 136.529 210.17 136.233 209.803 136.02C209.43 135.808 209.005 135.698 208.523 135.698C208.04 135.698 207.596 135.808 207.229 136.02C206.856 136.233 206.573 136.529 206.36 136.916C206.154 137.296 206.045 137.747 206.045 138.256V138.578C206.045 139.094 206.161 139.551 206.399 139.944C206.637 140.343 206.965 140.646 207.396 140.859C207.828 141.071 208.317 141.181 208.877 141.181C209.359 141.181 209.79 141.104 210.176 140.956C210.563 140.807 210.904 140.569 211.206 140.247L212.281 141.484C211.895 141.935 211.412 142.283 210.826 142.521C210.241 142.766 209.572 142.882 208.825 142.882L208.819 142.875Z" fill="white"/>
<path d="M217.854 142.875C217.03 142.875 216.284 142.688 215.627 142.321C214.971 141.947 214.45 141.439 214.076 140.781C213.703 140.124 213.517 139.351 213.517 138.462C213.517 137.573 213.703 136.8 214.076 136.143C214.45 135.485 214.971 134.983 215.627 134.616C216.284 134.248 217.03 134.068 217.854 134.068C218.568 134.068 219.218 134.229 219.785 134.545C220.351 134.86 220.801 135.344 221.136 135.981C221.471 136.626 221.638 137.45 221.638 138.462C221.638 139.473 221.477 140.285 221.155 140.936C220.834 141.587 220.389 142.07 219.817 142.392C219.25 142.714 218.594 142.875 217.854 142.875ZM218.099 141.155C218.581 141.155 219.012 141.045 219.392 140.833C219.772 140.62 220.074 140.305 220.306 139.899C220.537 139.493 220.653 139.016 220.653 138.468C220.653 137.921 220.537 137.431 220.306 137.032C220.074 136.626 219.772 136.323 219.392 136.104C219.012 135.891 218.581 135.782 218.099 135.782C217.616 135.782 217.185 135.891 216.805 136.104C216.425 136.316 216.116 136.626 215.891 137.032C215.66 137.431 215.544 137.914 215.544 138.468C215.544 139.022 215.66 139.493 215.891 139.899C216.123 140.305 216.425 140.62 216.805 140.833C217.185 141.045 217.616 141.155 218.099 141.155ZM220.698 142.766V140.736L220.776 138.449L220.615 136.162V130.821H222.61V142.766H220.698Z" fill="white"/>
<path d="M228.575 142.766V130.821H230.583V136.162L230.422 138.449L230.486 140.736V142.766H228.575ZM233.337 142.875C232.61 142.875 231.96 142.714 231.394 142.392C230.828 142.07 230.377 141.587 230.049 140.936C229.721 140.285 229.56 139.461 229.56 138.462C229.56 137.463 229.727 136.626 230.068 135.981C230.403 135.337 230.86 134.86 231.432 134.545C232.005 134.229 232.642 134.068 233.337 134.068C234.18 134.068 234.933 134.248 235.583 134.616C236.233 134.983 236.742 135.492 237.128 136.143C237.507 136.8 237.7 137.573 237.7 138.462C237.7 139.351 237.507 140.124 237.128 140.781C236.748 141.439 236.233 141.947 235.583 142.321C234.933 142.688 234.187 142.875 233.337 142.875ZM233.112 141.155C233.595 141.155 234.026 141.045 234.406 140.833C234.785 140.62 235.088 140.305 235.313 139.899C235.538 139.493 235.648 139.016 235.648 138.468C235.648 137.921 235.538 137.431 235.313 137.032C235.088 136.626 234.785 136.323 234.406 136.104C234.026 135.891 233.595 135.782 233.112 135.782C232.629 135.782 232.198 135.891 231.812 136.104C231.426 136.316 231.124 136.626 230.898 137.032C230.673 137.431 230.564 137.914 230.564 138.468C230.564 139.022 230.673 139.493 230.898 139.899C231.124 140.305 231.426 140.62 231.812 140.833C232.198 141.045 232.629 141.155 233.112 141.155Z" fill="white"/>
<path d="M239.509 146C239.09 146 238.672 145.929 238.254 145.794C237.835 145.652 237.488 145.465 237.211 145.214L238.016 143.732C238.215 143.912 238.447 144.061 238.704 144.164C238.962 144.267 239.225 144.325 239.489 144.325C239.85 144.325 240.146 144.235 240.371 144.048C240.596 143.867 240.802 143.558 241.002 143.133L241.497 142.005L241.658 141.767L244.908 134.171H246.838L242.823 143.455C242.552 144.099 242.256 144.608 241.928 144.982C241.6 145.356 241.24 145.62 240.834 145.768C240.429 145.916 239.991 145.993 239.509 145.993V146ZM241.272 143.068L237.398 134.171H239.489L242.643 141.593L241.278 143.075L241.272 143.068Z" fill="white"/>
</g>
<defs>
<clipPath id="clip0_373_607">
<rect width="351" height="146" fill="white"/>
</clipPath>
</defs>
</svg>
