<svg viewBox="0 0 344 105" fill="none" xmlns="http://www.w3.org/2000/svg">
<g clip-path="url(#clip0_264_313)">
<path d="M150.748 0V41.4488H59.0139L150.748 0Z" fill="white"/>
<path d="M0 80.1212C0 65.5978 10.8954 55.3379 25.7819 55.3379C40.6684 55.3379 51.6594 65.5978 51.6594 80.1212C51.6594 94.6447 40.8526 104.993 25.7819 104.993C10.7112 104.993 0 94.6515 0 80.1212ZM40.2182 80.1212C40.2182 70.8641 34.0439 64.9633 25.7819 64.9633C17.52 64.9633 11.4344 70.8641 11.4344 80.1212C11.4344 89.3783 17.6087 95.2791 25.7819 95.2791C33.9552 95.2791 40.2182 89.3783 40.2182 80.1212Z" fill="white"/>
<path d="M139.996 76.5807V104.359H128.65V78.0338C128.65 69.4111 124.652 65.2362 117.755 65.2362C110.312 65.2362 105.134 70.141 105.134 79.7597V104.359H93.7879V78.0338C93.7879 69.4111 89.7899 65.2362 82.8925 65.2362C75.3537 65.2362 70.271 70.141 70.271 79.7597V104.359H58.9253V55.8836H69.732V62.0573C73.3615 57.6982 78.99 55.3379 85.6214 55.3379C92.7031 55.3379 98.6045 57.9711 101.961 63.4148C105.864 58.4213 112.399 55.3379 120.116 55.3379C131.83 55.3379 139.996 61.9618 139.996 76.5807Z" fill="white"/>
<path d="M198.648 76.5806V104.359H187.303V78.0336C187.303 69.411 183.039 65.2361 175.773 65.2361C167.695 65.2361 162.244 70.1409 162.244 79.8482V104.359H150.898V41.4487H162.244V61.5182C165.969 57.5207 171.686 55.3446 178.406 55.3446C190.025 55.3446 198.655 61.9685 198.655 76.5874L198.648 76.5806Z" fill="white"/>
<path d="M255.295 83.7572H217.253C218.618 90.8382 224.519 95.3746 232.958 95.3746C238.403 95.3746 242.673 93.6487 246.126 90.1082L252.211 97.1005C247.852 102.278 241.043 105 232.692 105C216.441 105 205.907 94.5628 205.907 80.1281C205.907 65.6933 216.53 55.3447 230.966 55.3447C245.402 55.3447 255.479 65.2362 255.479 80.4009C255.479 81.3082 255.39 82.6726 255.295 83.7572ZM217.164 76.2192H244.672C243.765 69.2269 238.409 64.4176 230.966 64.4176C223.523 64.4176 218.256 69.1383 217.164 76.2192Z" fill="white"/>
<path d="M290.799 55.3447V66.1503C289.803 65.9662 288.984 65.8775 288.165 65.8775C279.542 65.8775 274.091 70.9597 274.091 80.858V104.372H262.745V55.8973H273.552V62.9782C276.82 57.8961 282.721 55.3515 290.799 55.3515V55.3447Z" fill="white"/>
<path d="M292.341 80.1212C292.341 65.5978 303.236 55.3379 318.123 55.3379C333.009 55.3379 344 65.5978 344 80.1212C344 94.6447 333.193 104.993 318.123 104.993C303.052 104.993 292.341 94.6447 292.341 80.1212ZM332.559 80.1212C332.559 70.8641 326.384 64.9633 318.123 64.9633C309.861 64.9633 303.775 70.8641 303.775 80.1212C303.775 89.3783 309.949 95.2791 318.123 95.2791C326.296 95.2791 332.559 89.3783 332.559 80.1212Z" fill="white"/>
</g>
<defs>
<clipPath id="clip0_264_313">
<rect width="344" height="105" fill="white"/>
</clipPath>
</defs>
</svg>
