<svg width="446" height="94" viewBox="0 0 446 94" fill="none" xmlns="http://www.w3.org/2000/svg">
<g clip-path="url(#clip0_404_460)">
<path d="M216.29 0.120058C286.24 0.120058 356.19 0.120058 426.15 0.120058C438.32 0.120058 446.38 7.83006 445.67 18.7001C445.11 27.1801 438.02 34.1501 429.53 34.5401C427.74 34.6201 425.94 34.5601 424.15 34.5601C301.11 34.5601 178.06 34.5901 55.02 34.4501C49.76 34.4501 47.93 35.4501 48.08 41.1401C48.51 57.0901 48.12 73.0601 48.31 89.0201C48.35 92.8401 47.1 93.8801 43.4 93.8301C30.85 93.6301 18.29 93.5701 5.74005 93.8601C1.36004 93.9601 -0.0199547 92.8701 0.0100453 88.2901C0.220045 60.8501 0.230045 33.4101 4.53059e-05 5.97006C-0.0399547 1.28006 1.08005 -0.00994243 5.89005 5.75734e-05C68.1301 0.180058 130.37 0.120058 192.61 0.120058C200.5 0.120058 208.39 0.120058 216.29 0.120058ZM212.67 22.7201C265.4 22.7201 318.14 22.7201 370.87 22.7201C372.3 22.7201 373.74 22.7201 375.17 22.7101C378.55 22.6601 380.82 20.9101 380.94 17.6001C381.07 14.0101 378.72 12.1201 375.17 11.8601C373.74 11.7601 372.3 11.8301 370.87 11.8301C265.76 11.8301 160.65 11.8301 55.54 11.8301C53.93 11.8301 52.31 11.8301 50.7 11.8601C49.58 11.8901 48.76 12.1801 48.3 13.4701C46.28 19.0601 48.66 22.7101 54.46 22.7101C107.19 22.7101 159.93 22.7101 212.66 22.7101L212.67 22.7201Z" fill="white"/>
<path d="M188.13 93.7301C176.87 93.7301 166.75 93.7201 156.64 93.7301C154.6 93.7301 153.99 92.1701 153.22 90.7801C151.4 87.4901 149.45 84.2601 147.88 80.8601C146.34 77.5501 143.58 77.9701 141 78.3701C138.05 78.8201 139.18 81.4401 139.14 83.1801C138.9 93.7401 138.94 93.7401 128.34 93.7401C124.76 93.7401 121.15 93.4701 117.6 93.8101C113.3 94.2101 111.67 93.0201 111.79 88.3301C112.12 75.4501 112.04 62.5501 111.82 49.6601C111.75 45.6501 112.59 44.0501 117.07 44.1201C133.9 44.3901 150.73 44.1901 167.57 44.2501C176.68 44.2801 183.45 48.5501 185.94 55.6001C188.61 63.1501 186.54 69.3201 178.67 75.5601C176.53 77.2501 177.15 78.1301 178.32 79.7501C181.43 84.0301 184.41 88.4001 188.14 93.7201L188.13 93.7301ZM147.39 66.5701C147.39 66.5701 147.39 66.4901 147.39 66.4501C149.52 66.4501 151.72 66.7801 153.78 66.3801C158.16 65.5401 159.91 60.6101 157.21 57.2901C155.6 55.3101 141.74 53.8801 139.86 55.5101C139.61 55.7301 139.44 56.0601 139.29 56.3601C136.77 61.4201 139.77 66.5601 145.26 66.5601C145.97 66.5601 146.68 66.5601 147.4 66.5601L147.39 66.5701Z" fill="white"/>
<path d="M233.91 93.75C224.77 93.75 215.63 93.62 206.5 93.82C203.17 93.89 202.21 92.78 202.24 89.52C202.39 75.9 202.37 62.29 202.25 48.67C202.22 45.65 202.77 44.14 206.32 44.17C223.88 44.33 241.44 44.36 259 44.17C264.05 44.11 262.6 47.45 262.67 49.99C262.74 52.65 263.78 55.9 258.86 55.7C251.7 55.41 244.53 55.58 237.36 55.65C234.54 55.68 231.19 54.5 231.25 59.72C231.31 65.22 235.05 63.34 237.6 63.41C244.76 63.6 251.94 63.68 259.1 63.41C264.26 63.22 262.58 66.81 262.66 69.27C262.74 71.85 263.95 75.23 258.96 75.07C251.08 74.81 243.19 75.11 235.31 74.95C232.24 74.89 231.34 76.02 231.29 79C231.24 82.13 232.4 82.96 235.36 82.9C243.96 82.74 252.57 83.13 261.16 82.73C265.76 82.52 265.99 84.7 265.89 88.19C265.79 91.41 266.14 94.05 261.33 93.86C252.21 93.49 243.06 93.75 233.92 93.75H233.91Z" fill="white"/>
<path d="M309.53 93.75C301.48 93.75 293.42 93.62 285.37 93.81C282.12 93.89 281.03 92.86 281.07 89.55C281.23 75.77 281.2 62 281.08 48.22C281.05 45.23 281.96 44.1 285.04 44.18C292.01 44.36 299 44.35 305.97 44.18C309 44.11 310.03 45.13 309.98 48.17C309.83 57.83 310.25 67.51 309.79 77.15C309.55 82.16 311.3 83.21 315.84 82.93C321.9 82.56 328.01 83.07 334.08 82.76C338.46 82.54 338.06 85.24 337.88 87.93C337.71 90.48 339.22 93.94 334.21 93.8C325.98 93.58 317.75 93.74 309.52 93.74L309.53 93.75Z" fill="white"/>
<path d="M374.13 93.75C366.08 93.75 358.02 93.63 349.97 93.81C346.74 93.88 345.61 92.91 345.65 89.57C345.81 75.79 345.78 62.02 345.66 48.24C345.63 45.27 346.49 44.1 349.6 44.18C356.39 44.36 363.2 44.4 370 44.17C373.5 44.05 374.67 45.13 374.59 48.7C374.37 58.36 374.76 68.03 374.41 77.68C374.25 82.1 375.78 83.14 379.87 82.93C385.94 82.61 392.05 83.11 398.11 82.76C402.38 82.51 402.76 84.64 402.53 87.93C402.32 90.84 403.42 94.08 398.28 93.85C390.24 93.49 382.18 93.76 374.13 93.76V93.75Z" fill="white"/>
<path d="M65.8996 69.3899C65.8996 62.3999 65.9896 55.3999 65.8596 48.4099C65.8096 45.6199 66.3196 44.0799 69.6396 44.1799C76.4496 44.3899 83.2696 44.3499 90.0796 44.1899C92.8796 44.1299 93.8296 45.0699 93.7996 47.8899C93.6896 62.0599 93.6996 76.2199 93.7896 90.3899C93.8096 92.9699 92.8696 93.8299 90.3396 93.7899C83.3496 93.6799 76.3496 93.6399 69.3596 93.7999C66.2996 93.8699 65.8296 92.3799 65.8696 89.8399C65.9696 83.0299 65.8996 76.2099 65.8996 69.3999V69.3899Z" fill="white"/>
<path d="M410.02 68.5399C410.02 61.7399 410.14 54.9399 409.96 48.1399C409.88 45.0499 411.02 44.0999 414.01 44.1799C420.45 44.3499 426.9 44.3699 433.33 44.1799C436.47 44.0899 437.28 45.3199 437.25 48.2599C437.14 62.0399 437.15 75.8199 437.25 89.5899C437.27 92.3699 436.8 93.9099 433.48 93.7999C426.87 93.5899 420.24 93.6299 413.62 93.7899C410.74 93.8599 409.92 92.7199 409.97 90.0099C410.1 82.8499 410.01 75.6999 410.01 68.5399H410.02Z" fill="white"/>
</g>
<defs>
<clipPath id="clip0_404_460">
<rect width="445.71" height="93.89" fill="white"/>
</clipPath>
</defs>
</svg>
