<svg viewBox="0 0 183 33" fill="none" xmlns="http://www.w3.org/2000/svg">
<g clip-path="url(#clip0_222_640)">
<path d="M77.2894 0.698084H89.1406V32.7247H76.8782C76.8546 32.7247 76.8377 32.4696 76.6793 32.3119C71.4008 26.9316 65.8628 20.6182 61.1742 14.7211C60.6316 14.0397 59.8664 12.2172 58.7474 13.006C58.0732 13.4792 58.5418 15.3856 58.5552 16.0905C58.6631 21.6319 58.4609 27.1867 58.5485 32.7247H46.8354V4.05112C46.8354 2.61122 48.3421 0.865904 49.8353 0.735005C53.5532 0.909537 57.7092 0.379228 61.3799 0.694728C63.2 0.852478 63.5978 1.705 64.5887 2.98378C68.6773 8.26674 72.3918 13.8685 76.2681 19.3025C76.4096 19.6113 77.2928 19.6919 77.2928 19.3797V0.698084H77.2894Z" fill="white"/>
<path d="M136.539 32.725H124.138V24.24H107.052V32.725H94.6516V6.51494C94.6516 2.95381 99.4076 0.879564 102.431 0.691606C111.171 0.147871 120.491 1.09773 129.289 0.715101C132.103 0.758734 136.539 3.24246 136.539 6.37733V32.725ZM124.138 9.04901H107.052V18.2187H124.138V9.04901Z" fill="white"/>
<path d="M26.2372 24.9242C28.6674 26.8642 31.3404 28.7404 33.4032 31.0798C33.5347 31.2309 34.6841 32.6271 34.5728 32.7244C26.072 33.0332 17.5308 32.7815 9.01646 32.8621C4.2436 32.4492 0.519021 30.4018 0.128024 25.2666C0.417901 19.6312 -0.266343 13.6065 0.121283 8.01809C0.471832 2.96337 3.83912 0.781715 8.60187 0.288326C16.3544 0.375592 24.5822 -0.292329 32.2976 0.150714C37.5323 0.449433 41.722 2.28202 42.1501 8.02144C41.8703 13.5729 42.5276 19.4869 42.1568 24.9947C42.0894 25.9882 41.8096 26.9682 41.6007 27.9315L37.6098 25.3975C35.2773 24.1153 32.7763 23.2225 30.3056 22.2525V8.08857H13.2197V24.9242H26.2405H26.2372Z" fill="white"/>
<path d="M154.727 24.3773V32.7247H142.326V6.78984C142.326 3.37976 146.62 0.815475 149.715 0.71814C158.303 1.12762 167.502 0.11399 176.019 0.694645C180.772 1.02022 182.589 3.14481 182.842 7.74306C183.003 10.6866 183.158 16.4596 182.683 19.232C182.161 22.2896 179.387 24.3807 176.292 24.3807H154.727V24.3773ZM170.161 9.04869H154.592V17.2618H170.161V9.04869Z" fill="white"/>
<path d="M44.6344 32.9999H35.8842C32.709 27.9586 27.5047 24.6895 22.7251 21.3667C30.8113 22.7596 40.1076 25.6797 44.6344 32.9999Z" fill="white"/>
</g>
<defs>
<clipPath id="clip0_222_640">
<rect width="183" height="33" fill="white"/>
</clipPath>
</defs>
</svg>
