<svg width="251" height="32" viewBox="0 0 251 32" fill="none" xmlns="http://www.w3.org/2000/svg">
<g clip-path="url(#clip0_222_553)">
<path d="M0 0H40.8812C41.3219 2.31741 36.6246 6.53587 34.6999 6.53587H23.7656V31.737H17.4281V6.53587H6.49927C6.38769 6.53587 4.74195 5.86749 4.46859 5.73053C2.48813 4.71152 0.937233 2.56394 0 0.624551V0Z" fill="white"/>
<path d="M147.999 0C148.423 2.36672 143.017 6.53587 141.187 6.53587H118.844V12.7595H147.999V31.737H110.923C111.458 29.6333 116.791 25.5134 118.688 25.5134H141.667V18.9776H112.513V0H148.005H147.999Z" fill="white"/>
<path d="M250.046 12.7539V31.7315H243.709V19.2898H220.891V31.7315H214.554V12.7539H250.046Z" fill="white"/>
<path d="M172.401 0V25.8202H200.607C201.321 27.2666 197.126 31.7316 196.328 31.7316H166.063V0H172.401Z" fill="white"/>
<path d="M251 0C250.185 3.37476 247.145 6.28386 243.563 6.54682C235.943 7.10563 227.552 6.16333 219.859 6.45917C216.741 5.68122 214.152 3.12823 213.605 0H251Z" fill="white"/>
<path d="M94.125 0C93.5615 3.10084 90.9116 5.65383 87.8712 6.45917C80.2785 6.16881 71.994 7.10015 64.4794 6.54682C60.6077 6.26194 57.69 3.65965 56.7305 0H94.125Z" fill="white"/>
<path d="M94.125 25.5137C93.8683 28.2584 91.5699 30.521 89.1487 31.6715C80.7638 31.1839 71.1348 32.5426 62.895 31.7537C59.8267 31.4579 57.2214 28.3789 56.7305 25.5137H94.125Z" fill="white"/>
<path d="M94.1249 12.7539C93.5503 15.6192 90.6438 18.7036 87.6424 18.9939C79.8098 19.75 70.6383 18.4625 62.6662 18.9063C59.6983 18.1502 57.5672 15.5644 56.7249 12.7594H94.1194L94.1249 12.7539Z" fill="white"/>
</g>
<defs>
<clipPath id="clip0_222_553">
<rect width="251" height="32" fill="white"/>
</clipPath>
</defs>
</svg>
