<svg width="1440" height="296" viewBox="0 0 1440 296" fill="currentColor" xmlns="http://www.w3.org/2000/svg">
<path d="M440 296V1H772L587.602 185.382H587.542V111.618V111.588L624.398 74.7353H513.771V296H440Z" fill="currentColor"/>
<path d="M292.418 74.4852L71.6118 295H-2L292.418 1H366V295H292.418V74.4852Z" fill="currentColor"/>
<path d="M1447 0H1373.39L1331.78 41.6995L1312.81 0H1239.47L1281.37 92.206L1079 295H1152.58L1304.44 142.86L1373.36 295H1446.97L1354.81 92.3537L1446.97 0" fill="currentColor"/>
<path d="M985.243 295.145L587.747 295.677L660.72 222.763L1057.8 222.232L985.243 295.145Z" fill="currentColor"/>
<path d="M697.546 185.79L1094.63 185.258L1168.22 111.311L771.138 111.813L697.546 185.79Z" fill="currentColor"/>
<path d="M807.935 74.8391L1178.38 74.3075L1144.83 0.360352L881.557 0.8919L807.935 74.8391Z" fill="currentColor"/>
</svg>
