<svg viewBox="0 0 832 353" fill="none" xmlns="http://www.w3.org/2000/svg">
<g clip-path="url(#clip0_259_793)">
<path d="M0.205177 326.644C0.344061 326.006 1.34958 324.878 2.02178 324.578C11.3103 319.886 23.7099 318.087 32.7873 313.705C37.2871 311.534 41.9425 307.086 46.2868 304.448C35.165 298.373 24.3376 291.082 14.9046 282.552C12.6658 280.525 5.13833 273.439 3.98281 271.273C2.3051 268.125 3.31062 266.764 5.79941 264.548C66.0416 234.706 127.5 207.362 190.909 184.871C228.102 171.682 265.506 159.365 301.694 143.494L303.372 143.511C338.881 159.587 373.441 178.041 409.051 193.862C414.406 196.239 419.734 198.699 425.406 200.265C455.11 208.467 485.559 199.659 507.136 178.496L531.719 3.88699C532.835 -1.76061 540.513 -1.09978 540.513 4.85325C538.857 17.4312 536.496 30.0092 535.413 42.6094L619.31 161.303C626.132 165.84 633.382 170.039 640.737 173.793C641.904 173.848 657.747 162.864 658.17 161.853C658.564 160.904 657.764 161.103 657.458 160.915C651.131 157.027 645.731 155.012 644.853 146.321L644.826 14.8157C644.798 11.717 646.659 9.19585 649.709 8.57389C702.812 17.0425 755.788 27.2882 808.881 36.2399C810.497 36.4287 811.008 37.7004 810.897 39.2164L810.814 170.688C803.92 185.293 791.448 197.36 782.348 210.766C777.243 215.425 769.921 217.99 763.127 215.664L691.718 178.768L691.013 178.868L682.058 190.169L740.355 204.579C741.283 205.312 740.644 205.174 740.339 205.685C737.2 210.993 731.684 215.936 728.684 221.5C772.332 226.065 798.825 268.358 784.215 310.007C782.832 313.944 780.615 317.459 779.209 321.369C797.409 316.426 814.825 309.141 831.958 301.399V335.241H767.827C767.11 335.241 758.588 342.504 756.399 343.798C731.178 358.664 699.579 355.227 678.13 335.54C552.846 334.58 427.411 335.996 302.272 335.54C276.684 359.042 237.519 358.581 212.008 335.252C193.92 335.579 175.882 334.446 157.883 333.019C157.966 333.658 157.583 338.017 157.327 338.017H0.205177C0.682937 334.724 -0.444798 329.682 0.205177 326.644ZM603.988 169.594C604.916 168.967 610.96 164.552 610.955 164.091L533.246 55.0763L517.147 171.582L536.591 156.894C538.68 154.223 536.174 150.191 539.646 149.908C541.924 149.719 540.891 151.385 541.879 152.696C561.151 159.61 581.178 164.985 600.861 170.927C603.283 171.244 602.949 170.311 603.999 169.6L603.988 169.594ZM443.716 226.337C442.05 227.309 440.672 225.087 439.678 224.843C439.228 224.732 439.394 225.898 438.878 226.237C438.033 226.792 432.467 225.904 430.828 225.926C429.439 225.948 427.489 227.536 427.739 225.398H427.2C427.511 226.376 424.773 228.019 424.423 227.609C424.345 223.016 423.523 226.215 422.756 226.798C422.484 227.003 418.223 227.209 417.467 228.142C415.912 227.964 418.012 225.354 416.373 225.943C415.856 226.126 416.306 226.942 415.729 227.081C414.99 227.264 412.784 226.259 412.329 226.598C412.029 226.82 412.056 227.664 411.401 228.008C411.201 228.114 407.884 227.547 406.912 227.597C404.396 227.72 398.374 229.313 396.935 229.258C396.107 229.225 395.596 228.275 394.746 228.219C392.585 228.075 389.324 229.713 388.035 229.83C387.152 229.908 386.285 229.152 385.396 229.369C384.191 229.658 384.302 231.468 383.563 229.252C382.152 229.802 378.136 230.796 377.058 231.468C376.541 231.79 376.23 233.14 375.847 233.156C375.724 233.156 374.897 231.851 373.625 232.029C373.363 232.068 373.33 233.156 373.108 233.14C372.352 233.09 371.002 232.057 369.802 232.201C368.136 232.401 365.847 235.577 363.358 233.712C363.553 236.421 363.142 234.789 361.681 235.061C358.381 235.683 358.597 237.515 357.725 238.11C357.364 238.354 356.342 237.382 355.586 237.832C355.136 238.104 354.003 240.309 353.364 240.92C379.735 235.694 406.646 232.173 433.572 231.462C476.204 230.341 517.908 236.81 560.168 238.171C587.783 239.059 615.571 237.46 643.198 238.143C643.415 236.316 640.237 236.122 638.948 235.966C636.709 235.694 633.22 235.855 631.276 235.7C629.859 235.589 625.243 234.511 624.138 234.8C623.61 234.939 623.904 236.094 623.499 235.927C622.293 235.439 619.799 234.389 618.454 234.295C618.221 234.278 618.26 235.333 617.871 235.405C617.299 235.516 606.905 235.466 606.333 235.377C605.938 235.316 605.988 234.256 605.755 234.272C604.594 234.345 603.383 236.433 602.955 234.272C601.216 236.749 599.877 234.406 598.538 234.328C598 234.295 597.35 234.756 596.783 234.744C594.839 234.722 594.211 234.339 592.128 235.377V233.706C590.228 234.533 588.083 233.934 586 233.939C584.945 233.939 579.456 233.728 579.067 233.806C578.678 233.884 579.011 234.922 577.984 234.878C576.873 234.833 576.167 233.961 575.189 233.906C574.456 233.861 572.339 234.683 570.817 234.611C569.823 234.561 566.895 233.712 566.034 233.151L565.756 234.811C562.534 231.768 559.062 235.788 556.846 232.195C555.457 232.334 553.801 233.467 552.418 233.462C551.573 233.462 548.824 232.745 547.368 232.668C546.74 232.634 545.646 233.151 545.546 233.084C545.407 233.001 544.979 231.335 544.09 230.935C543.968 230.879 543.424 232.479 542.418 232.601C542.302 232.618 541.807 231.179 540.757 230.935C540.191 230.802 540.918 232.307 539.935 232.04L539.924 230.38C538.602 231.368 534.263 231.479 532.502 231.29C531.08 231.14 527.435 229.524 526.402 229.858C525.974 229.996 526.041 230.952 525.747 230.968C524.48 231.046 522.08 228.33 519.658 228.797C519.336 228.858 519.419 229.719 519.114 229.747C518.519 229.797 513.936 229.791 513.675 229.724C512.708 229.469 512.475 228.175 511.342 228.153C510.925 228.147 511.153 228.952 510.675 229.291C508.886 230.552 508.203 228.186 507.92 228.153C507.136 228.064 505.342 228.597 504.42 228.725C504.936 224.943 502.403 229.191 501.342 229.175C501.048 229.175 500.364 228.031 499.542 227.742C497.726 227.109 494.926 226.809 493.148 227.625C492.52 227.914 493.053 228.925 492.198 228.708C492.598 226.698 490.698 226.22 489.131 226.62C488.776 226.709 488.892 227.586 488.548 227.614C487.276 227.703 484.365 226.065 484.126 226.076C483.582 226.098 482.987 227.481 482.487 227.481C482.259 227.481 481.426 226.509 480.265 226.437C479.104 226.365 476.36 227.303 475.226 226.842C474.226 226.431 474.81 224.826 473.315 225.393L473.865 227.048C472.076 226.187 469.743 228.897 469.977 225.382C469.054 225.748 468.632 226.665 467.504 226.787C466.86 226.859 460.088 226.998 459.705 226.926C459.377 226.864 459.549 226.059 458.638 225.882C454.838 225.154 454.444 225.848 451.655 226.315C451.277 226.376 450.944 227.031 450.827 227.025C450.327 227.003 450.172 225.393 449.677 225.332C448.694 225.215 448.1 226.176 447.483 226.259C447.227 226.292 445.427 225.121 444.272 225.376C443.844 225.471 443.9 226.237 443.761 226.32L443.716 226.337Z" fill="black"/>
</g>
<defs>
<clipPath id="clip0_259_793">
<rect width="831.964" height="353" fill="white"/>
</clipPath>
</defs>
</svg>
