<svg viewBox="0 0 59 51" fill="none" xmlns="http://www.w3.org/2000/svg">
<path d="M22.9544 40.5331L20.1678 37.1122C20.175 37.0322 20.3075 37.068 20.3756 37.0716C27.0741 37.455 33.7104 40.4889 40.164 42.1146L40.5211 42.3057C36.7969 42.5816 33.1012 43.1621 29.457 43.9528C23.9387 45.1496 18.24 46.4504 12.7849 47.8873C9.1598 48.8429 5.5896 50.06 1.92505 50.8364C2.47091 50.2846 3.21027 49.8689 3.87438 49.4508C7.28452 47.308 11.0972 45.2225 14.6757 43.3616C15.5704 42.8957 20.0758 40.5343 20.716 40.5343H22.9544V40.5331Z" fill="#BC2329"/>
<path d="M47.5313 41.8016L46.1374 41.9688L42.6687 42.068C33.4846 39.4127 24.3877 36.3812 15.1404 33.9481C15.095 33.9362 15.003 33.9243 15.0161 33.9888L17.8864 36.7766C17.8995 36.8399 17.8052 36.8303 17.7622 36.8172C16.5988 36.4481 14.346 35.2943 13.24 34.666C12.0467 33.9888 10.7902 33.069 10.2861 31.7516C11.1234 31.797 11.9452 32.0048 12.7789 32.0872C14.3843 32.2473 15.9824 32.264 17.5914 32.172C18.0918 32.1433 18.701 31.9618 19.1967 32.0024C19.5658 32.0323 21.232 32.7728 21.3503 32.6785L18.5636 28.6663C18.5302 28.4883 18.6305 28.529 18.7571 28.5576C21.1209 29.0939 23.7475 30.5906 26.1376 31.2284L47.5313 41.8016Z" fill="#03CED3"/>
<path d="M58.7639 44.9251C57.9015 44.5119 57.0857 44.0221 56.203 43.6435C54.0864 42.7381 51.8659 42.2508 49.581 41.988C41.9748 38.3426 34.5202 34.3806 26.9534 30.6635C22.1744 28.3164 17.2677 26.2273 12.5221 23.8109L17.2939 29.5538L9.10603 25.2013C7.87456 23.5721 7.02411 21.6418 6.48542 19.6734C7.4135 20.1082 8.27469 20.6875 9.18606 21.1533C11.7434 22.4612 14.444 23.461 17.2103 24.2338L14.0427 17.0576L33.7629 29.4296C24.8321 21.9273 15.2288 15.279 6.10439 8.01919L11.9739 18.1122C11.8879 18.2496 11.7876 18.0836 11.7207 18.0274C10.4832 17.005 8.97942 15.9013 7.97131 14.6818C4.53489 10.5227 1.87128 5.29228 0.236084 0.16333C3.68564 3.83386 7.50189 7.14605 11.428 10.2958C22.7287 19.3628 36.2402 25.439 48.6863 32.749C51.5267 34.4176 54.6359 36.1519 56.5529 38.9028C57.7916 40.6801 58.5166 42.7728 58.7639 44.9251ZM55.048 38.8454L51.5876 37.1123C51.8134 37.4228 52.3234 37.7429 52.5157 38.0416C52.7092 38.3414 52.6495 38.6639 52.7869 38.9529C53.2073 39.8332 54.5057 39.3268 55.048 38.8466V38.8454Z" fill="#693FBC"/>
</svg>
